SplineFontDB: 3.0
FontName: Midway-Bold
FullName: Midway Bold
FamilyName: Midway
Weight: Bold
Copyright: Copyright 2011 Canonical Ltd.\nCopyright 2015 Yuta Taniguchi\nLicensed under the Ubuntu Font Licence 1.0
Version: 0.1
ItalicAngle: 0
UnderlinePosition: -156
UnderlineWidth: 23
Ascent: 800
Descent: 200
InvalidEm: 0
sfntRevision: 0x0000199a
LayerCount: 2
Layer: 0 1 "Back" 1
Layer: 1 1 "Fore" 0
XUID: [1021 935 -1301570125 14422120]
StyleMap: 0x0000
FSType: 0
OS2Version: 3
OS2_WeightWidthSlopeOnly: 0
OS2_UseTypoMetrics: 0
CreationTime: 1304432203
ModificationTime: 1453433100
PfmFamily: 49
TTFWeight: 700
TTFWidth: 5
LineGap: 0
VLineGap: 0
Panose: 2 11 8 9 3 6 2 3 2 4
OS2TypoAscent: 0
OS2TypoAOffset: 1
OS2TypoDescent: 0
OS2TypoDOffset: 1
OS2TypoLinegap: 0
OS2WinAscent: 0
OS2WinAOffset: 1
OS2WinDescent: 0
OS2WinDOffset: 1
HheadAscent: 0
HheadAOffset: 1
HheadDescent: 0
HheadDOffset: 1
OS2SubXSize: 824
OS2SubYSize: 766
OS2SubXOff: 0
OS2SubYOff: 165
OS2SupXSize: 824
OS2SupYSize: 766
OS2SupXOff: 0
OS2SupYOff: 562
OS2StrikeYSize: 59
OS2StrikeYPos: 294
OS2CapHeight: 729
OS2XHeight: 554
OS2Vendor: 'DAMA'
OS2CodePages: 2000009f.56010000
OS2UnicodeRanges: e00002ff.5000205b.00000000.00000000
Lookup: 1 0 0 "'locl' Localized Forms in Latin lookup 0" { "'locl' Localized Forms in Latin lookup 0 subtable"  } ['locl' ('latn' <'AZE ' > ) ]
Lookup: 1 0 0 "'locl' Localized Forms in Latin lookup 1" { "'locl' Localized Forms in Latin lookup 1 subtable"  } ['locl' ('latn' <'TRK ' > ) ]
Lookup: 1 0 0 "'locl' Localized Forms in Latin lookup 2" { "'locl' Localized Forms in Latin lookup 2 subtable"  } ['locl' ('latn' <'CRT ' > ) ]
Lookup: 1 0 0 "'locl' Localized Forms in Cyrillic lookup 3" { "'locl' Localized Forms in Cyrillic lookup 3 subtable"  } ['locl' ('cyrl' <'BGR ' > ) ]
Lookup: 1 0 0 "'locl' Localized Forms in Cyrillic lookup 4" { "'locl' Localized Forms in Cyrillic lookup 4 subtable"  } ['locl' ('cyrl' <'MKD ' > ) ]

StartChar: SF030000.001
Encoding: 65536 -1 0
Width: 588
VWidth: 1177
Flags: W
LayerCount: 2
Fore
SplineSet
59 0 m 1,0,-1
 59 883 l 1,1,-1
 530 883 l 1,2,-1
 530 0 l 1,3,-1
 59 0 l 1,0,-1
471 59 m 1,4,-1
 471 824 l 1,5,-1
 118 824 l 1,6,-1
 118 59 l 1,7,-1
 471 59 l 1,4,-1
EndSplineSet
EndChar

StartChar: exclam
Encoding: 33 33 4
Width: 588
VWidth: 1177
Flags: W
LayerCount: 2
Fore
SplineSet
378 536 m 2,0,1
 378 494 378 494 376.5 460 c 128,-1,2
 375 426 375 426 372 395 c 128,-1,3
 369 364 369 364 364.5 333.5 c 128,-1,4
 360 303 360 303 356 265 c 1,5,-1
 236 265 l 1,6,7
 230 303 230 303 225.5 334 c 128,-1,8
 221 365 221 365 217.5 395.5 c 128,-1,9
 214 426 214 426 212.5 460 c 128,-1,10
 211 494 211 494 211 536 c 2,11,-1
 211 729 l 1,12,-1
 378 729 l 1,13,-1
 378 536 l 2,0,1
392 84 m 0,14,15
 392 38 392 38 362 12 c 128,-1,16
 332 -14 332 -14 294 -14 c 256,17,18
 256 -14 256 -14 226.5 12 c 128,-1,19
 197 38 197 38 197 84 c 0,20,21
 197 129 197 129 227 154.5 c 128,-1,22
 257 180 257 180 294 180 c 256,23,24
 332 180 332 180 362 154.5 c 128,-1,25
 392 129 392 129 392 84 c 0,14,15
EndSplineSet
EndChar

StartChar: quotedbl
Encoding: 34 34 5
Width: 588
VWidth: 1177
Flags: W
LayerCount: 2
Fore
SplineSet
489 800 m 1,0,-1
 489 742 l 2,1,2
 489 713 489 713 486 678 c 128,-1,3
 483 643 483 643 477.5 606.5 c 128,-1,4
 472 570 472 570 466.5 534.5 c 128,-1,5
 461 499 461 499 455 469 c 1,6,-1
 370 469 l 1,7,8
 364 500 364 500 358 535 c 128,-1,9
 352 570 352 570 347 606.5 c 128,-1,10
 342 643 342 643 338.5 678.5 c 128,-1,11
 335 714 335 714 335 743 c 2,12,-1
 335 800 l 1,13,-1
 489 800 l 1,0,-1
257 800 m 1,14,-1
 257 742 l 2,15,16
 257 713 257 713 254 678 c 128,-1,17
 251 643 251 643 245.5 606.5 c 128,-1,18
 240 570 240 570 233.5 534.5 c 128,-1,19
 227 499 227 499 221 469 c 1,20,-1
 138 469 l 1,21,22
 132 500 132 500 126 535 c 128,-1,23
 120 570 120 570 115 606.5 c 128,-1,24
 110 643 110 643 106 678.5 c 128,-1,25
 102 714 102 714 102 743 c 2,26,-1
 102 800 l 1,27,-1
 257 800 l 1,14,-1
EndSplineSet
EndChar

StartChar: numbersign
Encoding: 35 35 6
Width: 588
VWidth: 1177
Flags: W
LayerCount: 2
Fore
SplineSet
163 550 m 1,0,-1
 197 729 l 1,1,-1
 317 729 l 1,2,-1
 282 550 l 1,3,-1
 376 550 l 1,4,-1
 410 729 l 1,5,-1
 530 729 l 1,6,-1
 496 550 l 1,7,-1
 569 550 l 1,8,-1
 569 430 l 1,9,-1
 472 430 l 1,10,-1
 448 300 l 1,11,-1
 569 300 l 1,12,-1
 569 180 l 1,13,-1
 425 180 l 1,14,-1
 391 0 l 1,15,-1
 271 0 l 1,16,-1
 305 180 l 1,17,-1
 211 180 l 1,18,-1
 178 0 l 1,19,-1
 58 0 l 1,20,-1
 92 180 l 1,21,-1
 21 180 l 1,22,-1
 21 300 l 1,23,-1
 114 300 l 1,24,-1
 139 430 l 1,25,-1
 21 430 l 1,26,-1
 21 550 l 1,27,-1
 163 550 l 1,0,-1
234 300 m 1,28,-1
 329 300 l 1,29,-1
 352 430 l 1,30,-1
 259 430 l 1,31,-1
 234 300 l 1,28,-1
EndSplineSet
EndChar

StartChar: dollar
Encoding: 36 36 7
Width: 588
VWidth: 1177
Flags: W
LayerCount: 2
Fore
SplineSet
227 11 m 1,0,1
 153 18 153 18 107.5 34.5 c 128,-1,2
 62 51 62 51 40 64 c 1,3,-1
 85 179 l 1,4,5
 123 161 123 161 173.5 146.5 c 128,-1,6
 224 132 224 132 280 132 c 0,7,8
 346 132 346 132 372 149 c 128,-1,9
 398 166 398 166 398 203 c 0,10,11
 398 224 398 224 388 239 c 128,-1,12
 378 254 378 254 358.5 266.5 c 128,-1,13
 339 279 339 279 311 289 c 128,-1,14
 283 299 283 299 247 312 c 0,15,16
 213 324 213 324 180 339.5 c 128,-1,17
 147 355 147 355 121 376.5 c 128,-1,18
 95 398 95 398 79.5 429.5 c 128,-1,19
 64 461 64 461 64 506 c 0,20,21
 64 539 64 539 72.5 570 c 128,-1,22
 81 601 81 601 100.5 627 c 128,-1,23
 120 653 120 653 152 672 c 128,-1,24
 184 691 184 691 230 702 c 1,25,-1
 230 816 l 1,26,-1
 364 816 l 1,27,-1
 364 708 l 1,28,29
 418 703 418 703 460 691.5 c 128,-1,30
 502 680 502 680 525 670 c 1,31,-1
 492 549 l 1,32,33
 458 563 458 563 411.5 574 c 128,-1,34
 365 585 365 585 316 585 c 0,35,36
 259 585 259 585 237.5 565 c 128,-1,37
 216 545 216 545 216 518 c 0,38,39
 216 499 216 499 223.5 487 c 128,-1,40
 231 475 231 475 247 465.5 c 128,-1,41
 263 456 263 456 285 447 c 128,-1,42
 307 438 307 438 338 428 c 0,43,44
 384 410 384 410 423 390.5 c 128,-1,45
 462 371 462 371 490 345.5 c 128,-1,46
 518 320 518 320 534 286 c 128,-1,47
 550 252 550 252 550 206 c 0,48,49
 550 174 550 174 540.5 143 c 128,-1,50
 531 112 531 112 509.5 85.5 c 128,-1,51
 488 59 488 59 452 39.5 c 128,-1,52
 416 20 416 20 362 12 c 1,53,-1
 362 -114 l 1,54,-1
 227 -114 l 1,55,-1
 227 11 l 1,0,1
EndSplineSet
EndChar

StartChar: percent
Encoding: 37 37 8
Width: 588
VWidth: 1177
Flags: W
LayerCount: 2
Fore
SplineSet
107 0 m 1,0,-1
 2 0 l 1,1,-1
 482 729 l 1,2,-1
 587 729 l 1,3,-1
 107 0 l 1,0,-1
312 167 m 256,4,5
 312 257 312 257 347.5 303.5 c 128,-1,6
 383 350 383 350 444 350 c 0,7,8
 506 350 506 350 541.5 303.5 c 128,-1,9
 577 257 577 257 577 167 c 256,10,11
 577 77 577 77 541.5 31 c 128,-1,12
 506 -15 506 -15 444 -15 c 0,13,14
 383 -15 383 -15 347.5 31 c 128,-1,15
 312 77 312 77 312 167 c 256,4,5
483 167 m 256,16,17
 483 216 483 216 471 237.5 c 128,-1,18
 459 259 459 259 443 259 c 256,19,20
 427 259 427 259 416.5 238 c 128,-1,21
 406 217 406 217 406 167 c 256,22,23
 406 118 406 118 416 98 c 128,-1,24
 426 78 426 78 443 78 c 256,25,26
 459 78 459 78 471 98 c 128,-1,27
 483 118 483 118 483 167 c 256,16,17
12 563 m 256,28,29
 12 653 12 653 47 699.5 c 128,-1,30
 82 746 82 746 143 746 c 0,31,32
 207 746 207 746 242 699.5 c 128,-1,33
 277 653 277 653 277 563 c 256,34,35
 277 473 277 473 241.5 426 c 128,-1,36
 206 379 206 379 143 379 c 0,37,38
 83 379 83 379 47.5 426 c 128,-1,39
 12 473 12 473 12 563 c 256,28,29
181 563 m 256,40,41
 181 612 181 612 169.5 633 c 128,-1,42
 158 654 158 654 143 654 c 0,43,44
 127 654 127 654 116 633 c 128,-1,45
 105 612 105 612 105 563 c 256,46,47
 105 514 105 514 115.5 493.5 c 128,-1,48
 126 473 126 473 143 473 c 0,49,50
 158 473 158 473 169.5 493.5 c 128,-1,51
 181 514 181 514 181 563 c 256,40,41
EndSplineSet
EndChar

StartChar: ampersand
Encoding: 38 38 9
Width: 588
VWidth: 1177
Flags: W
LayerCount: 2
Fore
SplineSet
430 0 m 1,0,1
 417 34 417 34 402 62 c 1,2,3
 362 27 362 27 319.5 9 c 128,-1,4
 277 -9 277 -9 236 -9 c 0,5,6
 183 -9 183 -9 143.5 7.5 c 128,-1,7
 104 24 104 24 77.5 51.5 c 128,-1,8
 51 79 51 79 38 115.5 c 128,-1,9
 25 152 25 152 25 192 c 0,10,11
 25 249 25 249 53.5 300 c 128,-1,12
 82 351 82 351 140 386 c 1,13,14
 112 425 112 425 93.5 467.5 c 128,-1,15
 75 510 75 510 75 556 c 0,16,17
 75 603 75 603 91.5 639 c 128,-1,18
 108 675 108 675 135.5 698.5 c 128,-1,19
 163 722 163 722 196.5 734 c 128,-1,20
 230 746 230 746 265 746 c 0,21,22
 298 746 298 746 330 735 c 128,-1,23
 362 724 362 724 386.5 703.5 c 128,-1,24
 411 683 411 683 426.5 652 c 128,-1,25
 442 621 442 621 442 580 c 0,26,27
 442 523 442 523 407.5 469.5 c 128,-1,28
 373 416 373 416 300 378 c 1,29,30
 324 350 324 350 350 320.5 c 128,-1,31
 376 291 376 291 403 260 c 1,32,33
 419 320 419 320 420 403 c 1,34,-1
 541 388 l 1,35,36
 540 322 540 322 524 265 c 128,-1,37
 508 208 508 208 483 163 c 1,38,39
 511 124 511 124 533.5 82.5 c 128,-1,40
 556 41 556 41 568 0 c 1,41,-1
 430 0 l 1,0,1
344 147 m 1,42,43
 311 188 311 188 275.5 227 c 128,-1,44
 240 266 240 266 206 304 c 1,45,46
 180 286 180 286 164 261 c 128,-1,47
 148 236 148 236 148 199 c 0,48,49
 148 159 148 159 169 129.5 c 128,-1,50
 190 100 190 100 239 100 c 0,51,52
 266 100 266 100 293 110.5 c 128,-1,53
 320 121 320 121 344 147 c 1,42,43
200 563 m 0,54,55
 200 537 200 537 210.5 510.5 c 128,-1,56
 221 484 221 484 240 456 c 1,57,58
 278 477 278 477 298 512 c 128,-1,59
 318 547 318 547 318 578 c 256,60,61
 318 609 318 609 303.5 625 c 128,-1,62
 289 641 289 641 265 641 c 0,63,64
 236 641 236 641 218 621 c 128,-1,65
 200 601 200 601 200 563 c 0,54,55
EndSplineSet
EndChar

StartChar: quotesingle
Encoding: 39 39 10
Width: 588
VWidth: 1177
Flags: W
LayerCount: 2
Fore
SplineSet
373 800 m 1,0,-1
 373 722 l 2,1,2
 373 693 373 693 370 658 c 128,-1,3
 367 623 367 623 362 586.5 c 128,-1,4
 357 550 357 550 351 514 c 128,-1,5
 345 478 345 478 339 448 c 1,6,-1
 254 448 l 1,7,8
 248 479 248 479 242.5 514.5 c 128,-1,9
 237 550 237 550 231.5 586.5 c 128,-1,10
 226 623 226 623 222.5 658 c 128,-1,11
 219 693 219 693 219 722 c 2,12,-1
 219 800 l 1,13,-1
 373 800 l 1,0,-1
EndSplineSet
EndChar

StartChar: parenleft
Encoding: 40 40 11
Width: 588
VWidth: 1177
Flags: W
LayerCount: 2
Fore
SplineSet
245 313 m 0,0,1
 245 168 245 168 309 61.5 c 128,-1,2
 373 -45 373 -45 486 -111 c 1,3,-1
 419 -200 l 1,4,5
 259 -112 259 -112 185 20 c 128,-1,6
 111 152 111 152 111 313 c 0,7,8
 111 476 111 476 187.5 612 c 128,-1,9
 264 748 264 748 424 836 c 1,10,-1
 491 747 l 1,11,12
 378 681 378 681 311.5 570 c 128,-1,13
 245 459 245 459 245 313 c 0,0,1
EndSplineSet
Substitution2: "'case' Case-Sensitive Forms lookup 17 subtable" Parenleft
EndChar

StartChar: parenright
Encoding: 41 41 12
Width: 588
VWidth: 1177
Flags: W
LayerCount: 2
Fore
SplineSet
346 313 m 0,0,1
 346 459 346 459 279.5 570 c 128,-1,2
 213 681 213 681 100 747 c 1,3,-1
 167 836 l 1,4,5
 327 748 327 748 404 612 c 128,-1,6
 481 476 481 476 481 313 c 0,7,8
 481 152 481 152 406.5 20 c 128,-1,9
 332 -112 332 -112 172 -200 c 1,10,-1
 105 -111 l 1,11,12
 218 -45 218 -45 282 61.5 c 128,-1,13
 346 168 346 168 346 313 c 0,0,1
EndSplineSet
Substitution2: "'case' Case-Sensitive Forms lookup 17 subtable" Parenright
EndChar

StartChar: asterisk
Encoding: 42 42 13
Width: 588
VWidth: 1177
Flags: W
LayerCount: 2
Fore
SplineSet
297 441 m 1,0,1
 293 427 293 427 286 406.5 c 128,-1,2
 279 386 279 386 271.5 366 c 128,-1,3
 264 346 264 346 255 328.5 c 128,-1,4
 246 311 246 311 238 299 c 2,5,-1
 216 270 l 1,6,-1
 105 349 l 1,7,-1
 127 378 l 2,8,9
 135 390 135 390 150 404 c 128,-1,10
 165 418 165 418 181 432 c 128,-1,11
 197 446 197 446 213.5 458.5 c 128,-1,12
 230 471 230 471 241 479 c 1,13,14
 226 479 226 479 205.5 479 c 128,-1,15
 185 479 185 479 164 481 c 128,-1,16
 143 483 143 483 122.5 486.5 c 128,-1,17
 102 490 102 490 90 495 c 2,18,-1
 54 506 l 1,19,-1
 98 635 l 1,20,-1
 133 624 l 2,21,22
 146 619 146 619 163.5 609.5 c 128,-1,23
 181 600 181 600 199 588 c 128,-1,24
 217 576 217 576 234 564 c 128,-1,25
 251 552 251 552 263 543 c 1,26,27
 258 557 258 557 252 576.5 c 128,-1,28
 246 596 246 596 241 617 c 128,-1,29
 236 638 236 638 232.5 658 c 128,-1,30
 229 678 229 678 229 693 c 2,31,-1
 229 729 l 1,32,-1
 365 729 l 1,33,-1
 365 693 l 2,34,35
 365 679 365 679 361.5 658.5 c 128,-1,36
 358 638 358 638 352.5 617 c 128,-1,37
 347 596 347 596 341 576.5 c 128,-1,38
 335 557 335 557 330 543 c 1,39,40
 342 551 342 551 359.5 563 c 128,-1,41
 377 575 377 575 395 586 c 128,-1,42
 413 597 413 597 431 606.5 c 128,-1,43
 449 616 449 616 463 621 c 2,44,-1
 497 633 l 1,45,-1
 539 502 l 1,46,-1
 504 491 l 2,47,48
 490 486 490 486 470 484 c 128,-1,49
 450 482 450 482 429 480 c 128,-1,50
 408 478 408 478 387 478 c 128,-1,51
 366 478 366 478 351 478 c 1,52,53
 364 470 364 470 380.5 457.5 c 128,-1,54
 397 445 397 445 413.5 431.5 c 128,-1,55
 430 418 430 418 444 404 c 128,-1,56
 458 390 458 390 466 378 c 2,57,-1
 489 349 l 1,58,-1
 378 269 l 1,59,-1
 357 298 l 2,60,61
 349 310 349 310 340 327.5 c 128,-1,62
 331 345 331 345 322.5 365.5 c 128,-1,63
 314 386 314 386 308 406 c 128,-1,64
 302 426 302 426 297 441 c 1,0,1
EndSplineSet
EndChar

StartChar: plus
Encoding: 43 43 14
Width: 588
VWidth: 1177
Flags: W
LayerCount: 2
Fore
SplineSet
47 369 m 1,0,-1
 232 369 l 1,1,-1
 232 574 l 1,2,-1
 357 574 l 1,3,-1
 357 369 l 1,4,-1
 542 369 l 1,5,-1
 542 250 l 1,6,-1
 357 250 l 1,7,-1
 357 45 l 1,8,-1
 232 45 l 1,9,-1
 232 250 l 1,10,-1
 47 250 l 1,11,-1
 47 369 l 1,0,-1
EndSplineSet
EndChar

StartChar: comma
Encoding: 44 44 15
Width: 588
VWidth: 1177
Flags: W
LayerCount: 2
Fore
SplineSet
148 -86 m 1,0,1
 169 -81 169 -81 191 -77.5 c 128,-1,2
 213 -74 213 -74 232.5 -67 c 128,-1,3
 252 -60 252 -60 267.5 -47 c 128,-1,4
 283 -34 283 -34 292 -12 c 1,5,6
 247 -7 247 -7 222.5 23.5 c 128,-1,7
 198 54 198 54 198 92 c 0,8,9
 198 138 198 138 228 167.5 c 128,-1,10
 258 197 258 197 304 197 c 0,11,12
 353 197 353 197 381 164 c 128,-1,13
 409 131 409 131 409 74 c 0,14,15
 409 33 409 33 396 -8 c 128,-1,16
 383 -49 383 -49 354 -84.5 c 128,-1,17
 325 -120 325 -120 279 -146 c 128,-1,18
 233 -172 233 -172 167 -180 c 1,19,-1
 148 -86 l 1,0,1
EndSplineSet
EndChar

StartChar: hyphen
Encoding: 45 45 16
Width: 588
VWidth: 1177
Flags: W
LayerCount: 2
Fore
SplineSet
86 373 m 1,0,-1
 503 373 l 1,1,-1
 503 231 l 1,2,-1
 86 231 l 5,3,-1
 86 373 l 1,0,-1
EndSplineSet
Substitution2: "'case' Case-Sensitive Forms lookup 17 subtable" Hyphen
EndChar

StartChar: period
Encoding: 46 46 17
Width: 588
VWidth: 1177
Flags: W
LayerCount: 2
Fore
SplineSet
400 93 m 0,0,1
 400 41 400 41 368.5 14 c 128,-1,2
 337 -13 337 -13 296 -13 c 0,3,4
 275 -13 275 -13 256 -6 c 128,-1,5
 237 1 237 1 222 14.5 c 128,-1,6
 207 28 207 28 198.5 47.5 c 128,-1,7
 190 67 190 67 190 93 c 0,8,9
 190 118 190 118 198.5 137.5 c 128,-1,10
 207 157 207 157 222 170 c 128,-1,11
 237 183 237 183 255.5 190 c 128,-1,12
 274 197 274 197 296 197 c 0,13,14
 337 197 337 197 368.5 169.5 c 128,-1,15
 400 142 400 142 400 93 c 0,0,1
EndSplineSet
EndChar

StartChar: slash
Encoding: 47 47 18
Width: 588
VWidth: 1177
Flags: W
LayerCount: 2
Fore
SplineSet
206 -194 m 1,0,-1
 55 -194 l 1,1,-1
 385 823 l 1,2,-1
 534 823 l 1,3,-1
 206 -194 l 1,0,-1
EndSplineSet
Substitution2: "'case' Case-Sensitive Forms lookup 17 subtable" Slash
Substitution2: "'ss02' Style Set 2 lookup 14 subtable" fraction
Substitution2: "'frac' Diagonal Fractions lookup 12 subtable" fraction
EndChar

StartChar: zero
Encoding: 48 48 19
Width: 588
VWidth: 1177
Flags: W
LayerCount: 2
Fore
SplineSet
548 366 m 0,0,1
 548 173 548 173 483 79 c 128,-1,2
 418 -15 418 -15 294 -15 c 256,3,4
 170 -15 170 -15 105.5 79 c 128,-1,5
 41 173 41 173 41 366 c 0,6,7
 41 557 41 557 107 651.5 c 128,-1,8
 173 746 173 746 294 746 c 0,9,10
 418 746 418 746 483 652 c 128,-1,11
 548 558 548 558 548 366 c 0,0,1
417 366 m 0,12,13
 417 491 417 491 386 556.5 c 128,-1,14
 355 622 355 622 294 622 c 0,15,16
 235 622 235 622 203.5 556.5 c 128,-1,17
 172 491 172 491 172 366 c 0,18,19
 172 240 172 240 204 175 c 128,-1,20
 236 110 236 110 294 110 c 0,21,22
 354 110 354 110 385.5 175 c 128,-1,23
 417 240 417 240 417 366 c 0,12,13
360 378 m 256,24,25
 360 346 360 346 342 323 c 128,-1,26
 324 300 324 300 296 300 c 0,27,28
 265 300 265 300 247.5 323 c 128,-1,29
 230 346 230 346 230 378 c 256,30,31
 230 410 230 410 247.5 433.5 c 128,-1,32
 265 457 265 457 296 457 c 0,33,34
 324 457 324 457 342 433.5 c 128,-1,35
 360 410 360 410 360 378 c 256,24,25
EndSplineSet
Substitution2: "'ss02' Style Set 2 lookup 15 subtable" zerosuperior
Substitution2: "'sinf' Scientific Inferiors lookup 11 subtable" zero.sinf
Substitution2: "'subs' Subscript lookup 10 subtable" zero.sinf
Substitution2: "'sups' Superscript lookup 9 subtable" zero.sups
Substitution2: "'dnom' Denominators lookup 8 subtable" zeroinferior
Substitution2: "'numr' Numerators lookup 6 subtable" zerosuperior
EndChar

StartChar: one
Encoding: 49 49 20
Width: 588
VWidth: 1177
Flags: W
LayerCount: 2
Fore
SplineSet
251 120 m 1,0,-1
 251 528 l 1,1,2
 218 504 218 504 175.5 486 c 128,-1,3
 133 468 133 468 104 457 c 1,4,-1
 57 577 l 1,5,6
 85 588 85 588 118 604.5 c 128,-1,7
 151 621 151 621 184 641 c 128,-1,8
 217 661 217 661 246.5 683.5 c 128,-1,9
 276 706 276 706 297 729 c 1,10,-1
 396 729 l 1,11,-1
 396 120 l 1,12,-1
 541 120 l 1,13,-1
 541 0 l 1,14,-1
 98 0 l 1,15,-1
 98 120 l 1,16,-1
 251 120 l 1,0,-1
EndSplineSet
Substitution2: "'ss02' Style Set 2 lookup 15 subtable" onesuperior
Substitution2: "'sinf' Scientific Inferiors lookup 11 subtable" one.sinf
Substitution2: "'subs' Subscript lookup 10 subtable" one.sinf
Substitution2: "'sups' Superscript lookup 9 subtable" one.sups
Substitution2: "'dnom' Denominators lookup 8 subtable" oneinferior
Substitution2: "'numr' Numerators lookup 6 subtable" onesuperior
EndChar

StartChar: two
Encoding: 50 50 21
Width: 588
VWidth: 1177
Flags: W
LayerCount: 2
Fore
SplineSet
511 537 m 0,0,1
 511 499 511 499 497 464.5 c 128,-1,2
 483 430 483 430 459.5 397 c 128,-1,3
 436 364 436 364 406.5 333.5 c 128,-1,4
 377 303 377 303 346 274 c 0,5,6
 331 260 331 260 311 240.5 c 128,-1,7
 291 221 291 221 273.5 200.5 c 128,-1,8
 256 180 256 180 243.5 159 c 128,-1,9
 231 138 231 138 231 120 c 1,10,-1
 544 120 l 1,11,-1
 544 0 l 1,12,-1
 68 0 l 1,13,14
 64 12 64 12 65 29.5 c 128,-1,15
 66 47 66 47 66 54 c 0,16,17
 66 113 66 113 88 162.5 c 128,-1,18
 110 212 110 212 143.5 254 c 128,-1,19
 177 296 177 296 215 331.5 c 128,-1,20
 253 367 253 367 286.5 400 c 128,-1,21
 320 433 320 433 342 464 c 128,-1,22
 364 495 364 495 364 527 c 0,23,24
 364 572 364 572 337 596 c 128,-1,25
 310 620 310 620 269 620 c 0,26,27
 235 620 235 620 197 603.5 c 128,-1,28
 159 587 159 587 122 548 c 1,29,-1
 51 649 l 1,30,31
 98 698 98 698 159.5 722 c 128,-1,32
 221 746 221 746 283 746 c 0,33,34
 328 746 328 746 369 733 c 128,-1,35
 410 720 410 720 441.5 694 c 128,-1,36
 473 668 473 668 492 628.5 c 128,-1,37
 511 589 511 589 511 537 c 0,0,1
EndSplineSet
Substitution2: "'ss02' Style Set 2 lookup 15 subtable" twosuperior
Substitution2: "'sinf' Scientific Inferiors lookup 11 subtable" two.sinf
Substitution2: "'subs' Subscript lookup 10 subtable" two.sinf
Substitution2: "'sups' Superscript lookup 9 subtable" two.sups
Substitution2: "'dnom' Denominators lookup 8 subtable" twoinferior
Substitution2: "'numr' Numerators lookup 6 subtable" twosuperior
EndChar

StartChar: three
Encoding: 51 51 22
Width: 588
VWidth: 1177
Flags: W
LayerCount: 2
Fore
SplineSet
251 -15 m 0,0,1
 224 -15 224 -15 194 -11 c 128,-1,2
 164 -7 164 -7 136 -1 c 128,-1,3
 108 5 108 5 84.5 12 c 128,-1,4
 61 19 61 19 48 25 c 1,5,-1
 77 146 l 1,6,7
 104 134 104 134 147 121 c 128,-1,8
 190 108 190 108 250 108 c 0,9,10
 324 108 324 108 354 140 c 128,-1,11
 384 172 384 172 384 219 c 0,12,13
 384 277 384 277 338 300 c 128,-1,14
 292 323 292 323 221 323 c 2,15,-1
 177 323 l 1,16,-1
 177 443 l 1,17,-1
 231 443 l 2,18,19
 253 443 253 443 275.5 447.5 c 128,-1,20
 298 452 298 452 315.5 462.5 c 128,-1,21
 333 473 333 473 344.5 491 c 128,-1,22
 356 509 356 509 356 536 c 0,23,24
 356 576 356 576 331.5 599 c 128,-1,25
 307 622 307 622 265 622 c 0,26,27
 224 622 224 622 183.5 608.5 c 128,-1,28
 143 595 143 595 113 575 c 1,29,-1
 61 681 l 1,30,31
 93 702 93 702 145.5 724 c 128,-1,32
 198 746 198 746 264 746 c 0,33,34
 325 746 325 746 370.5 730.5 c 128,-1,35
 416 715 416 715 445.5 687.5 c 128,-1,36
 475 660 475 660 489 622 c 128,-1,37
 503 584 503 584 503 541 c 256,38,39
 503 497 503 497 478 457 c 128,-1,40
 453 417 453 417 412 396 c 1,41,42
 469 372 469 372 500 326 c 128,-1,43
 531 280 531 280 531 217 c 0,44,45
 531 166 531 166 514.5 123.5 c 128,-1,46
 498 81 498 81 464 50 c 128,-1,47
 430 19 430 19 377 2 c 128,-1,48
 324 -15 324 -15 251 -15 c 0,0,1
EndSplineSet
Substitution2: "'ss02' Style Set 2 lookup 15 subtable" threesuperior
Substitution2: "'sinf' Scientific Inferiors lookup 11 subtable" three.sinf
Substitution2: "'subs' Subscript lookup 10 subtable" three.sinf
Substitution2: "'sups' Superscript lookup 9 subtable" three.sups
Substitution2: "'dnom' Denominators lookup 8 subtable" threeinferior
Substitution2: "'numr' Numerators lookup 6 subtable" threesuperior
EndChar

StartChar: four
Encoding: 52 52 23
Width: 588
VWidth: 1177
Flags: W
LayerCount: 2
Fore
SplineSet
336 548 m 1,0,1
 315 521 315 521 292.5 490 c 128,-1,2
 270 459 270 459 248 425.5 c 128,-1,3
 226 392 226 392 206 358 c 128,-1,4
 186 324 186 324 171 291 c 1,5,-1
 336 291 l 1,6,-1
 336 548 l 1,0,1
481 729 m 1,7,-1
 481 291 l 1,8,-1
 559 291 l 1,9,-1
 559 172 l 1,10,-1
 481 172 l 1,11,-1
 481 0 l 1,12,-1
 336 0 l 1,13,-1
 336 172 l 1,14,-1
 32 172 l 1,15,-1
 32 278 l 1,16,17
 54 324 54 324 89.5 382.5 c 128,-1,18
 125 441 125 441 167.5 502 c 128,-1,19
 210 563 210 563 257 622.5 c 128,-1,20
 304 682 304 682 351 729 c 1,21,-1
 481 729 l 1,7,-1
EndSplineSet
Substitution2: "'ss02' Style Set 2 lookup 15 subtable" foursuperior
Substitution2: "'sinf' Scientific Inferiors lookup 11 subtable" four.sinf
Substitution2: "'subs' Subscript lookup 10 subtable" four.sinf
Substitution2: "'sups' Superscript lookup 9 subtable" four.sups
Substitution2: "'dnom' Denominators lookup 8 subtable" fourinferior
Substitution2: "'numr' Numerators lookup 6 subtable" foursuperior
EndChar

StartChar: five
Encoding: 53 53 24
Width: 588
VWidth: 1177
Flags: W
LayerCount: 2
Fore
SplineSet
378 214 m 0,0,1
 378 245 378 245 368 270.5 c 128,-1,2
 358 296 358 296 328 314 c 128,-1,3
 298 332 298 332 242.5 342 c 128,-1,4
 187 352 187 352 98 352 c 1,5,6
 110 451 110 451 117 546 c 128,-1,7
 124 641 124 641 127 729 c 1,8,-1
 499 729 l 1,9,-1
 499 609 l 1,10,-1
 249 609 l 1,11,12
 247 571 247 571 243 530 c 128,-1,13
 239 489 239 489 237 463 c 1,14,15
 383 454 383 454 455 392.5 c 128,-1,16
 527 331 527 331 527 220 c 0,17,18
 527 169 527 169 509 126.5 c 128,-1,19
 491 84 491 84 454.5 52 c 128,-1,20
 418 20 418 20 364 2.5 c 128,-1,21
 310 -15 310 -15 238 -15 c 0,22,23
 210 -15 210 -15 180.5 -11.5 c 128,-1,24
 151 -8 151 -8 124 -3 c 128,-1,25
 97 2 97 2 75 9 c 128,-1,26
 53 16 53 16 41 22 c 1,27,-1
 71 143 l 1,28,29
 97 130 97 130 137 119 c 128,-1,30
 177 108 177 108 237 108 c 0,31,32
 279 108 279 108 307 117.5 c 128,-1,33
 335 127 335 127 350.5 142 c 128,-1,34
 366 157 366 157 372 175.5 c 128,-1,35
 378 194 378 194 378 214 c 0,0,1
EndSplineSet
Substitution2: "'ss02' Style Set 2 lookup 15 subtable" fivesuperior
Substitution2: "'sinf' Scientific Inferiors lookup 11 subtable" five.sinf
Substitution2: "'subs' Subscript lookup 10 subtable" five.sinf
Substitution2: "'sups' Superscript lookup 9 subtable" five.sups
Substitution2: "'dnom' Denominators lookup 8 subtable" fiveinferior
Substitution2: "'numr' Numerators lookup 6 subtable" fivesuperior
EndChar

StartChar: six
Encoding: 54 54 25
Width: 588
VWidth: 1177
Flags: W
LayerCount: 2
Fore
SplineSet
284 346 m 0,0,1
 262 346 262 346 238 341.5 c 128,-1,2
 214 337 214 337 199 329 c 1,3,4
 198 318 198 318 197.5 307.5 c 128,-1,5
 197 297 197 297 197 285 c 0,6,7
 197 251 197 251 201.5 219.5 c 128,-1,8
 206 188 206 188 218 163.5 c 128,-1,9
 230 139 230 139 250.5 124.5 c 128,-1,10
 271 110 271 110 302 110 c 0,11,12
 327 110 327 110 344.5 121.5 c 128,-1,13
 362 133 362 133 373 150.5 c 128,-1,14
 384 168 384 168 389.5 189.5 c 128,-1,15
 395 211 395 211 395 231 c 0,16,17
 395 286 395 286 370 316 c 128,-1,18
 345 346 345 346 284 346 c 0,0,1
303 466 m 0,19,20
 367 466 367 466 411 447.5 c 128,-1,21
 455 429 455 429 483 397 c 128,-1,22
 511 365 511 365 523.5 322.5 c 128,-1,23
 536 280 536 280 536 233 c 0,24,25
 536 191 536 191 522.5 147.5 c 128,-1,26
 509 104 509 104 480.5 67.5 c 128,-1,27
 452 31 452 31 408.5 8 c 128,-1,28
 365 -15 365 -15 305 -15 c 0,29,30
 183 -15 183 -15 118.5 61 c 128,-1,31
 54 137 54 137 54 298 c 0,32,33
 54 404 54 404 85.5 485.5 c 128,-1,34
 117 567 117 567 174.5 622 c 128,-1,35
 232 677 232 677 313.5 705.5 c 128,-1,36
 395 734 395 734 494 734 c 1,37,-1
 502 610 l 1,38,39
 455 609 455 609 410 600.5 c 128,-1,40
 365 592 365 592 327.5 573 c 128,-1,41
 290 554 290 554 262 523 c 128,-1,42
 234 492 234 492 221 446 c 1,43,44
 243 455 243 455 265 460.5 c 128,-1,45
 287 466 287 466 303 466 c 0,19,20
EndSplineSet
Substitution2: "'ss02' Style Set 2 lookup 15 subtable" sixsuperior
Substitution2: "'sinf' Scientific Inferiors lookup 11 subtable" six.sinf
Substitution2: "'subs' Subscript lookup 10 subtable" six.sinf
Substitution2: "'sups' Superscript lookup 9 subtable" six.sups
Substitution2: "'dnom' Denominators lookup 8 subtable" sixinferior
Substitution2: "'numr' Numerators lookup 6 subtable" sixsuperior
EndChar

StartChar: seven
Encoding: 55 55 26
Width: 588
VWidth: 1177
Flags: W
LayerCount: 2
Fore
SplineSet
155 0 m 1,0,1
 159 75 159 75 180 159.5 c 128,-1,2
 201 244 201 244 231 326.5 c 128,-1,3
 261 409 261 409 296.5 482.5 c 128,-1,4
 332 556 332 556 364 609 c 1,5,-1
 58 609 l 1,6,-1
 58 729 l 1,7,-1
 534 729 l 1,8,-1
 534 620 l 1,9,10
 502 583 502 583 464 517 c 128,-1,11
 426 451 426 451 392.5 367.5 c 128,-1,12
 359 284 359 284 334 189 c 128,-1,13
 309 94 309 94 303 0 c 1,14,-1
 155 0 l 1,0,1
EndSplineSet
Substitution2: "'ss02' Style Set 2 lookup 15 subtable" sevensuperior
Substitution2: "'sinf' Scientific Inferiors lookup 11 subtable" seven.sinf
Substitution2: "'subs' Subscript lookup 10 subtable" seven.sinf
Substitution2: "'sups' Superscript lookup 9 subtable" seven.sups
Substitution2: "'dnom' Denominators lookup 8 subtable" seveninferior
Substitution2: "'numr' Numerators lookup 6 subtable" sevensuperior
EndChar

StartChar: eight
Encoding: 56 56 27
Width: 588
VWidth: 1177
Flags: W
LayerCount: 2
Fore
SplineSet
525 556 m 0,0,1
 525 505 525 505 500.5 456.5 c 128,-1,2
 476 408 476 408 423 375 c 1,3,4
 490 336 490 336 517.5 290 c 128,-1,5
 545 244 545 244 545 188 c 0,6,7
 545 153 545 153 531.5 116.5 c 128,-1,8
 518 80 518 80 488 51 c 128,-1,9
 458 22 458 22 410 3.5 c 128,-1,10
 362 -15 362 -15 291 -15 c 0,11,12
 236 -15 236 -15 190.5 -1.5 c 128,-1,13
 145 12 145 12 112.5 37 c 128,-1,14
 80 62 80 62 62.5 99.5 c 128,-1,15
 45 137 45 137 45 183 c 0,16,17
 45 238 45 238 71 287 c 128,-1,18
 97 336 97 336 152 373 c 1,19,20
 100 408 100 408 81 448.5 c 128,-1,21
 62 489 62 489 62 534 c 0,22,23
 62 569 62 569 74.5 607 c 128,-1,24
 87 645 87 645 114 676 c 128,-1,25
 141 707 141 707 186 727 c 128,-1,26
 231 747 231 747 297 747 c 0,27,28
 402 747 402 747 463.5 695 c 128,-1,29
 525 643 525 643 525 556 c 0,0,1
409 191 m 0,30,31
 409 215 409 215 400 232.5 c 128,-1,32
 391 250 391 250 371.5 264.5 c 128,-1,33
 352 279 352 279 321.5 294 c 128,-1,34
 291 309 291 309 249 325 c 1,35,36
 216 298 216 298 198 264.5 c 128,-1,37
 180 231 180 231 180 200 c 0,38,39
 180 153 180 153 213.5 129 c 128,-1,40
 247 105 247 105 293 105 c 0,41,42
 346 105 346 105 377.5 130.5 c 128,-1,43
 409 156 409 156 409 191 c 0,30,31
294 627 m 0,44,45
 256 627 256 627 227.5 605.5 c 128,-1,46
 199 584 199 584 199 543 c 256,47,48
 199 502 199 502 226 476 c 128,-1,49
 253 450 253 450 322 422 c 1,50,51
 359 449 359 449 374 481.5 c 128,-1,52
 389 514 389 514 389 544 c 0,53,54
 389 585 389 585 361 606 c 128,-1,55
 333 627 333 627 294 627 c 0,44,45
EndSplineSet
Substitution2: "'ss02' Style Set 2 lookup 15 subtable" eightsuperior
Substitution2: "'sinf' Scientific Inferiors lookup 11 subtable" eight.sinf
Substitution2: "'subs' Subscript lookup 10 subtable" eight.sinf
Substitution2: "'sups' Superscript lookup 9 subtable" eight.sups
Substitution2: "'dnom' Denominators lookup 8 subtable" eightinferior
Substitution2: "'numr' Numerators lookup 6 subtable" eightsuperior
EndChar

StartChar: nine
Encoding: 57 57 28
Width: 588
VWidth: 1177
Flags: W
LayerCount: 2
Fore
SplineSet
307 388 m 0,0,1
 329 388 329 388 354 392.5 c 128,-1,2
 379 397 379 397 395 405 c 1,3,4
 396 414 396 414 396.5 428 c 128,-1,5
 397 442 397 442 397 455 c 0,6,7
 397 484 397 484 391.5 514 c 128,-1,8
 386 544 386 544 374 569 c 128,-1,9
 362 594 362 594 341 609 c 128,-1,10
 320 624 320 624 290 624 c 0,11,12
 264 624 264 624 245.5 614 c 128,-1,13
 227 604 227 604 216 587.5 c 128,-1,14
 205 571 205 571 199.5 549 c 128,-1,15
 194 527 194 527 194 502 c 0,16,17
 194 447 194 447 220 417.5 c 128,-1,18
 246 388 246 388 307 388 c 0,0,1
289 267 m 0,19,20
 225 267 225 267 180 285.5 c 128,-1,21
 135 304 135 304 107 335.5 c 128,-1,22
 79 367 79 367 66 409 c 128,-1,23
 53 451 53 451 53 499 c 0,24,25
 53 541 53 541 67.5 585.5 c 128,-1,26
 82 630 82 630 111 666 c 128,-1,27
 140 702 140 702 183.5 725 c 128,-1,28
 227 748 227 748 286 748 c 0,29,30
 408 748 408 748 473 665.5 c 128,-1,31
 538 583 538 583 538 436 c 0,32,33
 538 330 538 330 507.5 248 c 128,-1,34
 477 166 477 166 420 110.5 c 128,-1,35
 363 55 363 55 282 26.5 c 128,-1,36
 201 -2 201 -2 102 -2 c 1,37,-1
 98 122 l 1,38,39
 192 123 192 123 266 163 c 128,-1,40
 340 203 340 203 371 287 c 1,41,42
 326 267 326 267 289 267 c 0,19,20
EndSplineSet
Substitution2: "'ss02' Style Set 2 lookup 15 subtable" ninesuperior
Substitution2: "'sinf' Scientific Inferiors lookup 11 subtable" nine.sinf
Substitution2: "'subs' Subscript lookup 10 subtable" nine.sinf
Substitution2: "'sups' Superscript lookup 9 subtable" nine.sups
Substitution2: "'dnom' Denominators lookup 8 subtable" nineinferior
Substitution2: "'numr' Numerators lookup 6 subtable" ninesuperior
EndChar

StartChar: less
Encoding: 60 60 31
Width: 588
VWidth: 1177
Flags: W
LayerCount: 2
Fore
SplineSet
53 369 m 1,0,-1
 505 558 l 1,1,-1
 545 431 l 1,2,-1
 216 303 l 1,3,-1
 545 174 l 1,4,-1
 505 47 l 1,5,-1
 53 238 l 1,6,-1
 53 369 l 1,0,-1
EndSplineSet
EndChar

StartChar: equal
Encoding: 61 61 32
Width: 588
VWidth: 1177
Flags: W
LayerCount: 2
Fore
SplineSet
47 484 m 1,0,-1
 542 484 l 1,1,-1
 542 364 l 1,2,-1
 47 364 l 1,3,-1
 47 484 l 1,0,-1
47 254 m 1,4,-1
 542 254 l 1,5,-1
 542 134 l 1,6,-1
 47 134 l 1,7,-1
 47 254 l 1,4,-1
EndSplineSet
EndChar

StartChar: greater
Encoding: 62 62 33
Width: 588
VWidth: 1177
Flags: W
LayerCount: 2
Fore
SplineSet
541 237 m 1,0,-1
 88 46 l 1,1,-1
 47 173 l 1,2,-1
 378 302 l 1,3,-1
 47 430 l 1,4,-1
 88 557 l 1,5,-1
 541 367 l 1,6,-1
 541 237 l 1,0,-1
EndSplineSet
EndChar

StartChar: question
Encoding: 63 63 34
Width: 588
VWidth: 1177
Flags: W
LayerCount: 2
Fore
SplineSet
196 265 m 1,0,1
 195 271 195 271 194 283 c 0,2,3
 194 330 194 330 219 373 c 128,-1,4
 244 416 244 416 284 449 c 0,5,6
 311 471 311 471 334.5 496.5 c 128,-1,7
 358 522 358 522 358 551 c 0,8,9
 358 586 358 586 333.5 604.5 c 128,-1,10
 309 623 309 623 271 623 c 256,11,12
 233 623 233 623 198 612 c 128,-1,13
 163 601 163 601 121 581 c 1,14,-1
 81 691 l 1,15,16
 122 717 122 717 177.5 731.5 c 128,-1,17
 233 746 233 746 287 746 c 0,18,19
 354 746 354 746 398 727.5 c 128,-1,20
 442 709 442 709 466.5 682 c 128,-1,21
 491 655 491 655 501 622.5 c 128,-1,22
 511 590 511 590 511 561 c 0,23,24
 511 527 511 527 497.5 498.5 c 128,-1,25
 484 470 484 470 463.5 445 c 128,-1,26
 443 420 443 420 419.5 398.5 c 128,-1,27
 396 377 396 377 375.5 356 c 128,-1,28
 355 335 355 335 341 312.5 c 128,-1,29
 327 290 327 290 327 265 c 1,30,-1
 196 265 l 1,0,1
369 84 m 0,31,32
 369 38 369 38 339 12 c 128,-1,33
 309 -14 309 -14 271 -14 c 0,34,35
 252 -14 252 -14 234.5 -7.5 c 128,-1,36
 217 -1 217 -1 202.5 12 c 128,-1,37
 188 25 188 25 180 42.5 c 128,-1,38
 172 60 172 60 172 84 c 0,39,40
 172 106 172 106 180 124.5 c 128,-1,41
 188 143 188 143 202.5 155 c 128,-1,42
 217 167 217 167 234.5 173.5 c 128,-1,43
 252 180 252 180 271 180 c 256,44,45
 290 180 290 180 307.5 173.5 c 128,-1,46
 325 167 325 167 338.5 155 c 128,-1,47
 352 143 352 143 360.5 124.5 c 128,-1,48
 369 106 369 106 369 84 c 0,31,32
EndSplineSet
EndChar

StartChar: at
Encoding: 64 64 35
Width: 588
VWidth: 1177
Flags: W
LayerCount: 2
Fore
SplineSet
551 65 m 1,0,1
 519 52 519 52 477.5 45.5 c 128,-1,2
 436 39 436 39 405 39 c 0,3,4
 360 39 360 39 322 52.5 c 128,-1,5
 284 66 284 66 255.5 95 c 128,-1,6
 227 124 227 124 211.5 170.5 c 128,-1,7
 196 217 196 217 196 284 c 0,8,9
 196 333 196 333 204.5 376.5 c 128,-1,10
 213 420 213 420 234.5 452.5 c 128,-1,11
 256 485 256 485 289.5 504 c 128,-1,12
 323 523 323 523 372 523 c 0,13,14
 394 523 394 523 428 517 c 1,15,-1
 428 536 l 2,16,17
 428 581 428 581 399.5 612 c 128,-1,18
 371 643 371 643 317 643 c 0,19,20
 278 643 278 643 243 626.5 c 128,-1,21
 208 610 208 610 183 569 c 128,-1,22
 158 528 158 528 143 459 c 128,-1,23
 128 390 128 390 128 285 c 0,24,25
 128 203 128 203 140.5 139 c 128,-1,26
 153 75 153 75 183 32 c 128,-1,27
 213 -11 213 -11 263 -33 c 128,-1,28
 313 -55 313 -55 388 -55 c 0,29,30
 443 -55 443 -55 474.5 -49.5 c 128,-1,31
 506 -44 506 -44 516 -40 c 1,32,-1
 529 -143 l 1,33,34
 509 -148 509 -148 492.5 -150.5 c 128,-1,35
 476 -153 476 -153 459.5 -155 c 128,-1,36
 443 -157 443 -157 426 -158 c 128,-1,37
 409 -159 409 -159 388 -159 c 0,38,39
 310 -159 310 -159 243 -138 c 128,-1,40
 176 -117 176 -117 127 -64.5 c 128,-1,41
 78 -12 78 -12 49.5 74.5 c 128,-1,42
 21 161 21 161 21 292 c 0,43,44
 21 419 21 419 45 505.5 c 128,-1,45
 69 592 69 592 110.5 646 c 128,-1,46
 152 700 152 700 205 723 c 128,-1,47
 258 746 258 746 317 746 c 0,48,49
 365 746 365 746 407.5 731 c 128,-1,50
 450 716 450 716 482 684.5 c 128,-1,51
 514 653 514 653 532.5 601.5 c 128,-1,52
 551 550 551 550 551 477 c 2,53,-1
 551 65 l 1,0,1
319 291 m 0,54,55
 319 269 319 269 322 245 c 128,-1,56
 325 221 325 221 333.5 202.5 c 128,-1,57
 342 184 342 184 356.5 171.5 c 128,-1,58
 371 159 371 159 395 159 c 0,59,60
 410 159 410 159 428 163 c 1,61,-1
 428 398 l 1,62,63
 419 400 419 400 410.5 401.5 c 128,-1,64
 402 403 402 403 393 403 c 0,65,66
 371 403 371 403 357 393 c 128,-1,67
 343 383 343 383 334.5 367 c 128,-1,68
 326 351 326 351 322.5 331 c 128,-1,69
 319 311 319 311 319 291 c 0,54,55
EndSplineSet
Substitution2: "'case' Case-Sensitive Forms lookup 17 subtable" At
EndChar

StartChar: A
Encoding: 65 65 36
Width: 588
VWidth: 1177
Flags: W
LayerCount: 2
Fore
SplineSet
423 0 m 1,0,-1
 389 168 l 1,1,-1
 194 168 l 1,2,-1
 161 0 l 1,3,-1
 11 0 l 1,4,5
 63 216 63 216 115.5 393 c 128,-1,6
 168 570 168 570 218 729 c 1,7,-1
 376 729 l 1,8,9
 428 569 428 569 479 389.5 c 128,-1,10
 530 210 530 210 578 0 c 1,11,-1
 423 0 l 1,0,-1
293 588 m 1,12,13
 281 547 281 547 271 509.5 c 128,-1,14
 261 472 261 472 252.5 436 c 128,-1,15
 244 400 244 400 236.5 363.5 c 128,-1,16
 229 327 229 327 221 289 c 1,17,-1
 364 289 l 1,18,19
 357 328 357 328 350 364 c 128,-1,20
 343 400 343 400 334 436 c 128,-1,21
 325 472 325 472 315 509.5 c 128,-1,22
 305 547 305 547 293 588 c 1,12,13
EndSplineSet
EndChar

StartChar: B
Encoding: 66 66 37
Width: 588
VWidth: 1177
Flags: W
LayerCount: 2
Fore
SplineSet
552 220 m 0,0,1
 552 154 552 154 530 110 c 128,-1,2
 508 66 508 66 469.5 39.5 c 128,-1,3
 431 13 431 13 378.5 2 c 128,-1,4
 326 -9 326 -9 266 -9 c 0,5,6
 218 -9 218 -9 166 -4 c 128,-1,7
 114 1 114 1 64 12 c 1,8,-1
 64 720 l 1,9,10
 105 727 105 727 154.5 732 c 128,-1,11
 204 737 204 737 252 737 c 0,12,13
 334 737 334 737 386 720 c 128,-1,14
 438 703 438 703 467.5 675.5 c 128,-1,15
 497 648 497 648 507.5 614 c 128,-1,16
 518 580 518 580 518 545 c 0,17,18
 518 493 518 493 493 453 c 128,-1,19
 468 413 468 413 425 390 c 1,20,21
 499 363 499 363 525.5 317 c 128,-1,22
 552 271 552 271 552 220 c 0,0,1
208 319 m 1,23,-1
 208 121 l 1,24,25
 223 119 223 119 241.5 118 c 128,-1,26
 260 117 260 117 278 117 c 0,27,28
 303 117 303 117 326.5 121 c 128,-1,29
 350 125 350 125 368 136 c 128,-1,30
 386 147 386 147 398 167.5 c 128,-1,31
 410 188 410 188 410 220 c 0,32,33
 410 273 410 273 376.5 296 c 128,-1,34
 343 319 343 319 286 319 c 2,35,-1
 208 319 l 1,23,-1
265 439 m 2,36,37
 320 439 320 439 348.5 463.5 c 128,-1,38
 377 488 377 488 377 530 c 0,39,40
 377 556 377 556 368.5 572 c 128,-1,41
 360 588 360 588 346 596.5 c 128,-1,42
 332 605 332 605 313 608 c 128,-1,43
 294 611 294 611 274 611 c 0,44,45
 258 611 258 611 240.5 610 c 128,-1,46
 223 609 223 609 208 607 c 1,47,-1
 208 439 l 1,48,-1
 265 439 l 2,36,37
EndSplineSet
EndChar

StartChar: C
Encoding: 67 67 38
Width: 588
VWidth: 1177
Flags: W
LayerCount: 2
Fore
SplineSet
349 -15 m 0,0,1
 195 -15 195 -15 113.5 84 c 128,-1,2
 32 183 32 183 32 365 c 0,3,4
 32 456 32 456 56.5 526.5 c 128,-1,5
 81 597 81 597 125.5 646 c 128,-1,6
 170 695 170 695 230.5 720.5 c 128,-1,7
 291 746 291 746 363 746 c 0,8,9
 402 746 402 746 433 739.5 c 128,-1,10
 464 733 464 733 487.5 724.5 c 128,-1,11
 511 716 511 716 527 706.5 c 128,-1,12
 543 697 543 697 551 693 c 1,13,-1
 514 577 l 1,14,15
 487 595 487 595 448.5 607.5 c 128,-1,16
 410 620 410 620 360 620 c 0,17,18
 326 620 326 620 293.5 607.5 c 128,-1,19
 261 595 261 595 236 566 c 128,-1,20
 211 537 211 537 195 489 c 128,-1,21
 179 441 179 441 179 369 c 0,22,23
 179 244 179 244 222 177.5 c 128,-1,24
 265 111 265 111 363 111 c 0,25,26
 420 111 420 111 457 124 c 128,-1,27
 494 137 494 137 516 150 c 1,28,-1
 552 35 l 1,29,30
 521 16 521 16 469 0.5 c 128,-1,31
 417 -15 417 -15 349 -15 c 0,0,1
EndSplineSet
EndChar

StartChar: D
Encoding: 68 68 39
Width: 588
VWidth: 1177
Flags: W
LayerCount: 2
Fore
SplineSet
208 118 m 1,0,1
 214 117 214 117 221.5 117 c 128,-1,2
 229 117 229 117 234 117 c 0,3,4
 283 117 283 117 317 135.5 c 128,-1,5
 351 154 351 154 371.5 187 c 128,-1,6
 392 220 392 220 401 265.5 c 128,-1,7
 410 311 410 311 410 365 c 0,8,9
 410 412 410 412 403 457 c 128,-1,10
 396 502 396 502 378 536 c 128,-1,11
 360 570 360 570 329.5 590.5 c 128,-1,12
 299 611 299 611 251 611 c 0,13,14
 242 611 242 611 230 610.5 c 128,-1,15
 218 610 218 610 208 608 c 1,16,-1
 208 118 l 1,0,1
557 365 m 0,17,18
 557 264 557 264 531.5 192.5 c 128,-1,19
 506 121 506 121 461.5 76.5 c 128,-1,20
 417 32 417 32 355 11.5 c 128,-1,21
 293 -9 293 -9 219 -9 c 0,22,23
 180 -9 180 -9 143 -5 c 128,-1,24
 106 -1 106 -1 64 8 c 1,25,-1
 64 720 l 1,26,27
 113 731 113 731 156.5 734 c 128,-1,28
 200 737 200 737 238 737 c 0,29,30
 310 737 310 737 369.5 716 c 128,-1,31
 429 695 429 695 470 649.5 c 128,-1,32
 511 604 511 604 534 534 c 128,-1,33
 557 464 557 464 557 365 c 0,17,18
EndSplineSet
EndChar

StartChar: E
Encoding: 69 69 40
Width: 588
VWidth: 1177
Flags: W
LayerCount: 2
Fore
SplineSet
74 0 m 1,0,-1
 74 729 l 1,1,-1
 516 729 l 1,2,-1
 516 609 l 1,3,-1
 219 609 l 1,4,-1
 219 445 l 1,5,-1
 477 445 l 1,6,-1
 477 325 l 1,7,-1
 219 325 l 1,8,-1
 219 120 l 1,9,-1
 542 120 l 1,10,-1
 542 0 l 1,11,-1
 74 0 l 1,0,-1
EndSplineSet
EndChar

StartChar: F
Encoding: 70 70 41
Width: 588
VWidth: 1177
Flags: W
LayerCount: 2
Fore
SplineSet
74 0 m 1,0,-1
 74 729 l 1,1,-1
 521 729 l 1,2,-1
 521 609 l 1,3,-1
 219 609 l 1,4,-1
 219 432 l 1,5,-1
 483 432 l 1,6,-1
 483 312 l 1,7,-1
 219 312 l 1,8,-1
 219 0 l 1,9,-1
 74 0 l 1,0,-1
EndSplineSet
EndChar

StartChar: G
Encoding: 71 71 42
Width: 588
VWidth: 1177
Flags: W
LayerCount: 2
Fore
SplineSet
367 620 m 0,0,1
 315 620 315 620 280 601 c 128,-1,2
 245 582 245 582 222 548.5 c 128,-1,3
 199 515 199 515 189 468.5 c 128,-1,4
 179 422 179 422 179 365 c 0,5,6
 179 234 179 234 220 172.5 c 128,-1,7
 261 111 261 111 342 111 c 0,8,9
 355 111 355 111 370 112 c 128,-1,10
 385 113 385 113 398 115 c 1,11,-1
 398 382 l 1,12,-1
 543 382 l 1,13,-1
 543 18 l 1,14,15
 517 9 517 9 462.5 -3 c 128,-1,16
 408 -15 408 -15 330 -15 c 0,17,18
 262 -15 262 -15 207 9 c 128,-1,19
 152 33 152 33 113 80.5 c 128,-1,20
 74 128 74 128 53 199.5 c 128,-1,21
 32 271 32 271 32 365 c 0,22,23
 32 458 32 458 56.5 529.5 c 128,-1,24
 81 601 81 601 123.5 649 c 128,-1,25
 166 697 166 697 224 721.5 c 128,-1,26
 282 746 282 746 347 746 c 0,27,28
 389 746 389 746 423 739.5 c 128,-1,29
 457 733 457 733 481.5 724.5 c 128,-1,30
 506 716 506 716 522 706.5 c 128,-1,31
 538 697 538 697 547 693 c 1,32,-1
 509 577 l 1,33,34
 483 593 483 593 445 606.5 c 128,-1,35
 407 620 407 620 367 620 c 0,0,1
EndSplineSet
EndChar

StartChar: H
Encoding: 72 72 43
Width: 588
VWidth: 1177
Flags: W
LayerCount: 2
Fore
SplineSet
536 729 m 1,0,-1
 536 0 l 1,1,-1
 391 0 l 1,2,-1
 391 322 l 1,3,-1
 198 322 l 1,4,-1
 198 0 l 1,5,-1
 53 0 l 1,6,-1
 53 729 l 1,7,-1
 198 729 l 1,8,-1
 198 442 l 1,9,-1
 391 442 l 1,10,-1
 391 729 l 1,11,-1
 536 729 l 1,0,-1
EndSplineSet
EndChar

StartChar: I
Encoding: 73 73 44
Width: 588
VWidth: 1177
Flags: W
LayerCount: 2
Fore
SplineSet
64 0 m 1,0,-1
 64 120 l 1,1,-1
 223 120 l 1,2,-1
 223 609 l 1,3,-1
 64 609 l 1,4,-1
 64 729 l 1,5,-1
 527 729 l 1,6,-1
 527 609 l 1,7,-1
 369 609 l 1,8,-1
 369 120 l 1,9,-1
 527 120 l 1,10,-1
 527 0 l 1,11,-1
 64 0 l 1,0,-1
EndSplineSet
EndChar

StartChar: J
Encoding: 74 74 45
Width: 588
VWidth: 1177
Flags: W
LayerCount: 2
Fore
SplineSet
516 244 m 2,0,1
 516 191 516 191 502.5 144 c 128,-1,2
 489 97 489 97 457.5 61.5 c 128,-1,3
 426 26 426 26 376.5 5.5 c 128,-1,4
 327 -15 327 -15 257 -15 c 0,5,6
 183 -15 183 -15 133.5 3.5 c 128,-1,7
 84 22 84 22 49 49 c 1,8,-1
 105 165 l 1,9,10
 134 146 134 146 170 128.5 c 128,-1,11
 206 111 206 111 244 111 c 0,12,13
 301 111 301 111 335.5 141 c 128,-1,14
 370 171 370 171 370 252 c 2,15,-1
 370 609 l 1,16,-1
 126 609 l 1,17,-1
 126 729 l 1,18,-1
 516 729 l 1,19,-1
 516 244 l 2,0,1
EndSplineSet
EndChar

StartChar: K
Encoding: 75 75 46
Width: 588
VWidth: 1177
Flags: W
LayerCount: 2
Fore
SplineSet
412 0 m 1,0,1
 399 41 399 41 375 89 c 128,-1,2
 351 137 351 137 321.5 182 c 128,-1,3
 292 227 292 227 259.5 266.5 c 128,-1,4
 227 306 227 306 198 333 c 1,5,-1
 198 0 l 1,6,-1
 53 0 l 1,7,-1
 53 729 l 1,8,-1
 198 729 l 1,9,-1
 198 426 l 1,10,11
 224 459 224 459 252 499 c 128,-1,12
 280 539 280 539 305.5 579.5 c 128,-1,13
 331 620 331 620 352 658.5 c 128,-1,14
 373 697 373 697 388 729 c 1,15,-1
 551 729 l 1,16,17
 535 697 535 697 512 656.5 c 128,-1,18
 489 616 489 616 459.5 572 c 128,-1,19
 430 528 430 528 396.5 482 c 128,-1,20
 363 436 363 436 326 393 c 1,21,22
 363 358 363 358 400.5 312 c 128,-1,23
 438 266 438 266 471.5 213.5 c 128,-1,24
 505 161 505 161 532 106.5 c 128,-1,25
 559 52 559 52 576 0 c 1,26,-1
 412 0 l 1,0,1
EndSplineSet
EndChar

StartChar: L
Encoding: 76 76 47
Width: 588
VWidth: 1177
Flags: W
LayerCount: 2
Fore
SplineSet
542 0 m 1,0,-1
 84 0 l 1,1,-1
 84 729 l 1,2,-1
 230 729 l 1,3,-1
 230 120 l 1,4,-1
 542 120 l 1,5,-1
 542 0 l 1,0,-1
EndSplineSet
EndChar

StartChar: M
Encoding: 77 77 48
Width: 588
VWidth: 1177
Flags: W
LayerCount: 2
Fore
SplineSet
190 729 m 1,0,1
 198 704 198 704 210.5 665.5 c 128,-1,2
 223 627 223 627 237 582 c 128,-1,3
 251 537 251 537 265 491 c 128,-1,4
 279 445 279 445 292 406 c 1,5,6
 306 450 306 450 321.5 496.5 c 128,-1,7
 337 543 337 543 351 586 c 128,-1,8
 365 629 365 629 377 666.5 c 128,-1,9
 389 704 389 704 398 729 c 1,10,-1
 518 729 l 1,11,12
 526 634 526 634 534 543 c 128,-1,13
 542 452 542 452 547 363 c 128,-1,14
 552 274 552 274 555.5 184 c 128,-1,15
 559 94 559 94 562 0 c 1,16,-1
 429 0 l 1,17,-1
 436 567 l 1,18,-1
 346 258 l 1,19,-1
 240 258 l 1,20,-1
 154 567 l 1,21,-1
 160 0 l 1,22,-1
 27 0 l 1,23,24
 31 90 31 90 35 186.5 c 128,-1,25
 39 283 39 283 43.5 378 c 128,-1,26
 48 473 48 473 54.5 563 c 128,-1,27
 61 653 61 653 69 729 c 1,28,-1
 190 729 l 1,0,1
EndSplineSet
EndChar

StartChar: N
Encoding: 78 78 49
Width: 588
VWidth: 1177
Flags: W
LayerCount: 2
Fore
SplineSet
418 0 m 1,0,1
 369 121 369 121 310.5 242 c 128,-1,2
 252 363 252 363 185 484 c 1,3,-1
 185 0 l 1,4,-1
 54 0 l 1,5,-1
 54 729 l 1,6,-1
 171 729 l 1,7,8
 204 677 204 677 237 616.5 c 128,-1,9
 270 556 270 556 301 496 c 128,-1,10
 332 436 332 436 358.5 379.5 c 128,-1,11
 385 323 385 323 404 280 c 1,12,-1
 404 729 l 1,13,-1
 535 729 l 1,14,-1
 535 0 l 1,15,-1
 418 0 l 1,0,1
EndSplineSet
EndChar

StartChar: O
Encoding: 79 79 50
Width: 588
VWidth: 1177
Flags: W
LayerCount: 2
Fore
SplineSet
179 365 m 256,0,1
 179 312 179 312 183 265.5 c 128,-1,2
 187 219 187 219 199.5 185 c 128,-1,3
 212 151 212 151 234.5 131 c 128,-1,4
 257 111 257 111 294 111 c 256,5,6
 331 111 331 111 354 131 c 128,-1,7
 377 151 377 151 389.5 185.5 c 128,-1,8
 402 220 402 220 406 266 c 128,-1,9
 410 312 410 312 410 365 c 256,10,11
 410 418 410 418 406 464.5 c 128,-1,12
 402 511 402 511 389.5 545.5 c 128,-1,13
 377 580 377 580 354.5 600 c 128,-1,14
 332 620 332 620 294 620 c 256,15,16
 256 620 256 620 234 600 c 128,-1,17
 212 580 212 580 199.5 545 c 128,-1,18
 187 510 187 510 183 464 c 128,-1,19
 179 418 179 418 179 365 c 256,0,1
32 365 m 256,20,21
 32 553 32 553 101.5 649.5 c 128,-1,22
 171 746 171 746 294 746 c 0,23,24
 422 746 422 746 489.5 650 c 128,-1,25
 557 554 557 554 557 365 c 256,26,27
 557 177 557 177 488.5 81 c 128,-1,28
 420 -15 420 -15 296 -15 c 0,29,30
 168 -15 168 -15 100 81 c 128,-1,31
 32 177 32 177 32 365 c 256,20,21
EndSplineSet
EndChar

StartChar: P
Encoding: 80 80 51
Width: 588
VWidth: 1177
Flags: W
LayerCount: 2
Fore
SplineSet
264 737 m 0,0,1
 403 737 403 737 479.5 680 c 128,-1,2
 556 623 556 623 556 494 c 0,3,4
 556 363 556 363 479 304.5 c 128,-1,5
 402 246 402 246 260 246 c 2,6,-1
 208 246 l 1,7,-1
 208 0 l 1,8,-1
 64 0 l 1,9,-1
 64 720 l 1,10,11
 85 725 85 725 111.5 728 c 128,-1,12
 138 731 138 731 165 733 c 128,-1,13
 192 735 192 735 218 736 c 128,-1,14
 244 737 244 737 264 737 c 0,0,1
280 611 m 0,15,16
 267 611 267 611 244 610.5 c 128,-1,17
 221 610 221 610 208 608 c 1,18,-1
 208 372 l 1,19,-1
 267 372 l 2,20,21
 336 372 336 372 372 400 c 128,-1,22
 408 428 408 428 408 495 c 0,23,24
 408 559 408 559 373 585 c 128,-1,25
 338 611 338 611 280 611 c 0,15,16
EndSplineSet
EndChar

StartChar: Q
Encoding: 81 81 52
Width: 588
VWidth: 1177
Flags: W
LayerCount: 2
Fore
SplineSet
32 362 m 0,0,1
 32 550 32 550 101.5 646 c 128,-1,2
 171 742 171 742 294 742 c 0,3,4
 422 742 422 742 489.5 646 c 128,-1,5
 557 550 557 550 557 362 c 0,6,7
 557 197 557 197 504 102 c 128,-1,8
 451 7 451 7 351 -13 c 1,9,10
 364 -42 364 -42 414 -61.5 c 128,-1,11
 464 -81 464 -81 551 -97 c 1,12,-1
 521 -200 l 1,13,14
 383 -181 383 -181 313 -137 c 128,-1,15
 243 -93 243 -93 230 -11 c 1,16,17
 135 13 135 13 83.5 107 c 128,-1,18
 32 201 32 201 32 362 c 0,0,1
179 362 m 256,19,20
 179 309 179 309 183 263 c 128,-1,21
 187 217 187 217 199.5 182 c 128,-1,22
 212 147 212 147 234.5 127 c 128,-1,23
 257 107 257 107 294 107 c 256,24,25
 331 107 331 107 354 127 c 128,-1,26
 377 147 377 147 389.5 182 c 128,-1,27
 402 217 402 217 406 263 c 128,-1,28
 410 309 410 309 410 362 c 256,29,30
 410 415 410 415 406 461.5 c 128,-1,31
 402 508 402 508 389.5 542 c 128,-1,32
 377 576 377 576 354.5 596 c 128,-1,33
 332 616 332 616 294 616 c 256,34,35
 256 616 256 616 234 596 c 128,-1,36
 212 576 212 576 199.5 541 c 128,-1,37
 187 506 187 506 183 460.5 c 128,-1,38
 179 415 179 415 179 362 c 256,19,20
EndSplineSet
EndChar

StartChar: R
Encoding: 82 82 53
Width: 588
VWidth: 1177
Flags: W
LayerCount: 2
Fore
SplineSet
252 737 m 0,0,1
 314 737 314 737 365 723 c 128,-1,2
 416 709 416 709 452.5 679.5 c 128,-1,3
 489 650 489 650 508.5 604.5 c 128,-1,4
 528 559 528 559 528 498 c 0,5,6
 528 434 528 434 502 382.5 c 128,-1,7
 476 331 476 331 416 304 c 1,8,9
 436 273 436 273 458.5 236 c 128,-1,10
 481 199 481 199 502 158.5 c 128,-1,11
 523 118 523 118 542.5 77.5 c 128,-1,12
 562 37 562 37 576 0 c 1,13,-1
 424 0 l 1,14,15
 397 71 397 71 361 136 c 128,-1,16
 325 201 325 201 284 269 c 1,17,-1
 208 269 l 1,18,-1
 208 0 l 1,19,-1
 64 0 l 1,20,-1
 64 718 l 1,21,22
 85 723 85 723 110 727 c 128,-1,23
 135 731 135 731 161 733 c 128,-1,24
 187 735 187 735 210.5 736 c 128,-1,25
 234 737 234 737 252 737 c 0,0,1
380 499 m 0,26,27
 380 557 380 557 345 584 c 128,-1,28
 310 611 310 611 252 611 c 0,29,30
 244 611 244 611 232 610.5 c 128,-1,31
 220 610 220 610 208 608 c 1,32,-1
 208 389 l 1,33,-1
 240 389 l 2,34,35
 314 389 314 389 347 417.5 c 128,-1,36
 380 446 380 446 380 499 c 0,26,27
EndSplineSet
EndChar

StartChar: S
Encoding: 83 83 54
Width: 588
VWidth: 1177
Flags: W
LayerCount: 2
Fore
SplineSet
273 106 m 0,0,1
 310 106 310 106 334 113.5 c 128,-1,2
 358 121 358 121 372 134.5 c 128,-1,3
 386 148 386 148 391.5 165.5 c 128,-1,4
 397 183 397 183 397 200 c 0,5,6
 397 222 397 222 384 240 c 128,-1,7
 371 258 371 258 351 271.5 c 128,-1,8
 331 285 331 285 306.5 296 c 128,-1,9
 282 307 282 307 257 317 c 0,10,11
 224 329 224 329 188.5 344 c 128,-1,12
 153 359 153 359 124 382.5 c 128,-1,13
 95 406 95 406 76.5 441 c 128,-1,14
 58 476 58 476 58 528 c 0,15,16
 58 630 58 630 124.5 688 c 128,-1,17
 191 746 191 746 307 746 c 0,18,19
 374 746 374 746 424.5 730.5 c 128,-1,20
 475 715 475 715 509 696 c 1,21,-1
 466 584 l 1,22,23
 437 600 437 600 401 612 c 128,-1,24
 365 624 365 624 318 624 c 0,25,26
 203 624 203 624 203 541 c 0,27,28
 203 520 203 520 214.5 504 c 128,-1,29
 226 488 226 488 244.5 475.5 c 128,-1,30
 263 463 263 463 286 453.5 c 128,-1,31
 309 444 309 444 331 436 c 0,32,33
 365 423 365 423 402 407 c 128,-1,34
 439 391 439 391 470.5 364.5 c 128,-1,35
 502 338 502 338 522 298.5 c 128,-1,36
 542 259 542 259 542 199 c 0,37,38
 542 97 542 97 475.5 41 c 128,-1,39
 409 -15 409 -15 273 -15 c 0,40,41
 182 -15 182 -15 128 4.5 c 128,-1,42
 74 24 74 24 47 40 c 1,43,-1
 90 158 l 1,44,45
 122 139 122 139 165.5 122.5 c 128,-1,46
 209 106 209 106 273 106 c 0,0,1
EndSplineSet
EndChar

StartChar: T
Encoding: 84 84 55
Width: 588
VWidth: 1177
Flags: W
LayerCount: 2
Fore
SplineSet
559 729 m 1,0,-1
 559 609 l 1,1,-1
 367 609 l 1,2,-1
 367 0 l 1,3,-1
 221 0 l 1,4,-1
 221 609 l 1,5,-1
 29 609 l 1,6,-1
 29 729 l 1,7,-1
 559 729 l 1,0,-1
EndSplineSet
EndChar

StartChar: U
Encoding: 85 85 56
Width: 588
VWidth: 1177
Flags: W
LayerCount: 2
Fore
SplineSet
292 -15 m 0,0,1
 221 -15 221 -15 173.5 4.5 c 128,-1,2
 126 24 126 24 97.5 60.5 c 128,-1,3
 69 97 69 97 57.5 148.5 c 128,-1,4
 46 200 46 200 46 264 c 2,5,-1
 46 729 l 1,6,-1
 192 729 l 1,7,-1
 192 273 l 2,8,9
 192 227 192 227 196.5 196 c 128,-1,10
 201 165 201 165 212.5 146 c 128,-1,11
 224 127 224 127 244 119 c 128,-1,12
 264 111 264 111 294 111 c 256,13,14
 325 111 325 111 345 119 c 128,-1,15
 365 127 365 127 377 146.5 c 128,-1,16
 389 166 389 166 393.5 197.5 c 128,-1,17
 398 229 398 229 398 274 c 2,18,-1
 398 729 l 1,19,-1
 543 729 l 1,20,-1
 543 264 l 2,21,22
 543 200 543 200 531 148.5 c 128,-1,23
 519 97 519 97 490 60.5 c 128,-1,24
 461 24 461 24 412.5 4.5 c 128,-1,25
 364 -15 364 -15 292 -15 c 0,0,1
EndSplineSet
EndChar

StartChar: V
Encoding: 86 86 57
Width: 588
VWidth: 1177
Flags: W
LayerCount: 2
Fore
SplineSet
219 0 m 1,0,1
 191 81 191 81 159 183.5 c 128,-1,2
 127 286 127 286 99 388 c 128,-1,3
 71 490 71 490 48.5 580.5 c 128,-1,4
 26 671 26 671 15 729 c 1,5,-1
 168 729 l 1,6,7
 175 672 175 672 189.5 597.5 c 128,-1,8
 204 523 204 523 221 443.5 c 128,-1,9
 238 364 238 364 257.5 287 c 128,-1,10
 277 210 277 210 296 148 c 1,11,12
 315 208 315 208 333.5 285.5 c 128,-1,13
 352 363 352 363 368.5 442.5 c 128,-1,14
 385 522 385 522 399 597.5 c 128,-1,15
 413 673 413 673 423 729 c 1,16,-1
 575 729 l 1,17,18
 561 658 561 658 540 571 c 128,-1,19
 519 484 519 484 492.5 388 c 128,-1,20
 466 292 466 292 434.5 192.5 c 128,-1,21
 403 93 403 93 369 0 c 1,22,-1
 219 0 l 1,0,1
EndSplineSet
EndChar

StartChar: W
Encoding: 87 87 58
Width: 588
VWidth: 1177
Flags: W
LayerCount: 2
Fore
SplineSet
349 471 m 1,0,1
 354 449 354 449 363 416 c 128,-1,2
 372 383 372 383 383.5 343 c 128,-1,3
 395 303 395 303 408.5 257 c 128,-1,4
 422 211 422 211 435 163 c 1,5,6
 435 224 435 224 433.5 294 c 128,-1,7
 432 364 432 364 431 437 c 128,-1,8
 430 510 430 510 429 585 c 128,-1,9
 428 660 428 660 428 729 c 1,10,-1
 562 729 l 1,11,12
 558 639 558 639 554.5 544.5 c 128,-1,13
 551 450 551 450 546.5 356.5 c 128,-1,14
 542 263 542 263 535.5 172 c 128,-1,15
 529 81 529 81 521 0 c 1,16,-1
 400 0 l 1,17,18
 374 74 374 74 348.5 159.5 c 128,-1,19
 323 245 323 245 297 323 c 1,20,21
 271 249 271 249 242.5 161.5 c 128,-1,22
 214 74 214 74 191 0 c 1,23,-1
 71 0 l 1,24,25
 62 81 62 81 54.5 172.5 c 128,-1,26
 47 264 47 264 42 357.5 c 128,-1,27
 37 451 37 451 33 546 c 128,-1,28
 29 641 29 641 27 729 c 1,29,-1
 161 729 l 1,30,31
 160 660 160 660 159 585.5 c 128,-1,32
 158 511 158 511 156.5 437.5 c 128,-1,33
 155 364 155 364 154 294 c 128,-1,34
 153 224 153 224 153 163 c 1,35,36
 164 201 164 201 177.5 245.5 c 128,-1,37
 191 290 191 290 203.5 333.5 c 128,-1,38
 216 377 216 377 226.5 413.5 c 128,-1,39
 237 450 237 450 243 471 c 1,40,-1
 349 471 l 1,0,1
EndSplineSet
EndChar

StartChar: X
Encoding: 88 88 59
Width: 588
VWidth: 1177
Flags: W
LayerCount: 2
Fore
SplineSet
419 0 m 1,0,1
 397 60 397 60 364.5 133 c 128,-1,2
 332 206 332 206 297 279 c 1,3,4
 263 210 263 210 228.5 135 c 128,-1,5
 194 60 194 60 170 0 c 1,6,-1
 13 0 l 1,7,8
 25 32 25 32 48 76.5 c 128,-1,9
 71 121 71 121 98.5 173 c 128,-1,10
 126 225 126 225 156.5 280 c 128,-1,11
 187 335 187 335 216 385 c 1,12,-1
 25 729 l 1,13,-1
 181 729 l 1,14,-1
 297 496 l 1,15,-1
 418 729 l 1,16,-1
 564 729 l 1,17,-1
 378 389 l 1,18,19
 410 338 410 338 440.5 282.5 c 128,-1,20
 471 227 471 227 497.5 174.5 c 128,-1,21
 524 122 524 122 544 77 c 128,-1,22
 564 32 564 32 576 0 c 1,23,-1
 419 0 l 1,0,1
EndSplineSet
EndChar

StartChar: Y
Encoding: 89 89 60
Width: 588
VWidth: 1177
Flags: W
LayerCount: 2
Fore
SplineSet
299 396 m 1,0,1
 312 423 312 423 329 464 c 128,-1,2
 346 505 346 505 363 551 c 128,-1,3
 380 597 380 597 396 644 c 128,-1,4
 412 691 412 691 425 729 c 1,5,-1
 575 729 l 1,6,7
 553 669 553 669 530.5 612.5 c 128,-1,8
 508 556 508 556 483 500.5 c 128,-1,9
 458 445 458 445 430 390.5 c 128,-1,10
 402 336 402 336 369 278 c 1,11,-1
 369 0 l 1,12,-1
 223 0 l 1,13,-1
 223 277 l 1,14,15
 158 391 158 391 109 500 c 128,-1,16
 60 609 60 609 15 729 c 1,17,-1
 171 729 l 1,18,19
 198 644 198 644 231 556.5 c 128,-1,20
 264 469 264 469 299 396 c 1,0,1
EndSplineSet
EndChar

StartChar: Z
Encoding: 90 90 61
Width: 588
VWidth: 1177
Flags: W
LayerCount: 2
Fore
SplineSet
524 628 m 1,0,1
 473 550 473 550 431 481.5 c 128,-1,2
 389 413 389 413 352.5 351.5 c 128,-1,3
 316 290 316 290 283.5 233 c 128,-1,4
 251 176 251 176 221 120 c 1,5,-1
 535 120 l 1,6,-1
 535 0 l 1,7,-1
 54 0 l 1,8,-1
 54 84 l 1,9,10
 80 135 80 135 109.5 190.5 c 128,-1,11
 139 246 139 246 175.5 309.5 c 128,-1,12
 212 373 212 373 255 447.5 c 128,-1,13
 298 522 298 522 350 609 c 1,14,-1
 69 609 l 1,15,-1
 69 729 l 1,16,-1
 524 729 l 1,17,-1
 524 628 l 1,0,1
EndSplineSet
EndChar

StartChar: bracketleft
Encoding: 91 91 62
Width: 588
VWidth: 1177
Flags: W
LayerCount: 2
Fore
SplineSet
133 823 m 1,0,-1
 459 823 l 1,1,-1
 459 710 l 1,2,-1
 271 710 l 1,3,-1
 271 -81 l 1,4,-1
 459 -81 l 1,5,-1
 459 -194 l 1,6,-1
 133 -194 l 1,7,-1
 133 823 l 1,0,-1
EndSplineSet
Substitution2: "'case' Case-Sensitive Forms lookup 17 subtable" Bracketleft
EndChar

StartChar: backslash
Encoding: 92 92 63
Width: 588
VWidth: 1177
Flags: W
LayerCount: 2
Fore
SplineSet
58 823 m 1,0,-1
 206 823 l 1,1,-1
 536 -194 l 1,2,-1
 386 -194 l 1,3,-1
 58 823 l 1,0,-1
EndSplineSet
Substitution2: "'case' Case-Sensitive Forms lookup 17 subtable" Backslash
EndChar

StartChar: bracketright
Encoding: 93 93 64
Width: 588
VWidth: 1177
Flags: W
LayerCount: 2
Fore
SplineSet
456 -194 m 1,0,-1
 128 -194 l 1,1,-1
 128 -81 l 1,2,-1
 317 -81 l 1,3,-1
 317 710 l 1,4,-1
 128 710 l 1,5,-1
 128 823 l 1,6,-1
 456 823 l 1,7,-1
 456 -194 l 1,0,-1
EndSplineSet
Substitution2: "'case' Case-Sensitive Forms lookup 17 subtable" Bracketright
EndChar

StartChar: asciicircum
Encoding: 94 94 65
Width: 588
VWidth: 1177
Flags: W
LayerCount: 2
Fore
SplineSet
578 364 m 1,0,-1
 448 300 l 1,1,-1
 299 557 l 1,2,-1
 151 300 l 1,3,-1
 19 364 l 1,4,-1
 237 729 l 1,5,-1
 360 729 l 1,6,-1
 578 364 l 1,0,-1
EndSplineSet
EndChar

StartChar: underscore
Encoding: 95 95 66
Width: 588
VWidth: 1177
Flags: W
LayerCount: 2
Fore
SplineSet
9 -68 m 1,0,-1
 580 -68 l 1,1,-1
 580 -194 l 1,2,-1
 9 -194 l 1,3,-1
 9 -68 l 1,0,-1
EndSplineSet
EndChar

StartChar: grave
Encoding: 96 96 67
Width: 588
VWidth: 1177
Flags: W
LayerCount: 2
Fore
SplineSet
251 814 m 1,0,-1
 437 683 l 1,1,-1
 384 604 l 1,2,-1
 179 703 l 1,3,-1
 251 814 l 1,0,-1
EndSplineSet
EndChar

StartChar: a
Encoding: 97 97 68
Width: 588
VWidth: 1177
Flags: W
LayerCount: 2
Fore
SplineSet
296 104 m 0,0,1
 320 104 320 104 342 104.5 c 128,-1,2
 364 105 364 105 380 107 c 1,3,-1
 380 234 l 1,4,5
 366 236 366 236 346 238 c 128,-1,6
 326 240 326 240 310 240 c 0,7,8
 288 240 288 240 266.5 237 c 128,-1,9
 245 234 245 234 229 227 c 128,-1,10
 213 220 213 220 203.5 207 c 128,-1,11
 194 194 194 194 194 173 c 0,12,13
 194 135 194 135 222.5 119.5 c 128,-1,14
 251 104 251 104 296 104 c 0,0,1
283 568 m 0,15,16
 351 568 351 568 396.5 552 c 128,-1,17
 442 536 442 536 469 507 c 128,-1,18
 496 478 496 478 507.5 436.5 c 128,-1,19
 519 395 519 395 519 343 c 2,20,-1
 519 13 l 1,21,22
 487 6 487 6 425 -3.5 c 128,-1,23
 363 -13 363 -13 285 -13 c 0,24,25
 232 -13 232 -13 189 -3.5 c 128,-1,26
 146 6 146 6 115.5 27.5 c 128,-1,27
 85 49 85 49 68.5 84 c 128,-1,28
 52 119 52 119 52 170 c 0,29,30
 52 218 52 218 71 251 c 128,-1,31
 90 284 90 284 121.5 304 c 128,-1,32
 153 324 153 324 194.5 333 c 128,-1,33
 236 342 236 342 280 342 c 0,34,35
 337 342 337 342 380 332 c 1,36,-1
 380 350 l 2,37,38
 380 391 380 391 354.5 418.5 c 128,-1,39
 329 446 329 446 265 446 c 0,40,41
 224 446 224 446 185.5 440.5 c 128,-1,42
 147 435 147 435 124 426 c 1,43,-1
 104 543 l 1,44,45
 131 552 131 552 180.5 560 c 128,-1,46
 230 568 230 568 283 568 c 0,15,16
EndSplineSet
Substitution2: "'case' Case-Sensitive Forms lookup 18 subtable" A
Substitution2: "'ordn' Ordinals in Latin lookup 7 subtable" ordfeminine
EndChar

StartChar: b
Encoding: 98 98 69
Width: 588
VWidth: 1177
Flags: W
LayerCount: 2
Fore
SplineSet
406 280 m 0,0,1
 406 358 406 358 381 399.5 c 128,-1,2
 356 441 356 441 304 441 c 0,3,4
 280 441 280 441 257 434.5 c 128,-1,5
 234 428 234 428 218 418 c 1,6,-1
 218 118 l 1,7,8
 234 114 234 114 252.5 113 c 128,-1,9
 271 112 271 112 284 112 c 0,10,11
 341 112 341 112 373.5 150 c 128,-1,12
 406 188 406 188 406 280 c 0,0,1
554 277 m 0,13,14
 554 211 554 211 536 157.5 c 128,-1,15
 518 104 518 104 484 66 c 128,-1,16
 450 28 450 28 400.5 7.5 c 128,-1,17
 351 -13 351 -13 287 -13 c 0,18,19
 230 -13 230 -13 171.5 -4.5 c 128,-1,20
 113 4 113 4 73 16 c 1,21,-1
 73 793 l 1,22,-1
 218 817 l 1,23,-1
 218 541 l 1,24,25
 249 555 249 555 277 560 c 128,-1,26
 305 565 305 565 333 565 c 0,27,28
 387 565 387 565 428.5 544.5 c 128,-1,29
 470 524 470 524 497.5 486 c 128,-1,30
 525 448 525 448 539.5 395 c 128,-1,31
 554 342 554 342 554 277 c 0,13,14
EndSplineSet
Substitution2: "'case' Case-Sensitive Forms lookup 18 subtable" B
EndChar

StartChar: c
Encoding: 99 99 70
Width: 588
VWidth: 1177
Flags: W
LayerCount: 2
Fore
SplineSet
52 277 m 0,0,1
 52 337 52 337 71 390 c 128,-1,2
 90 443 90 443 128.5 482.5 c 128,-1,3
 167 522 167 522 226.5 545 c 128,-1,4
 286 568 286 568 369 568 c 0,5,6
 418 568 418 568 458 561 c 128,-1,7
 498 554 498 554 539 537 c 1,8,-1
 508 420 l 1,9,10
 484 428 484 428 455 435 c 128,-1,11
 426 442 426 442 382 442 c 0,12,13
 330 442 330 442 295 429.5 c 128,-1,14
 260 417 260 417 239 395 c 128,-1,15
 218 373 218 373 208.5 342.5 c 128,-1,16
 199 312 199 312 199 277 c 0,17,18
 199 200 199 200 242 156.5 c 128,-1,19
 285 113 285 113 389 113 c 0,20,21
 423 113 423 113 460 117.5 c 128,-1,22
 497 122 497 122 528 133 c 1,23,-1
 549 14 l 1,24,25
 518 2 518 2 474.5 -5.5 c 128,-1,26
 431 -13 431 -13 372 -13 c 0,27,28
 287 -13 287 -13 226.5 9.5 c 128,-1,29
 166 32 166 32 127 71 c 128,-1,30
 88 110 88 110 70 163 c 128,-1,31
 52 216 52 216 52 277 c 0,0,1
EndSplineSet
Substitution2: "'case' Case-Sensitive Forms lookup 18 subtable" C
EndChar

StartChar: d
Encoding: 100 100 71
Width: 588
VWidth: 1177
Flags: W
LayerCount: 2
Fore
SplineSet
180 280 m 0,0,1
 180 206 180 206 208 159 c 128,-1,2
 236 112 236 112 297 112 c 0,3,4
 315 112 315 112 330 113 c 128,-1,5
 345 114 345 114 362 117 c 1,6,-1
 362 418 l 1,7,8
 346 427 346 427 324.5 434 c 128,-1,9
 303 441 303 441 279 441 c 0,10,11
 227 441 227 441 203.5 399.5 c 128,-1,12
 180 358 180 358 180 280 c 0,0,1
506 16 m 1,13,14
 466 3 466 3 408.5 -5 c 128,-1,15
 351 -13 351 -13 296 -13 c 0,16,17
 166 -13 166 -13 99.5 63.5 c 128,-1,18
 33 140 33 140 33 273 c 0,19,20
 33 408 33 408 89 486.5 c 128,-1,21
 145 565 145 565 254 565 c 0,22,23
 283 565 283 565 311.5 558.5 c 128,-1,24
 340 552 340 552 362 541 c 1,25,-1
 362 793 l 1,26,-1
 506 817 l 1,27,-1
 506 16 l 1,13,14
EndSplineSet
Substitution2: "'case' Case-Sensitive Forms lookup 18 subtable" D
EndChar

StartChar: e
Encoding: 101 101 72
Width: 588
VWidth: 1177
Flags: W
LayerCount: 2
Fore
SplineSet
37 272 m 0,0,1
 37 345 37 345 59 400.5 c 128,-1,2
 81 456 81 456 117.5 493 c 128,-1,3
 154 530 154 530 201.5 549 c 128,-1,4
 249 568 249 568 298 568 c 0,5,6
 420 568 420 568 484 495.5 c 128,-1,7
 548 423 548 423 548 284 c 0,8,9
 548 270 548 270 547.5 254.5 c 128,-1,10
 547 239 547 239 545 230 c 1,11,-1
 186 230 l 1,12,13
 186 176 186 176 231 144.5 c 128,-1,14
 276 113 276 113 346 113 c 0,15,16
 390 113 390 113 429.5 122.5 c 128,-1,17
 469 132 469 132 496 141 c 1,18,-1
 516 18 l 1,19,20
 478 5 478 5 435.5 -4 c 128,-1,21
 393 -13 393 -13 340 -13 c 0,22,23
 269 -13 269 -13 213.5 5.5 c 128,-1,24
 158 24 158 24 118.5 59.5 c 128,-1,25
 79 95 79 95 58 148 c 128,-1,26
 37 201 37 201 37 272 c 0,0,1
408 330 m 1,27,28
 408 352 408 352 402 372.5 c 128,-1,29
 396 393 396 393 383 409.5 c 128,-1,30
 370 426 370 426 350 436 c 128,-1,31
 330 446 330 446 300 446 c 0,32,33
 272 446 272 446 251.5 437 c 128,-1,34
 231 428 231 428 217.5 411.5 c 128,-1,35
 204 395 204 395 196 373.5 c 128,-1,36
 188 352 188 352 186 330 c 1,37,-1
 408 330 l 1,27,28
EndSplineSet
Substitution2: "'case' Case-Sensitive Forms lookup 18 subtable" E
EndChar

StartChar: f
Encoding: 102 102 73
Width: 588
VWidth: 1177
Flags: W
LayerCount: 2
Fore
SplineSet
164 0 m 1,0,-1
 164 433 l 1,1,-1
 42 433 l 1,2,-1
 42 554 l 1,3,-1
 164 554 l 1,4,-1
 164 585 l 2,5,6
 164 652 164 652 183.5 696.5 c 128,-1,7
 203 741 203 741 236 767.5 c 128,-1,8
 269 794 269 794 311 805 c 128,-1,9
 353 816 353 816 398 816 c 0,10,11
 444 816 444 816 492.5 808 c 128,-1,12
 541 800 541 800 580 781 c 1,13,-1
 555 663 l 1,14,15
 528 672 528 672 487 682.5 c 128,-1,16
 446 693 446 693 410 693 c 0,17,18
 390 693 390 693 371.5 689.5 c 128,-1,19
 353 686 353 686 339.5 674 c 128,-1,20
 326 662 326 662 318 640 c 128,-1,21
 310 618 310 618 310 583 c 2,22,-1
 310 554 l 1,23,-1
 537 554 l 1,24,-1
 537 433 l 1,25,-1
 310 433 l 1,26,-1
 310 0 l 1,27,-1
 164 0 l 1,0,-1
EndSplineSet
Substitution2: "'case' Case-Sensitive Forms lookup 18 subtable" F
EndChar

StartChar: g
Encoding: 103 103 74
Width: 588
VWidth: 1177
Flags: W
LayerCount: 2
Fore
SplineSet
186 294 m 0,0,1
 186 226 186 226 211 190 c 128,-1,2
 236 154 236 154 289 154 c 0,3,4
 313 154 313 154 333 160 c 128,-1,5
 353 166 353 166 370 176 c 1,6,-1
 370 442 l 1,7,8
 354 446 354 446 340.5 447 c 128,-1,9
 327 448 327 448 313 448 c 0,10,11
 186 447 186 447 186 294 c 0,0,1
516 67 m 2,12,13
 516 -68 516 -68 450.5 -133 c 128,-1,14
 385 -198 385 -198 240 -198 c 0,15,16
 188 -198 188 -198 140.5 -187.5 c 128,-1,17
 93 -177 93 -177 49 -163 c 1,18,-1
 77 -40 l 1,19,20
 111 -53 111 -53 148.5 -64 c 128,-1,21
 186 -75 186 -75 243 -75 c 0,22,23
 281 -75 281 -75 305.5 -66.5 c 128,-1,24
 330 -58 330 -58 344 -42.5 c 128,-1,25
 358 -27 358 -27 364 -6.5 c 128,-1,26
 370 14 370 14 370 38 c 2,27,-1
 370 60 l 1,28,29
 339 48 339 48 314 42.5 c 128,-1,30
 289 37 289 37 259 37 c 0,31,32
 151 37 151 37 95 105 c 128,-1,33
 39 173 39 173 39 294 c 0,34,35
 39 431 39 431 114.5 498 c 128,-1,36
 190 565 190 565 319 565 c 0,37,38
 410 565 410 565 516 536 c 1,39,-1
 516 67 l 2,12,13
EndSplineSet
Substitution2: "'case' Case-Sensitive Forms lookup 18 subtable" G
EndChar

StartChar: h
Encoding: 104 104 75
Width: 588
VWidth: 1177
Flags: W
LayerCount: 2
Fore
SplineSet
74 0 m 1,0,-1
 74 793 l 1,1,-1
 219 817 l 1,2,-1
 219 549 l 1,3,4
 237 555 237 555 261.5 560 c 128,-1,5
 286 565 286 565 305 565 c 0,6,7
 366 565 366 565 407.5 547 c 128,-1,8
 449 529 449 529 473.5 495.5 c 128,-1,9
 498 462 498 462 508.5 415.5 c 128,-1,10
 519 369 519 369 519 312 c 2,11,-1
 519 0 l 1,12,-1
 375 0 l 1,13,-1
 375 293 l 2,14,15
 375 371 375 371 357 405 c 128,-1,16
 339 439 339 439 290 439 c 0,17,18
 270 439 270 439 250.5 434.5 c 128,-1,19
 231 430 231 430 219 426 c 1,20,-1
 219 0 l 1,21,-1
 74 0 l 1,0,-1
EndSplineSet
Substitution2: "'case' Case-Sensitive Forms lookup 18 subtable" H
EndChar

StartChar: i
Encoding: 105 105 76
Width: 588
VWidth: 1177
Flags: W
LayerCount: 2
Fore
SplineSet
335 713 m 0,0,1
 335 671 335 671 307.5 646 c 128,-1,2
 280 621 280 621 243 621 c 256,3,4
 205 621 205 621 178.5 645.5 c 128,-1,5
 152 670 152 670 152 713 c 0,6,7
 152 757 152 757 178.5 781.5 c 128,-1,8
 205 806 205 806 243 806 c 256,9,10
 281 806 281 806 308 781.5 c 128,-1,11
 335 757 335 757 335 713 c 0,0,1
550 24 m 1,12,13
 505 3 505 3 465.5 -5 c 128,-1,14
 426 -13 426 -13 393 -13 c 0,15,16
 336 -13 336 -13 298 3.5 c 128,-1,17
 260 20 260 20 237 51 c 128,-1,18
 214 82 214 82 205 127 c 128,-1,19
 196 172 196 172 196 230 c 2,20,-1
 196 433 l 1,21,-1
 42 433 l 1,22,-1
 42 554 l 1,23,-1
 340 554 l 1,24,-1
 340 211 l 2,25,26
 340 162 340 162 358.5 137.5 c 128,-1,27
 377 113 377 113 419 113 c 0,28,29
 439 113 439 113 467.5 118.5 c 128,-1,30
 496 124 496 124 531 140 c 1,31,-1
 550 24 l 1,12,13
EndSplineSet
Substitution2: "'case' Case-Sensitive Forms lookup 18 subtable" I
Substitution2: "'locl' Localized Forms in Latin lookup 2 subtable" i.locl
Substitution2: "'locl' Localized Forms in Latin lookup 1 subtable" i.locl
Substitution2: "'locl' Localized Forms in Latin lookup 0 subtable" i.locl
EndChar

StartChar: j
Encoding: 106 106 77
Width: 588
VWidth: 1177
Flags: W
LayerCount: 2
Fore
SplineSet
471 37 m 2,0,1
 471 -30 471 -30 454.5 -75.5 c 128,-1,2
 438 -121 438 -121 409 -149 c 128,-1,3
 380 -177 380 -177 341 -188.5 c 128,-1,4
 302 -200 302 -200 256 -200 c 0,5,6
 199 -200 199 -200 150.5 -186 c 128,-1,7
 102 -172 102 -172 58 -150 c 1,8,-1
 102 -27 l 1,9,10
 131 -43 131 -43 173.5 -58 c 128,-1,11
 216 -73 216 -73 250 -73 c 0,12,13
 287 -73 287 -73 306.5 -51 c 128,-1,14
 326 -29 326 -29 326 29 c 2,15,-1
 326 433 l 1,16,-1
 102 433 l 1,17,-1
 102 554 l 1,18,-1
 471 554 l 1,19,-1
 471 37 l 2,0,1
453 713 m 0,20,21
 453 671 453 671 426 646 c 128,-1,22
 399 621 399 621 362 621 c 256,23,24
 324 621 324 621 297.5 645.5 c 128,-1,25
 271 670 271 670 271 713 c 0,26,27
 271 757 271 757 297.5 781.5 c 128,-1,28
 324 806 324 806 362 806 c 256,29,30
 400 806 400 806 426.5 781.5 c 128,-1,31
 453 757 453 757 453 713 c 0,20,21
EndSplineSet
Substitution2: "'case' Case-Sensitive Forms lookup 18 subtable" J
EndChar

StartChar: k
Encoding: 107 107 78
Width: 588
VWidth: 1177
Flags: W
LayerCount: 2
Fore
SplineSet
220 335 m 1,0,1
 241 360 241 360 263 387.5 c 128,-1,2
 285 415 285 415 305.5 444 c 128,-1,3
 326 473 326 473 345 501 c 128,-1,4
 364 529 364 529 378 554 c 1,5,-1
 552 554 l 1,6,7
 531 527 531 527 504 495 c 128,-1,8
 477 463 477 463 448 430 c 128,-1,9
 419 397 419 397 390.5 366.5 c 128,-1,10
 362 336 362 336 338 310 c 1,11,12
 367 282 367 282 401.5 242.5 c 128,-1,13
 436 203 436 203 469 160.5 c 128,-1,14
 502 118 502 118 529.5 75.5 c 128,-1,15
 557 33 557 33 574 0 c 1,16,-1
 408 0 l 1,17,18
 394 29 394 29 370.5 66.5 c 128,-1,19
 347 104 347 104 321.5 140 c 128,-1,20
 296 176 296 176 269.5 208 c 128,-1,21
 243 240 243 240 220 261 c 1,22,-1
 220 0 l 1,23,-1
 74 0 l 1,24,-1
 74 793 l 1,25,-1
 220 817 l 1,26,-1
 220 335 l 1,0,1
EndSplineSet
Substitution2: "'case' Case-Sensitive Forms lookup 18 subtable" K
EndChar

StartChar: l
Encoding: 108 108 79
Width: 588
VWidth: 1177
Flags: W
LayerCount: 2
Fore
SplineSet
550 24 m 2,0,1
 546 22 546 22 534 15.5 c 128,-1,2
 522 9 522 9 502 2.5 c 128,-1,3
 482 -4 482 -4 453 -8.5 c 128,-1,4
 424 -13 424 -13 388 -13 c 0,5,6
 288 -13 288 -13 242 46.5 c 128,-1,7
 196 106 196 106 196 220 c 2,8,-1
 196 690 l 1,9,-1
 42 690 l 1,10,-1
 42 810 l 1,11,-1
 340 810 l 1,12,-1
 340 210 l 2,13,14
 340 153 340 153 362.5 133 c 128,-1,15
 385 113 385 113 419 113 c 0,16,17
 463 113 463 113 492.5 125 c 128,-1,18
 522 137 522 137 531 140 c 1,19,-1
 550 24 l 2,0,1
EndSplineSet
Substitution2: "'case' Case-Sensitive Forms lookup 18 subtable" L
EndChar

StartChar: m
Encoding: 109 109 80
Width: 588
VWidth: 1177
Flags: W
LayerCount: 2
Fore
SplineSet
404 559 m 0,0,1
 450 559 450 559 479.5 545 c 128,-1,2
 509 531 509 531 526 503 c 128,-1,3
 543 475 543 475 549 432 c 128,-1,4
 555 389 555 389 555 331 c 2,5,-1
 555 0 l 1,6,-1
 437 0 l 1,7,-1
 437 338 l 2,8,9
 437 371 437 371 433 391 c 128,-1,10
 429 411 429 411 422.5 421.5 c 128,-1,11
 416 432 416 432 407 435.5 c 128,-1,12
 398 439 398 439 389 439 c 0,13,14
 378 439 378 439 366.5 437.5 c 128,-1,15
 355 436 355 436 345 431 c 1,16,17
 349 409 349 409 351 382 c 128,-1,18
 353 355 353 355 353 322 c 2,19,-1
 353 211 l 1,20,-1
 353 0 l 5,21,-1
 236 0 l 1,22,-1
 236 211 l 1,23,-1
 236 338 l 2,24,25
 236 395 236 395 224.5 417 c 128,-1,26
 213 439 213 439 188 439 c 0,27,28
 181 439 181 439 171 438 c 128,-1,29
 161 437 161 437 152 435 c 1,30,-1
 152 0 l 1,31,-1
 34 0 l 1,32,-1
 34 532 l 1,33,34
 80 545 80 545 125 552 c 128,-1,35
 170 559 170 559 204 559 c 0,36,37
 235 559 235 559 259 551.5 c 128,-1,38
 283 544 283 544 300 527 c 1,39,40
 320 540 320 540 347.5 549.5 c 128,-1,41
 375 559 375 559 404 559 c 0,0,1
EndSplineSet
Substitution2: "'case' Case-Sensitive Forms lookup 18 subtable" M
EndChar

StartChar: n
Encoding: 110 110 81
Width: 588
VWidth: 1177
Flags: W
LayerCount: 2
Fore
SplineSet
74 536 m 1,0,1
 113 547 113 547 170 556 c 128,-1,2
 227 565 227 565 294 565 c 0,3,4
 360 565 360 565 404 547 c 128,-1,5
 448 529 448 529 473 495.5 c 128,-1,6
 498 462 498 462 508.5 415.5 c 128,-1,7
 519 369 519 369 519 312 c 2,8,-1
 519 0 l 1,9,-1
 375 0 l 1,10,-1
 375 293 l 2,11,12
 375 371 375 371 357 405 c 128,-1,13
 339 439 339 439 285 439 c 0,14,15
 269 439 269 439 253 438 c 128,-1,16
 237 437 237 437 219 435 c 1,17,-1
 219 0 l 1,18,-1
 74 0 l 1,19,-1
 74 536 l 1,0,1
EndSplineSet
Substitution2: "'case' Case-Sensitive Forms lookup 18 subtable" N
EndChar

StartChar: o
Encoding: 111 111 82
Width: 588
VWidth: 1177
Flags: W
LayerCount: 2
Fore
SplineSet
556 278 m 0,0,1
 556 212 556 212 537 158.5 c 128,-1,2
 518 105 518 105 484 66 c 128,-1,3
 450 27 450 27 402.5 6 c 128,-1,4
 355 -15 355 -15 296 -15 c 256,5,6
 237 -15 237 -15 189 6 c 128,-1,7
 141 27 141 27 106.5 66 c 128,-1,8
 72 105 72 105 53 158.5 c 128,-1,9
 34 212 34 212 34 278 c 0,10,11
 34 343 34 343 53.5 396.5 c 128,-1,12
 73 450 73 450 108 488.5 c 128,-1,13
 143 527 143 527 191 547.5 c 128,-1,14
 239 568 239 568 296 568 c 0,15,16
 354 568 354 568 401.5 547.5 c 128,-1,17
 449 527 449 527 483.5 488.5 c 128,-1,18
 518 450 518 450 537 396.5 c 128,-1,19
 556 343 556 343 556 278 c 0,0,1
181 277 m 256,20,21
 181 203 181 203 207.5 157 c 128,-1,22
 234 111 234 111 293 111 c 0,23,24
 350 111 350 111 379 157 c 128,-1,25
 408 203 408 203 408 277 c 256,26,27
 408 351 408 351 381.5 396.5 c 128,-1,28
 355 442 355 442 296 442 c 0,29,30
 239 442 239 442 210 396.5 c 128,-1,31
 181 351 181 351 181 277 c 256,20,21
EndSplineSet
Substitution2: "'case' Case-Sensitive Forms lookup 18 subtable" O
Substitution2: "'ordn' Ordinals in Latin lookup 7 subtable" ordmasculine
EndChar

StartChar: p
Encoding: 112 112 83
Width: 588
VWidth: 1177
Flags: W
LayerCount: 2
Fore
SplineSet
405 272 m 0,0,1
 405 346 405 346 375.5 394 c 128,-1,2
 346 442 346 442 286 442 c 0,3,4
 270 442 270 442 251 440 c 128,-1,5
 232 438 232 438 219 437 c 1,6,-1
 219 133 l 1,7,8
 233 124 233 124 256.5 118 c 128,-1,9
 280 112 280 112 304 112 c 0,10,11
 356 112 356 112 380.5 153.5 c 128,-1,12
 405 195 405 195 405 272 c 0,0,1
552 277 m 0,13,14
 552 213 552 213 538 159.5 c 128,-1,15
 524 106 524 106 497 67.5 c 128,-1,16
 470 29 470 29 429 8 c 128,-1,17
 388 -13 388 -13 333 -13 c 256,18,19
 278 -13 278 -13 219 14 c 1,20,-1
 219 -194 l 1,21,-1
 74 -194 l 1,22,-1
 74 536 l 1,23,24
 114 549 114 549 172.5 557 c 128,-1,25
 231 565 231 565 287 565 c 0,26,27
 415 565 415 565 483.5 487.5 c 128,-1,28
 552 410 552 410 552 277 c 0,13,14
EndSplineSet
Substitution2: "'case' Case-Sensitive Forms lookup 18 subtable" P
EndChar

StartChar: q
Encoding: 113 113 84
Width: 588
VWidth: 1177
Flags: W
LayerCount: 2
Fore
SplineSet
184 272 m 0,0,1
 184 195 184 195 209 153.5 c 128,-1,2
 234 112 234 112 286 112 c 0,3,4
 311 112 311 112 333 118 c 128,-1,5
 355 124 355 124 371 133 c 1,6,-1
 371 437 l 1,7,8
 360 438 360 438 342 440 c 128,-1,9
 324 442 324 442 304 442 c 0,10,11
 244 442 244 442 214 394 c 128,-1,12
 184 346 184 346 184 272 c 0,0,1
37 277 m 0,13,14
 37 341 37 341 54.5 394.5 c 128,-1,15
 72 448 72 448 105.5 485.5 c 128,-1,16
 139 523 139 523 189 544 c 128,-1,17
 239 565 239 565 303 565 c 0,18,19
 330 565 330 565 360 563 c 128,-1,20
 390 561 390 561 418 556.5 c 128,-1,21
 446 552 446 552 471.5 547 c 128,-1,22
 497 542 497 542 516 536 c 1,23,-1
 516 -194 l 1,24,-1
 371 -194 l 1,25,-1
 371 15 l 1,26,27
 344 2 344 2 314 -5.5 c 128,-1,28
 284 -13 284 -13 257 -13 c 0,29,30
 203 -13 203 -13 161.5 7.5 c 128,-1,31
 120 28 120 28 92.5 66 c 128,-1,32
 65 104 65 104 51 157.5 c 128,-1,33
 37 211 37 211 37 277 c 0,13,14
EndSplineSet
Substitution2: "'case' Case-Sensitive Forms lookup 18 subtable" Q
EndChar

StartChar: r
Encoding: 114 114 85
Width: 588
VWidth: 1177
Flags: W
LayerCount: 2
Fore
SplineSet
515 406 m 1,0,1
 501 410 501 410 481.5 413.5 c 128,-1,2
 462 417 462 417 442 420 c 128,-1,3
 422 423 422 423 403 424 c 128,-1,4
 384 425 384 425 371 425 c 0,5,6
 340 425 340 425 311 422 c 128,-1,7
 282 419 282 419 251 411 c 1,8,-1
 251 0 l 1,9,-1
 105 0 l 1,10,-1
 105 517 l 1,11,12
 163 538 163 538 223.5 551 c 128,-1,13
 284 564 284 564 365 564 c 0,14,15
 377 564 377 564 398.5 563 c 128,-1,16
 420 562 420 562 445 559 c 128,-1,17
 470 556 470 556 495.5 552 c 128,-1,18
 521 548 521 548 541 541 c 1,19,-1
 515 406 l 1,0,1
EndSplineSet
Substitution2: "'case' Case-Sensitive Forms lookup 18 subtable" R
EndChar

StartChar: s
Encoding: 115 115 86
Width: 588
VWidth: 1177
Flags: W
LayerCount: 2
Fore
SplineSet
269 110 m 0,0,1
 322 110 322 110 350 117.5 c 128,-1,2
 378 125 378 125 378 148 c 0,3,4
 378 163 378 163 369 174 c 128,-1,5
 360 185 360 185 344.5 192.5 c 128,-1,6
 329 200 329 200 308 207 c 128,-1,7
 287 214 287 214 265 221 c 0,8,9
 233 230 233 230 200 243 c 128,-1,10
 167 256 167 256 140 274.5 c 128,-1,11
 113 293 113 293 95.5 322 c 128,-1,12
 78 351 78 351 78 395 c 0,13,14
 78 430 78 430 91.5 461 c 128,-1,15
 105 492 105 492 134 516.5 c 128,-1,16
 163 541 163 541 207.5 554.5 c 128,-1,17
 252 568 252 568 314 568 c 0,18,19
 368 568 368 568 415 559.5 c 128,-1,20
 462 551 462 551 496 536 c 1,21,-1
 473 413 l 1,22,23
 453 419 453 419 411 432.5 c 128,-1,24
 369 446 369 446 316 446 c 0,25,26
 261 446 261 446 241 432.5 c 128,-1,27
 221 419 221 419 221 404 c 0,28,29
 221 391 221 391 230 381 c 128,-1,30
 239 371 239 371 254 363 c 128,-1,31
 269 355 269 355 288 347 c 128,-1,32
 307 339 307 339 330 332 c 0,33,34
 362 321 362 321 396 308.5 c 128,-1,35
 430 296 430 296 457.5 276.5 c 128,-1,36
 485 257 485 257 503 227 c 128,-1,37
 521 197 521 197 521 153 c 0,38,39
 521 119 521 119 508 88.5 c 128,-1,40
 495 58 495 58 465 35.5 c 128,-1,41
 435 13 435 13 386.5 0 c 128,-1,42
 338 -13 338 -13 267 -13 c 0,43,44
 195 -13 195 -13 144.5 3.5 c 128,-1,45
 94 20 94 20 64 33 c 1,46,-1
 86 154 l 1,47,48
 127 138 127 138 174 124 c 128,-1,49
 221 110 221 110 269 110 c 0,0,1
EndSplineSet
Substitution2: "'case' Case-Sensitive Forms lookup 18 subtable" S
EndChar

StartChar: t
Encoding: 116 116 87
Width: 588
VWidth: 1177
Flags: W
LayerCount: 2
Fore
SplineSet
168 433 m 1,0,-1
 42 433 l 1,1,-1
 42 554 l 1,2,-1
 168 554 l 1,3,-1
 168 693 l 1,4,-1
 313 716 l 1,5,-1
 313 554 l 1,6,-1
 545 554 l 1,7,-1
 545 433 l 1,8,-1
 313 433 l 1,9,-1
 313 210 l 2,10,11
 313 179 313 179 319 160 c 128,-1,12
 325 141 325 141 335.5 130.5 c 128,-1,13
 346 120 346 120 361.5 116.5 c 128,-1,14
 377 113 377 113 396 113 c 0,15,16
 416 113 416 113 433 114 c 128,-1,17
 450 115 450 115 466 118 c 128,-1,18
 482 121 482 121 499 127 c 128,-1,19
 516 133 516 133 536 143 c 1,20,-1
 556 18 l 1,21,22
 516 2 516 2 469.5 -5.5 c 128,-1,23
 423 -13 423 -13 379 -13 c 0,24,25
 328 -13 328 -13 289.5 -4.5 c 128,-1,26
 251 4 251 4 224 27.5 c 128,-1,27
 197 51 197 51 182.5 94 c 128,-1,28
 168 137 168 137 168 206 c 2,29,-1
 168 433 l 1,0,-1
EndSplineSet
Substitution2: "'case' Case-Sensitive Forms lookup 18 subtable" T
EndChar

StartChar: u
Encoding: 117 117 88
Width: 588
VWidth: 1177
Flags: W
LayerCount: 2
Fore
SplineSet
516 19 m 1,0,1
 476 8 476 8 419 -2.5 c 128,-1,2
 362 -13 362 -13 294 -13 c 256,3,4
 226 -13 226 -13 182.5 6 c 128,-1,5
 139 25 139 25 113.5 59.5 c 128,-1,6
 88 94 88 94 78.5 141 c 128,-1,7
 69 188 69 188 69 245 c 2,8,-1
 69 554 l 1,9,-1
 214 554 l 1,10,-1
 214 264 l 2,11,12
 214 187 214 187 232.5 150 c 128,-1,13
 251 113 251 113 304 113 c 0,14,15
 337 113 337 113 370 119 c 1,16,-1
 370 554 l 1,17,-1
 516 554 l 1,18,-1
 516 19 l 1,0,1
EndSplineSet
Substitution2: "'case' Case-Sensitive Forms lookup 18 subtable" U
EndChar

StartChar: v
Encoding: 118 118 89
Width: 588
VWidth: 1177
Flags: W
LayerCount: 2
Fore
SplineSet
229 0 m 1,0,1
 176 105 176 105 121 245.5 c 128,-1,2
 66 386 66 386 16 554 c 1,3,-1
 168 554 l 1,4,5
 179 509 179 509 193.5 458.5 c 128,-1,6
 208 408 208 408 224.5 356.5 c 128,-1,7
 241 305 241 305 258.5 256.5 c 128,-1,8
 276 208 276 208 291 168 c 1,9,10
 306 208 306 208 325 256.5 c 128,-1,11
 344 305 344 305 362 356.5 c 128,-1,12
 380 408 380 408 397.5 458.5 c 128,-1,13
 415 509 415 509 425 554 c 1,14,-1
 572 554 l 1,15,16
 523 387 523 387 463 246 c 128,-1,17
 403 105 403 105 350 0 c 1,18,-1
 229 0 l 1,0,1
EndSplineSet
Substitution2: "'case' Case-Sensitive Forms lookup 18 subtable" V
EndChar

StartChar: w
Encoding: 119 119 90
Width: 588
VWidth: 1177
Flags: W
LayerCount: 2
Fore
SplineSet
379 0 m 1,0,1
 366 37 366 37 355 67.5 c 128,-1,2
 344 98 344 98 334 126.5 c 128,-1,3
 324 155 324 155 314 186.5 c 128,-1,4
 304 218 304 218 293 256 c 1,5,6
 281 218 281 218 272 188 c 128,-1,7
 263 158 263 158 253 128.5 c 128,-1,8
 243 99 243 99 232 68.5 c 128,-1,9
 221 38 221 38 206 0 c 1,10,-1
 97 0 l 1,11,12
 83 52 83 52 70.5 115 c 128,-1,13
 58 178 58 178 47.5 249 c 128,-1,14
 37 320 37 320 28.5 396.5 c 128,-1,15
 20 473 20 473 13 554 c 1,16,-1
 137 554 l 1,17,18
 142 452 142 452 147 354 c 128,-1,19
 152 256 152 256 166 152 c 1,20,21
 181 197 181 197 192.5 235 c 128,-1,22
 204 273 204 273 212.5 308 c 128,-1,23
 221 343 221 343 229 375.5 c 128,-1,24
 237 408 237 408 245 442 c 1,25,-1
 350 442 l 1,26,27
 357 408 357 408 364.5 375.5 c 128,-1,28
 372 343 372 343 381 308 c 128,-1,29
 390 273 390 273 400 235 c 128,-1,30
 410 197 410 197 424 152 c 1,31,32
 431 206 431 206 436 255.5 c 128,-1,33
 441 305 441 305 443.5 354 c 128,-1,34
 446 403 446 403 448 452 c 128,-1,35
 450 501 450 501 452 554 c 1,36,-1
 576 554 l 1,37,38
 563 393 563 393 540 250 c 128,-1,39
 517 107 517 107 489 0 c 1,40,-1
 379 0 l 1,0,1
EndSplineSet
Substitution2: "'case' Case-Sensitive Forms lookup 18 subtable" W
EndChar

StartChar: x
Encoding: 120 120 91
Width: 588
VWidth: 1177
Flags: W
LayerCount: 2
Fore
SplineSet
299 380 m 1,0,-1
 412 554 l 1,1,-1
 559 554 l 1,2,-1
 380 287 l 1,3,4
 408 253 408 253 435.5 215 c 128,-1,5
 463 177 463 177 487.5 138 c 128,-1,6
 512 99 512 99 532 63.5 c 128,-1,7
 552 28 552 28 567 0 c 1,8,-1
 416 0 l 1,9,10
 384 60 384 60 352 107 c 128,-1,11
 320 154 320 154 292 192 c 1,12,13
 257 145 257 145 228.5 100 c 128,-1,14
 200 55 200 55 171 0 c 1,15,-1
 24 0 l 1,16,17
 42 33 42 33 64.5 69 c 128,-1,18
 87 105 87 105 112.5 142 c 128,-1,19
 138 179 138 179 165.5 215.5 c 128,-1,20
 193 252 193 252 219 285 c 1,21,-1
 25 554 l 1,22,-1
 177 554 l 1,23,-1
 299 380 l 1,0,-1
EndSplineSet
Substitution2: "'case' Case-Sensitive Forms lookup 18 subtable" X
EndChar

StartChar: y
Encoding: 121 121 92
Width: 588
VWidth: 1177
Flags: W
LayerCount: 2
Fore
SplineSet
556 554 m 1,0,1
 534 476 534 476 513 401 c 128,-1,2
 492 326 492 326 470 255 c 128,-1,3
 448 184 448 184 422.5 115.5 c 128,-1,4
 397 47 397 47 367 -18 c 0,5,6
 345 -65 345 -65 323.5 -99 c 128,-1,7
 302 -133 302 -133 275.5 -155 c 128,-1,8
 249 -177 249 -177 216.5 -187.5 c 128,-1,9
 184 -198 184 -198 140 -198 c 0,10,11
 103 -198 103 -198 73.5 -192 c 128,-1,12
 44 -186 44 -186 24 -177 c 1,13,-1
 51 -55 l 1,14,15
 75 -66 75 -66 93 -70 c 128,-1,16
 111 -74 111 -74 132 -74 c 0,17,18
 174 -74 174 -74 200 -46 c 128,-1,19
 226 -18 226 -18 241 21 c 1,20,21
 189 125 189 125 137.5 258.5 c 128,-1,22
 86 392 86 392 44 554 c 1,23,-1
 194 554 l 1,24,25
 205 510 205 510 218.5 460.5 c 128,-1,26
 232 411 232 411 247.5 361.5 c 128,-1,27
 263 312 263 312 280 264.5 c 128,-1,28
 297 217 297 217 314 176 c 1,29,30
 326 217 326 217 339 264.5 c 128,-1,31
 352 312 352 312 364 361 c 128,-1,32
 376 410 376 410 387 459.5 c 128,-1,33
 398 509 398 509 408 554 c 1,34,-1
 556 554 l 1,0,1
EndSplineSet
Substitution2: "'case' Case-Sensitive Forms lookup 18 subtable" Y
EndChar

StartChar: z
Encoding: 122 122 93
Width: 588
VWidth: 1177
Flags: W
LayerCount: 2
Fore
SplineSet
502 448 m 1,0,1
 486 429 486 429 455 392 c 128,-1,2
 424 355 424 355 388 309 c 128,-1,3
 352 263 352 263 316 213 c 128,-1,4
 280 163 280 163 252 120 c 1,5,-1
 514 120 l 1,6,-1
 514 0 l 1,7,-1
 79 0 l 1,8,-1
 79 88 l 1,9,10
 106 133 106 133 138 180 c 128,-1,11
 170 227 170 227 201.5 272.5 c 128,-1,12
 233 318 233 318 263.5 359 c 128,-1,13
 294 400 294 400 319 433 c 1,14,-1
 91 433 l 1,15,-1
 91 554 l 1,16,-1
 502 554 l 1,17,-1
 502 448 l 1,0,1
EndSplineSet
Substitution2: "'case' Case-Sensitive Forms lookup 18 subtable" Z
EndChar

StartChar: braceleft
Encoding: 123 123 94
Width: 588
VWidth: 1177
Flags: W
LayerCount: 2
Fore
SplineSet
220 313 m 1,0,1
 284 301 284 301 311.5 261 c 128,-1,2
 339 221 339 221 339 146 c 2,3,-1
 339 13 l 2,4,5
 339 -36 339 -36 353 -58.5 c 128,-1,6
 367 -81 367 -81 405 -81 c 2,7,-1
 515 -81 l 1,8,-1
 515 -194 l 1,9,-1
 392 -194 l 2,10,11
 286 -194 286 -194 245.5 -148 c 128,-1,12
 205 -102 205 -102 205 -15 c 2,13,-1
 205 158 l 2,14,15
 205 207 205 207 189.5 232.5 c 128,-1,16
 174 258 174 258 138 258 c 2,17,-1
 74 258 l 1,18,-1
 74 371 l 1,19,-1
 138 371 l 2,20,21
 175 371 175 371 190 396.5 c 128,-1,22
 205 422 205 422 205 470 c 2,23,-1
 205 644 l 2,24,25
 205 731 205 731 245.5 777 c 128,-1,26
 286 823 286 823 392 823 c 2,27,-1
 515 823 l 1,28,-1
 515 710 l 1,29,-1
 405 710 l 2,30,31
 367 710 367 710 353 688.5 c 128,-1,32
 339 667 339 667 339 616 c 2,33,-1
 339 483 l 2,34,35
 339 408 339 408 311.5 367.5 c 128,-1,36
 284 327 284 327 220 313 c 1,0,1
EndSplineSet
Substitution2: "'case' Case-Sensitive Forms lookup 17 subtable" Braceleft
EndChar

StartChar: bar
Encoding: 124 124 95
Width: 588
VWidth: 1177
Flags: W
LayerCount: 2
Fore
SplineSet
223 823 m 1,0,-1
 369 823 l 1,1,-1
 369 -194 l 1,2,-1
 223 -194 l 1,3,-1
 223 823 l 1,0,-1
EndSplineSet
EndChar

StartChar: braceright
Encoding: 125 125 96
Width: 588
VWidth: 1177
Flags: W
LayerCount: 2
Fore
SplineSet
369 316 m 1,0,1
 305 328 305 328 277 368 c 128,-1,2
 249 408 249 408 249 483 c 2,3,-1
 249 616 l 2,4,5
 249 665 249 665 234.5 687.5 c 128,-1,6
 220 710 220 710 183 710 c 2,7,-1
 74 710 l 1,8,-1
 74 823 l 1,9,-1
 196 823 l 2,10,11
 249 823 249 823 284.5 811.5 c 128,-1,12
 320 800 320 800 342 777.5 c 128,-1,13
 364 755 364 755 373.5 721.5 c 128,-1,14
 383 688 383 688 383 644 c 2,15,-1
 383 471 l 2,16,17
 383 422 383 422 398 396.5 c 128,-1,18
 413 371 413 371 450 371 c 2,19,-1
 515 371 l 1,20,-1
 515 258 l 1,21,-1
 450 258 l 2,22,23
 413 258 413 258 398 232.5 c 128,-1,24
 383 207 383 207 383 159 c 2,25,-1
 383 -15 l 2,26,27
 383 -59 383 -59 373.5 -92.5 c 128,-1,28
 364 -126 364 -126 342 -148.5 c 128,-1,29
 320 -171 320 -171 284.5 -182.5 c 128,-1,30
 249 -194 249 -194 196 -194 c 2,31,-1
 74 -194 l 1,32,-1
 74 -81 l 1,33,-1
 183 -81 l 2,34,35
 221 -81 221 -81 235 -59.5 c 128,-1,36
 249 -38 249 -38 249 13 c 2,37,-1
 249 146 l 2,38,39
 249 221 249 221 277 261.5 c 128,-1,40
 305 302 305 302 369 316 c 1,0,1
EndSplineSet
Substitution2: "'case' Case-Sensitive Forms lookup 17 subtable" Braceright
EndChar

StartChar: asciitilde
Encoding: 126 126 97
Width: 588
VWidth: 1177
Flags: W
LayerCount: 2
Fore
SplineSet
406 201 m 0,0,1
 374 201 374 201 346.5 213.5 c 128,-1,2
 319 226 319 226 293 241.5 c 128,-1,3
 267 257 267 257 243 269.5 c 128,-1,4
 219 282 219 282 197 282 c 0,5,6
 188 282 188 282 179 279.5 c 128,-1,7
 170 277 170 277 161.5 269 c 128,-1,8
 153 261 153 261 146 246 c 128,-1,9
 139 231 139 231 132 205 c 1,10,-1
 25 234 l 1,11,12
 30 263 30 263 41.5 296 c 128,-1,13
 53 329 53 329 72.5 356 c 128,-1,14
 92 383 92 383 121.5 401 c 128,-1,15
 151 419 151 419 192 419 c 0,16,17
 223 419 223 419 250.5 407 c 128,-1,18
 278 395 278 395 304 379.5 c 128,-1,19
 330 364 330 364 353.5 351.5 c 128,-1,20
 377 339 377 339 400 339 c 0,21,22
 409 339 409 339 418.5 341.5 c 128,-1,23
 428 344 428 344 436 352 c 128,-1,24
 444 360 444 360 451.5 375.5 c 128,-1,25
 459 391 459 391 466 417 c 1,26,-1
 574 388 l 1,27,28
 568 359 568 359 556.5 326 c 128,-1,29
 545 293 545 293 525 265.5 c 128,-1,30
 505 238 505 238 476 219.5 c 128,-1,31
 447 201 447 201 406 201 c 0,0,1
EndSplineSet
EndChar

StartChar: Euro
Encoding: 8364 8364 98
Width: 588
VWidth: 1177
Flags: W
LayerCount: 2
Fore
SplineSet
118 503 m 1,0,1
 145 624 145 624 218 683.5 c 128,-1,2
 291 743 291 743 396 743 c 0,3,4
 430 743 430 743 467.5 738.5 c 128,-1,5
 505 734 505 734 545 717 c 1,6,-1
 514 597 l 1,7,8
 493 606 493 606 465 611.5 c 128,-1,9
 437 617 437 617 403 617 c 0,10,11
 343 617 343 617 312.5 586.5 c 128,-1,12
 282 556 282 556 269 503 c 1,13,-1
 483 503 l 1,14,-1
 463 404 l 1,15,-1
 254 404 l 1,16,17
 253 395 253 395 252.5 386 c 128,-1,18
 252 377 252 377 252 367 c 256,19,20
 252 358 252 358 252.5 348.5 c 128,-1,21
 253 339 253 339 254 330 c 1,22,-1
 450 330 l 1,23,-1
 430 231 l 1,24,-1
 269 231 l 1,25,26
 283 169 283 169 318 141 c 128,-1,27
 353 113 353 113 397 113 c 0,28,29
 428 113 428 113 464.5 119 c 128,-1,30
 501 125 501 125 532 140 c 1,31,-1
 563 24 l 1,32,33
 526 6 526 6 482 -4 c 128,-1,34
 438 -14 438 -14 393 -14 c 0,35,36
 344 -14 344 -14 298 -0.5 c 128,-1,37
 252 13 252 13 215 42 c 128,-1,38
 178 71 178 71 151.5 117.5 c 128,-1,39
 125 164 125 164 113 231 c 1,40,-1
 37 231 l 1,41,-1
 37 330 l 1,42,-1
 104 330 l 1,43,-1
 104 404 l 1,44,-1
 37 404 l 1,45,-1
 37 503 l 1,46,-1
 118 503 l 1,0,1
EndSplineSet
EndChar

StartChar: quotesinglbase
Encoding: 8218 8218 99
Width: 588
VWidth: 1177
Flags: W
LayerCount: 2
Fore
SplineSet
148 -86 m 1,0,1
 169 -81 169 -81 191 -77.5 c 128,-1,2
 213 -74 213 -74 232.5 -67 c 128,-1,3
 252 -60 252 -60 267.5 -47 c 128,-1,4
 283 -34 283 -34 292 -12 c 1,5,6
 247 -7 247 -7 222.5 23.5 c 128,-1,7
 198 54 198 54 198 92 c 0,8,9
 198 138 198 138 228 167.5 c 128,-1,10
 258 197 258 197 304 197 c 0,11,12
 353 197 353 197 381 164 c 128,-1,13
 409 131 409 131 409 74 c 0,14,15
 409 33 409 33 396 -8 c 128,-1,16
 383 -49 383 -49 354 -84.5 c 128,-1,17
 325 -120 325 -120 279 -146 c 128,-1,18
 233 -172 233 -172 167 -180 c 1,19,-1
 148 -86 l 1,0,1
EndSplineSet
EndChar

StartChar: florin
Encoding: 402 402 100
Width: 588
VWidth: 1177
Flags: W
LayerCount: 2
Fore
SplineSet
310 37 m 2,0,1
 310 -30 310 -30 293.5 -75.5 c 128,-1,2
 277 -121 277 -121 247.5 -149 c 128,-1,3
 218 -177 218 -177 178.5 -188.5 c 128,-1,4
 139 -200 139 -200 93 -200 c 0,5,6
 59 -200 59 -200 39 -195.5 c 128,-1,7
 19 -191 19 -191 -1 -185 c 1,8,-1
 32 -65 l 1,9,10
 41 -67 41 -67 52.5 -70 c 128,-1,11
 64 -73 64 -73 87 -73 c 0,12,13
 124 -73 124 -73 144 -51 c 128,-1,14
 164 -29 164 -29 164 29 c 2,15,-1
 164 433 l 1,16,-1
 42 433 l 1,17,-1
 42 554 l 1,18,-1
 164 554 l 1,19,-1
 164 585 l 2,20,21
 164 652 164 652 183.5 696.5 c 128,-1,22
 203 741 203 741 236 767.5 c 128,-1,23
 269 794 269 794 311 805 c 128,-1,24
 353 816 353 816 398 816 c 0,25,26
 444 816 444 816 492.5 808 c 128,-1,27
 541 800 541 800 580 781 c 1,28,-1
 555 663 l 1,29,30
 528 672 528 672 487 682.5 c 128,-1,31
 446 693 446 693 410 693 c 0,32,33
 390 693 390 693 371.5 689.5 c 128,-1,34
 353 686 353 686 339.5 674 c 128,-1,35
 326 662 326 662 318 640 c 128,-1,36
 310 618 310 618 310 583 c 2,37,-1
 310 554 l 1,38,-1
 537 554 l 1,39,-1
 537 433 l 1,40,-1
 310 433 l 1,41,-1
 310 37 l 2,0,1
EndSplineSet
EndChar

StartChar: quotedblbase
Encoding: 8222 8222 101
Width: 588
VWidth: 1177
Flags: W
LayerCount: 2
Fore
SplineSet
14 -91 m 1,0,1
 36 -86 36 -86 58 -81.5 c 128,-1,2
 80 -77 80 -77 98.5 -69 c 128,-1,3
 117 -61 117 -61 131.5 -47.5 c 128,-1,4
 146 -34 146 -34 154 -13 c 1,5,6
 115 -9 115 -9 96 16 c 128,-1,7
 77 41 77 41 77 72 c 0,8,9
 77 113 77 113 104 133.5 c 128,-1,10
 131 154 131 154 163 154 c 0,11,12
 209 154 209 154 231 124 c 128,-1,13
 253 94 253 94 253 52 c 0,14,15
 253 18 253 18 239 -20 c 128,-1,16
 225 -58 225 -58 198 -89.5 c 128,-1,17
 171 -121 171 -121 129.5 -143.5 c 128,-1,18
 88 -166 88 -166 34 -170 c 1,19,-1
 14 -91 l 1,0,1
291 -91 m 1,20,21
 313 -86 313 -86 335 -81.5 c 128,-1,22
 357 -77 357 -77 376 -69 c 128,-1,23
 395 -61 395 -61 409.5 -47.5 c 128,-1,24
 424 -34 424 -34 432 -13 c 1,25,26
 392 -9 392 -9 373.5 16 c 128,-1,27
 355 41 355 41 355 72 c 0,28,29
 355 113 355 113 382 133.5 c 128,-1,30
 409 154 409 154 441 154 c 0,31,32
 487 154 487 154 509 124 c 128,-1,33
 531 94 531 94 531 52 c 0,34,35
 531 18 531 18 517 -20 c 128,-1,36
 503 -58 503 -58 476 -89.5 c 128,-1,37
 449 -121 449 -121 407.5 -143.5 c 128,-1,38
 366 -166 366 -166 312 -170 c 1,39,-1
 291 -91 l 1,20,21
EndSplineSet
EndChar

StartChar: ellipsis
Encoding: 8230 8230 102
Width: 588
VWidth: 1177
Flags: W
LayerCount: 2
Fore
SplineSet
491 -14 m 0,0,1
 458 -14 458 -14 440.5 10 c 128,-1,2
 423 34 423 34 423 64 c 256,3,4
 423 93 423 93 440.5 116.5 c 128,-1,5
 458 140 458 140 491 140 c 256,6,7
 524 140 524 140 541.5 116 c 128,-1,8
 559 92 559 92 559 64 c 0,9,10
 559 35 559 35 542 10.5 c 128,-1,11
 525 -14 525 -14 491 -14 c 0,0,1
297 -14 m 0,12,13
 263 -14 263 -14 246 10 c 128,-1,14
 229 34 229 34 229 64 c 256,15,16
 229 93 229 93 246 116.5 c 128,-1,17
 263 140 263 140 297 140 c 0,18,19
 329 140 329 140 347 116 c 128,-1,20
 365 92 365 92 365 64 c 0,21,22
 365 35 365 35 347.5 10.5 c 128,-1,23
 330 -14 330 -14 297 -14 c 0,12,13
101 -14 m 0,24,25
 67 -14 67 -14 50 10 c 128,-1,26
 33 34 33 34 33 64 c 256,27,28
 33 93 33 93 50 116.5 c 128,-1,29
 67 140 67 140 101 140 c 0,30,31
 133 140 133 140 151.5 116 c 128,-1,32
 170 92 170 92 170 64 c 0,33,34
 170 35 170 35 152 10.5 c 128,-1,35
 134 -14 134 -14 101 -14 c 0,24,25
EndSplineSet
EndChar

StartChar: dagger
Encoding: 8224 8224 103
Width: 588
VWidth: 1177
Flags: W
LayerCount: 2
Fore
SplineSet
359 396 m 1,0,-1
 359 155 l 2,1,2
 359 70 359 70 354.5 -2 c 128,-1,3
 350 -74 350 -74 339 -152 c 1,4,-1
 251 -152 l 1,5,6
 242 -75 242 -75 236.5 -2 c 128,-1,7
 231 71 231 71 231 155 c 2,8,-1
 231 396 l 1,9,-1
 73 396 l 1,10,-1
 73 516 l 1,11,-1
 231 516 l 1,12,-1
 231 729 l 1,13,-1
 359 729 l 1,14,-1
 359 516 l 1,15,-1
 518 516 l 1,16,-1
 518 396 l 1,17,-1
 359 396 l 1,0,-1
EndSplineSet
EndChar

StartChar: daggerdbl
Encoding: 8225 8225 104
Width: 588
VWidth: 1177
Flags: W
LayerCount: 2
Fore
SplineSet
356 115 m 1,0,1
 354 43 354 43 349 -20.5 c 128,-1,2
 344 -84 344 -84 335 -152 c 1,3,-1
 247 -152 l 1,4,5
 238 -85 238 -85 232.5 -20.5 c 128,-1,6
 227 44 227 44 226 115 c 1,7,-1
 68 115 l 1,8,-1
 68 237 l 1,9,-1
 226 237 l 1,10,-1
 226 396 l 1,11,-1
 68 396 l 1,12,-1
 68 516 l 1,13,-1
 226 516 l 1,14,-1
 226 729 l 1,15,-1
 356 729 l 1,16,-1
 356 516 l 1,17,-1
 515 516 l 1,18,-1
 515 396 l 1,19,-1
 356 396 l 1,20,-1
 356 237 l 1,21,-1
 515 237 l 1,22,-1
 515 115 l 1,23,-1
 356 115 l 1,0,1
EndSplineSet
EndChar

StartChar: circumflex
Encoding: 710 710 105
Width: 588
VWidth: 1177
Flags: W
LayerCount: 2
Fore
SplineSet
459 670 m 1,0,-1
 402 601 l 1,1,-1
 297 682 l 1,2,-1
 192 601 l 1,3,-1
 132 670 l 1,4,-1
 297 814 l 1,5,-1
 459 670 l 1,0,-1
EndSplineSet
EndChar

StartChar: perthousand
Encoding: 8240 8240 106
Width: 588
VWidth: 1177
Flags: W
LayerCount: 2
Fore
SplineSet
93 146 m 256,0,1
 93 225 93 225 121.5 267 c 128,-1,2
 150 309 150 309 204 309 c 0,3,4
 261 309 261 309 289 267 c 128,-1,5
 317 225 317 225 317 146 c 256,6,7
 317 67 317 67 288.5 26 c 128,-1,8
 260 -15 260 -15 204 -15 c 0,9,10
 150 -15 150 -15 121.5 26 c 128,-1,11
 93 67 93 67 93 146 c 256,0,1
238 146 m 256,12,13
 238 188 238 188 229.5 207 c 128,-1,14
 221 226 221 226 204 226 c 0,15,16
 188 226 188 226 180 207 c 128,-1,17
 172 188 172 188 172 146 c 256,18,19
 172 104 172 104 179.5 85 c 128,-1,20
 187 66 187 66 204 66 c 0,21,22
 222 66 222 66 230 85 c 128,-1,23
 238 104 238 104 238 146 c 256,12,13
350 146 m 256,24,25
 350 225 350 225 378 267 c 128,-1,26
 406 309 406 309 462 309 c 0,27,28
 519 309 519 309 547 267 c 128,-1,29
 575 225 575 225 575 146 c 256,30,31
 575 67 575 67 546.5 26 c 128,-1,32
 518 -15 518 -15 462 -15 c 0,33,34
 407 -15 407 -15 378.5 26 c 128,-1,35
 350 67 350 67 350 146 c 256,24,25
40 273 m 1,36,-1
 11 325 l 1,37,-1
 549 595 l 1,38,-1
 578 542 l 1,39,-1
 40 273 l 1,36,-1
496 146 m 256,40,41
 496 188 496 188 487.5 207 c 128,-1,42
 479 226 479 226 462 226 c 256,43,44
 444 226 444 226 436.5 207 c 128,-1,45
 429 188 429 188 429 146 c 256,46,47
 429 104 429 104 436.5 85 c 128,-1,48
 444 66 444 66 462 66 c 256,49,50
 480 66 480 66 488 85 c 128,-1,51
 496 104 496 104 496 146 c 256,40,41
15 584 m 0,52,53
 15 663 15 663 43.5 704.5 c 128,-1,54
 72 746 72 746 126 746 c 0,55,56
 183 746 183 746 211 704.5 c 128,-1,57
 239 663 239 663 239 584 c 0,58,59
 239 504 239 504 211 463 c 128,-1,60
 183 422 183 422 126 422 c 0,61,62
 72 422 72 422 43.5 463 c 128,-1,63
 15 504 15 504 15 584 c 0,52,53
160 584 m 0,64,65
 160 626 160 626 152 644.5 c 128,-1,66
 144 663 144 663 126 663 c 0,67,68
 110 663 110 663 101.5 645 c 128,-1,69
 93 627 93 627 93 584 c 0,70,71
 93 540 93 540 101.5 522 c 128,-1,72
 110 504 110 504 126 504 c 0,73,74
 144 504 144 504 152 522 c 128,-1,75
 160 540 160 540 160 584 c 0,64,65
EndSplineSet
EndChar

StartChar: guilsinglleft
Encoding: 8249 8249 108
Width: 588
VWidth: 1177
Flags: W
LayerCount: 2
Fore
SplineSet
340 299 m 1,0,-1
 448 102 l 1,1,-1
 329 46 l 1,2,-1
 155 299 l 1,3,-1
 329 551 l 1,4,-1
 448 496 l 1,5,-1
 340 299 l 1,0,-1
EndSplineSet
Substitution2: "'case' Case-Sensitive Forms lookup 17 subtable" Guilsinglleft
EndChar

StartChar: OE
Encoding: 338 338 109
Width: 588
VWidth: 1177
Flags: W
LayerCount: 2
Fore
SplineSet
324 0 m 2,0,1
 310 -4 310 -4 295 -5 c 128,-1,2
 280 -6 280 -6 264 -6 c 0,3,4
 145 -6 145 -6 83 82 c 128,-1,5
 21 170 21 170 21 365 c 0,6,7
 21 559 21 559 84 647.5 c 128,-1,8
 147 736 147 736 263 736 c 0,9,10
 281 736 281 736 297 733.5 c 128,-1,11
 313 731 313 731 330 729 c 2,12,-1
 563 729 l 1,13,-1
 563 609 l 1,14,-1
 432 609 l 1,15,-1
 432 446 l 1,16,-1
 536 446 l 1,17,-1
 536 326 l 1,18,-1
 432 326 l 1,19,-1
 432 120 l 1,20,-1
 578 120 l 1,21,-1
 578 0 l 1,22,-1
 324 0 l 2,0,1
263 120 m 0,23,24
 283 120 283 120 300 126 c 1,25,-1
 300 604 l 1,26,27
 282 610 282 610 263 610 c 0,28,29
 230 610 230 610 209 593 c 128,-1,30
 188 576 188 576 177 544 c 128,-1,31
 166 512 166 512 162 467 c 128,-1,32
 158 422 158 422 158 365 c 256,33,34
 158 308 158 308 161.5 263 c 128,-1,35
 165 218 165 218 176.5 186 c 128,-1,36
 188 154 188 154 208.5 137 c 128,-1,37
 229 120 229 120 263 120 c 0,23,24
EndSplineSet
EndChar

StartChar: quoteleft
Encoding: 8216 8216 110
Width: 588
VWidth: 1177
Flags: W
LayerCount: 2
Fore
SplineSet
430 753 m 1,0,1
 409 749 409 749 387.5 745 c 128,-1,2
 366 741 366 741 346.5 734 c 128,-1,3
 327 727 327 727 311.5 714 c 128,-1,4
 296 701 296 701 286 678 c 1,5,6
 331 674 331 674 355.5 643 c 128,-1,7
 380 612 380 612 380 575 c 0,8,9
 380 529 380 529 350 499.5 c 128,-1,10
 320 470 320 470 274 470 c 0,11,12
 225 470 225 470 197.5 503 c 128,-1,13
 170 536 170 536 170 592 c 0,14,15
 170 632 170 632 183 674 c 128,-1,16
 196 716 196 716 224.5 751.5 c 128,-1,17
 253 787 253 787 299 813 c 128,-1,18
 345 839 345 839 411 847 c 1,19,-1
 430 753 l 1,0,1
EndSplineSet
EndChar

StartChar: quoteright
Encoding: 8217 8217 111
Width: 588
VWidth: 1177
Flags: W
LayerCount: 2
Fore
SplineSet
170 583 m 1,0,1
 191 588 191 588 212.5 591.5 c 128,-1,2
 234 595 234 595 253.5 602 c 128,-1,3
 273 609 273 609 288.5 622 c 128,-1,4
 304 635 304 635 313 657 c 1,5,6
 268 662 268 662 243.5 692.5 c 128,-1,7
 219 723 219 723 219 761 c 0,8,9
 219 807 219 807 249 836.5 c 128,-1,10
 279 866 279 866 325 866 c 0,11,12
 374 866 374 866 402 833 c 128,-1,13
 430 800 430 800 430 743 c 0,14,15
 430 702 430 702 417 661 c 128,-1,16
 404 620 404 620 375 584.5 c 128,-1,17
 346 549 346 549 300 523 c 128,-1,18
 254 497 254 497 188 489 c 1,19,-1
 170 583 l 1,0,1
EndSplineSet
EndChar

StartChar: quotedblleft
Encoding: 8220 8220 112
Width: 588
VWidth: 1177
Flags: W
LayerCount: 2
Fore
SplineSet
565 733 m 1,0,1
 543 728 543 728 522 723 c 128,-1,2
 501 718 501 718 482 710.5 c 128,-1,3
 463 703 463 703 448 689.5 c 128,-1,4
 433 676 433 676 425 654 c 1,5,6
 464 652 464 652 483.5 626.5 c 128,-1,7
 503 601 503 601 503 570 c 0,8,9
 503 529 503 529 476 507.5 c 128,-1,10
 449 486 449 486 417 486 c 0,11,12
 371 486 371 486 348.5 517 c 128,-1,13
 326 548 326 548 326 590 c 0,14,15
 326 624 326 624 340.5 662 c 128,-1,16
 355 700 355 700 382 731.5 c 128,-1,17
 409 763 409 763 450 785.5 c 128,-1,18
 491 808 491 808 545 812 c 1,19,-1
 565 733 l 1,0,1
289 733 m 1,20,21
 267 728 267 728 245 723 c 128,-1,22
 223 718 223 718 204 710.5 c 128,-1,23
 185 703 185 703 170 689.5 c 128,-1,24
 155 676 155 676 147 654 c 1,25,26
 187 652 187 652 206 626.5 c 128,-1,27
 225 601 225 601 225 570 c 0,28,29
 225 529 225 529 198 507.5 c 128,-1,30
 171 486 171 486 139 486 c 0,31,32
 93 486 93 486 70.5 517 c 128,-1,33
 48 548 48 548 48 590 c 0,34,35
 48 624 48 624 62.5 662 c 128,-1,36
 77 700 77 700 104 731.5 c 128,-1,37
 131 763 131 763 172 785.5 c 128,-1,38
 213 808 213 808 267 812 c 1,39,-1
 289 733 l 1,20,21
EndSplineSet
EndChar

StartChar: quotedblright
Encoding: 8221 8221 113
Width: 588
VWidth: 1177
Flags: W
LayerCount: 2
Fore
SplineSet
34 604 m 1,0,1
 56 609 56 609 78 613.5 c 128,-1,2
 100 618 100 618 119 626 c 128,-1,3
 138 634 138 634 152.5 647.5 c 128,-1,4
 167 661 167 661 176 683 c 1,5,6
 136 685 136 685 117 710.5 c 128,-1,7
 98 736 98 736 98 767 c 0,8,9
 98 808 98 808 125 829 c 128,-1,10
 152 850 152 850 184 850 c 0,11,12
 230 850 230 850 252 819.5 c 128,-1,13
 274 789 274 789 274 747 c 0,14,15
 274 713 274 713 260 675 c 128,-1,16
 246 637 246 637 219 605.5 c 128,-1,17
 192 574 192 574 151 552 c 128,-1,18
 110 530 110 530 55 527 c 1,19,-1
 34 604 l 1,0,1
312 604 m 1,20,21
 334 609 334 609 356 613.5 c 128,-1,22
 378 618 378 618 397 626 c 128,-1,23
 416 634 416 634 430.5 647.5 c 128,-1,24
 445 661 445 661 453 683 c 1,25,26
 413 685 413 685 394.5 710.5 c 128,-1,27
 376 736 376 736 376 767 c 0,28,29
 376 808 376 808 402.5 829 c 128,-1,30
 429 850 429 850 462 850 c 0,31,32
 508 850 508 850 530 819.5 c 128,-1,33
 552 789 552 789 552 747 c 0,34,35
 552 713 552 713 538 675 c 128,-1,36
 524 637 524 637 496.5 605.5 c 128,-1,37
 469 574 469 574 428.5 552 c 128,-1,38
 388 530 388 530 333 527 c 1,39,-1
 312 604 l 1,20,21
EndSplineSet
EndChar

StartChar: bullet
Encoding: 8226 8226 114
Width: 588
VWidth: 1177
Flags: W
LayerCount: 2
Fore
SplineSet
455 370 m 0,0,1
 455 336 455 336 443.5 306 c 128,-1,2
 432 276 432 276 411.5 252.5 c 128,-1,3
 391 229 391 229 361 215 c 128,-1,4
 331 201 331 201 294 201 c 0,5,6
 256 201 256 201 227 215 c 128,-1,7
 198 229 198 229 177.5 252.5 c 128,-1,8
 157 276 157 276 145.5 306 c 128,-1,9
 134 336 134 336 134 370 c 0,10,11
 134 403 134 403 145.5 433.5 c 128,-1,12
 157 464 157 464 177.5 487.5 c 128,-1,13
 198 511 198 511 227.5 524.5 c 128,-1,14
 257 538 257 538 294 538 c 256,15,16
 331 538 331 538 361 524.5 c 128,-1,17
 391 511 391 511 411.5 487.5 c 128,-1,18
 432 464 432 464 443.5 433.5 c 128,-1,19
 455 403 455 403 455 370 c 0,0,1
EndSplineSet
Substitution2: "'case' Case-Sensitive Forms lookup 17 subtable" Bullet
EndChar

StartChar: endash
Encoding: 8211 8211 115
Width: 588
VWidth: 1177
Flags: W
LayerCount: 2
Fore
SplineSet
64 369 m 1,0,-1
 527 369 l 1,1,-1
 527 260 l 1,2,-1
 64 260 l 1,3,-1
 64 369 l 1,0,-1
EndSplineSet
Substitution2: "'case' Case-Sensitive Forms lookup 17 subtable" Endash
EndChar

StartChar: emdash
Encoding: 8212 8212 116
Width: 588
VWidth: 1177
Flags: W
LayerCount: 2
Fore
SplineSet
0 369 m 1,0,-1
 589 369 l 1,1,-1
 589 260 l 1,2,-1
 0 260 l 1,3,-1
 0 369 l 1,0,-1
EndSplineSet
Substitution2: "'case' Case-Sensitive Forms lookup 17 subtable" Emdash
EndChar

StartChar: tilde
Encoding: 732 732 117
Width: 588
VWidth: 1177
Flags: W
LayerCount: 2
Fore
SplineSet
488 746 m 1,0,1
 482 730 482 730 470.5 711.5 c 128,-1,2
 459 693 459 693 443.5 676.5 c 128,-1,3
 428 660 428 660 408 649 c 128,-1,4
 388 638 388 638 364 638 c 0,5,6
 345 638 345 638 329 644 c 128,-1,7
 313 650 313 650 297.5 656.5 c 128,-1,8
 282 663 282 663 266 669 c 128,-1,9
 250 675 250 675 232 675 c 0,10,11
 212 675 212 675 198.5 661.5 c 128,-1,12
 185 648 185 648 176 630 c 1,13,-1
 106 676 l 1,14,15
 112 692 112 692 123 711 c 128,-1,16
 134 730 134 730 150 746.5 c 128,-1,17
 166 763 166 763 186 773.5 c 128,-1,18
 206 784 206 784 231 784 c 0,19,20
 250 784 250 784 266 778.5 c 128,-1,21
 282 773 282 773 297.5 766.5 c 128,-1,22
 313 760 313 760 328.5 754 c 128,-1,23
 344 748 344 748 362 748 c 0,24,25
 382 748 382 748 396 761 c 128,-1,26
 410 774 410 774 418 792 c 1,27,-1
 488 746 l 1,0,1
EndSplineSet
EndChar

StartChar: trademark
Encoding: 8482 8482 118
Width: 588
VWidth: 1177
Flags: W
LayerCount: 2
Fore
SplineSet
240 729 m 1,0,-1
 240 670 l 1,1,-1
 165 670 l 1,2,-1
 165 420 l 1,3,-1
 97 420 l 1,4,-1
 97 670 l 1,5,-1
 21 670 l 1,6,-1
 21 729 l 1,7,-1
 240 729 l 1,0,-1
384 502 m 1,8,-1
 338 638 l 1,9,10
 336 614 336 614 334.5 579 c 128,-1,11
 333 544 333 544 332.5 510.5 c 128,-1,12
 332 477 332 477 331.5 451 c 128,-1,13
 331 425 331 425 331 420 c 1,14,-1
 263 420 l 1,15,16
 267 479 267 479 270 523 c 128,-1,17
 273 567 273 567 277.5 602 c 128,-1,18
 282 637 282 637 286 667 c 128,-1,19
 290 697 290 697 296 729 c 1,20,-1
 359 729 l 1,21,-1
 411 569 l 1,22,-1
 466 729 l 1,23,-1
 530 729 l 1,24,25
 536 697 536 697 540 666.5 c 128,-1,26
 544 636 544 636 547.5 600.5 c 128,-1,27
 551 565 551 565 554 521.5 c 128,-1,28
 557 478 557 478 561 420 c 1,29,-1
 492 420 l 1,30,31
 492 425 492 425 491.5 451 c 128,-1,32
 491 477 491 477 490.5 510.5 c 128,-1,33
 490 544 490 544 489 579.5 c 128,-1,34
 488 615 488 615 486 638 c 1,35,-1
 437 502 l 1,36,-1
 384 502 l 1,8,-1
EndSplineSet
EndChar

StartChar: guilsinglright
Encoding: 8250 8250 120
Width: 588
VWidth: 1177
Flags: W
LayerCount: 2
Fore
SplineSet
183 496 m 1,0,-1
 302 551 l 1,1,-1
 475 299 l 1,2,-1
 302 46 l 1,3,-1
 183 102 l 1,4,-1
 290 299 l 1,5,-1
 183 496 l 1,0,-1
EndSplineSet
Substitution2: "'case' Case-Sensitive Forms lookup 17 subtable" Guilsinglright
EndChar

StartChar: oe
Encoding: 339 339 121
Width: 588
VWidth: 1177
Flags: W
LayerCount: 2
Fore
SplineSet
26 278 m 0,0,1
 26 426 26 426 71.5 497 c 128,-1,2
 117 568 117 568 194 568 c 0,3,4
 227 568 227 568 258.5 548.5 c 128,-1,5
 290 529 290 529 310 491 c 1,6,7
 332 528 332 528 359 548 c 128,-1,8
 386 568 386 568 417 568 c 0,9,10
 451 568 451 568 480 553.5 c 128,-1,11
 509 539 509 539 530 507.5 c 128,-1,12
 551 476 551 476 563 424 c 128,-1,13
 575 372 575 372 575 297 c 0,14,15
 575 283 575 283 574.5 261 c 128,-1,16
 574 239 574 239 572 230 c 1,17,-1
 362 230 l 1,18,19
 363 197 363 197 371 174 c 128,-1,20
 379 151 379 151 392 136 c 128,-1,21
 405 121 405 121 421.5 114.5 c 128,-1,22
 438 108 438 108 457 108 c 0,23,24
 478 108 478 108 498.5 113.5 c 128,-1,25
 519 119 519 119 536 128 c 1,26,-1
 557 14 l 1,27,28
 530 0 530 0 503.5 -6.5 c 128,-1,29
 477 -13 477 -13 442 -13 c 0,30,31
 394 -13 394 -13 362 9 c 128,-1,32
 330 31 330 31 310 61 c 1,33,34
 292 30 292 30 264 8.5 c 128,-1,35
 236 -13 236 -13 194 -13 c 0,36,37
 108 -13 108 -13 67 61 c 128,-1,38
 26 135 26 135 26 278 c 0,0,1
137 278 m 0,39,40
 137 184 137 184 154 146 c 128,-1,41
 171 108 171 108 194 108 c 256,42,43
 218 108 218 108 234.5 145.5 c 128,-1,44
 251 183 251 183 251 278 c 0,45,46
 251 372 251 372 234 410 c 128,-1,47
 217 448 217 448 193 448 c 256,48,49
 169 448 169 448 153 410.5 c 128,-1,50
 137 373 137 373 137 278 c 0,39,40
417 452 m 256,51,52
 402 452 402 452 392 441 c 128,-1,53
 382 430 382 430 375.5 412.5 c 128,-1,54
 369 395 369 395 366 373 c 128,-1,55
 363 351 363 351 363 330 c 1,56,-1
 466 330 l 1,57,58
 466 352 466 352 464 374.5 c 128,-1,59
 462 397 462 397 456.5 414 c 128,-1,60
 451 431 451 431 441.5 441.5 c 128,-1,61
 432 452 432 452 417 452 c 256,51,52
EndSplineSet
Substitution2: "'case' Case-Sensitive Forms lookup 18 subtable" OE
EndChar

StartChar: exclamdown
Encoding: 161 161 124
Width: 588
VWidth: 1177
Flags: W
LayerCount: 2
Fore
SplineSet
211 -1 m 2,0,1
 211 41 211 41 212.5 74.5 c 128,-1,2
 214 108 214 108 217 139 c 128,-1,3
 220 170 220 170 224.5 200.5 c 128,-1,4
 229 231 229 231 233 269 c 1,5,-1
 353 269 l 1,6,7
 358 231 358 231 362.5 200.5 c 128,-1,8
 367 170 367 170 371 139 c 128,-1,9
 375 108 375 108 376.5 74.5 c 128,-1,10
 378 41 378 41 378 -1 c 2,11,-1
 378 -194 l 1,12,-1
 211 -194 l 1,13,-1
 211 -1 l 2,0,1
197 451 m 256,14,15
 197 497 197 497 227 522.5 c 128,-1,16
 257 548 257 548 294 548 c 256,17,18
 332 548 332 548 362 522.5 c 128,-1,19
 392 497 392 497 392 451 c 256,20,21
 392 405 392 405 362 380 c 128,-1,22
 332 355 332 355 294 355 c 256,23,24
 256 355 256 355 226.5 380 c 128,-1,25
 197 405 197 405 197 451 c 256,14,15
EndSplineSet
Substitution2: "'case' Case-Sensitive Forms lookup 17 subtable" Exclamdown
EndChar

StartChar: cent
Encoding: 162 162 125
Width: 588
VWidth: 1177
Flags: W
LayerCount: 2
Fore
SplineSet
54 309 m 0,0,1
 54 409 54 409 106.5 481.5 c 128,-1,2
 159 554 159 554 272 577 c 1,3,-1
 272 728 l 1,4,-1
 418 728 l 1,5,-1
 418 583 l 1,6,7
 446 581 446 581 472.5 574 c 128,-1,8
 499 567 499 567 527 556 c 1,9,-1
 496 433 l 1,10,11
 474 441 474 441 446 448 c 128,-1,12
 418 455 418 455 376 455 c 0,13,14
 278 455 278 455 240.5 417.5 c 128,-1,15
 203 380 203 380 203 309 c 256,16,17
 203 238 203 238 243.5 200.5 c 128,-1,18
 284 163 284 163 382 163 c 0,19,20
 416 163 416 163 451 167.5 c 128,-1,21
 486 172 486 172 516 181 c 1,22,-1
 536 57 l 1,23,24
 514 48 514 48 484.5 41.5 c 128,-1,25
 455 35 455 35 418 33 c 1,26,-1
 418 -114 l 1,27,-1
 272 -114 l 1,28,-1
 272 39 l 1,29,30
 215 50 215 50 174 74.5 c 128,-1,31
 133 99 133 99 106.5 134.5 c 128,-1,32
 80 170 80 170 67 215 c 128,-1,33
 54 260 54 260 54 309 c 0,0,1
EndSplineSet
EndChar

StartChar: sterling
Encoding: 163 163 126
Width: 588
VWidth: 1177
Flags: W
LayerCount: 2
Fore
SplineSet
276 409 m 1,0,-1
 450 409 l 1,1,-1
 450 290 l 1,2,-1
 276 290 l 1,3,4
 276 271 276 271 274.5 248.5 c 128,-1,5
 273 226 273 226 271.5 203 c 128,-1,6
 270 180 270 180 267.5 159 c 128,-1,7
 265 138 265 138 261 120 c 1,8,-1
 536 120 l 1,9,-1
 536 0 l 1,10,-1
 102 0 l 1,11,12
 121 85 121 85 127 157.5 c 128,-1,13
 133 230 133 230 135 290 c 1,14,-1
 45 290 l 1,15,-1
 45 409 l 1,16,-1
 135 409 l 1,17,-1
 135 470 l 2,18,19
 135 549 135 549 152.5 601.5 c 128,-1,20
 170 654 170 654 200.5 685.5 c 128,-1,21
 231 717 231 717 275 730 c 128,-1,22
 319 743 319 743 375 743 c 0,23,24
 416 743 416 743 453 735 c 128,-1,25
 490 727 490 727 525 711 c 1,26,-1
 486 596 l 1,27,28
 461 609 461 609 440 613.5 c 128,-1,29
 419 618 419 618 389 620 c 0,30,31
 364 620 364 620 343 614.5 c 128,-1,32
 322 609 322 609 307 594.5 c 128,-1,33
 292 580 292 580 284 555 c 128,-1,34
 276 530 276 530 276 491 c 2,35,-1
 276 409 l 1,0,-1
EndSplineSet
EndChar

StartChar: currency
Encoding: 164 164 127
Width: 588
VWidth: 1177
Flags: W
LayerCount: 2
Fore
SplineSet
296 572 m 0,0,1
 348 572 348 572 392 554 c 1,2,-1
 470 628 l 1,3,-1
 568 532 l 1,4,-1
 492 459 l 1,5,6
 514 417 514 417 515 365 c 256,7,8
 515 313 515 313 492 271 c 1,9,-1
 568 198 l 1,10,-1
 469 101 l 1,11,-1
 391 177 l 1,12,13
 369 166 369 166 346 162 c 128,-1,14
 323 158 323 158 296 158 c 256,15,16
 269 158 269 158 246 162 c 128,-1,17
 223 166 223 166 199 177 c 1,18,-1
 121 102 l 1,19,-1
 24 198 l 1,20,-1
 99 271 l 1,21,22
 77 311 77 311 77 365 c 256,23,24
 77 419 77 419 99 459 c 1,25,-1
 24 532 l 1,26,-1
 122 629 l 1,27,-1
 200 554 l 1,28,29
 243 572 243 572 296 572 c 0,0,1
382 365 m 256,30,31
 382 410 382 410 356.5 433.5 c 128,-1,32
 331 457 331 457 296 457 c 256,33,34
 261 457 261 457 235.5 433.5 c 128,-1,35
 210 410 210 410 210 365 c 256,36,37
 210 320 210 320 235 296.5 c 128,-1,38
 260 273 260 273 296 273 c 256,39,40
 331 273 331 273 356.5 296.5 c 128,-1,41
 382 320 382 320 382 365 c 256,30,31
EndSplineSet
EndChar

StartChar: yen
Encoding: 165 165 128
Width: 588
VWidth: 1177
Flags: W
LayerCount: 2
Fore
SplineSet
528 122 m 1,0,-1
 369 122 l 1,1,-1
 369 0 l 1,2,-1
 223 0 l 1,3,-1
 223 122 l 1,4,-1
 62 122 l 1,5,-1
 62 221 l 1,6,-1
 223 221 l 1,7,-1
 223 294 l 1,8,-1
 62 294 l 1,9,-1
 62 393 l 1,10,-1
 181 393 l 1,11,12
 159 433 159 433 135 477.5 c 128,-1,13
 111 522 111 522 88.5 566 c 128,-1,14
 66 610 66 610 46.5 652 c 128,-1,15
 27 694 27 694 15 729 c 1,16,-1
 171 729 l 1,17,18
 196 654 196 654 226 577.5 c 128,-1,19
 256 501 256 501 298 416 c 1,20,21
 382 583 382 583 425 729 c 1,22,-1
 575 729 l 1,23,24
 562 695 562 695 544.5 653 c 128,-1,25
 527 611 527 611 506 566.5 c 128,-1,26
 485 522 485 522 462 477.5 c 128,-1,27
 439 433 439 433 417 393 c 1,28,-1
 528 393 l 1,29,-1
 528 294 l 1,30,-1
 369 294 l 1,31,-1
 369 221 l 1,32,-1
 528 221 l 1,33,-1
 528 122 l 1,0,-1
EndSplineSet
EndChar

StartChar: brokenbar
Encoding: 166 166 129
Width: 588
VWidth: 1177
Flags: W
LayerCount: 2
Fore
SplineSet
223 223 m 1,0,-1
 369 223 l 1,1,-1
 369 -194 l 1,2,-1
 223 -194 l 1,3,-1
 223 223 l 1,0,-1
223 823 m 1,4,-1
 369 823 l 1,5,-1
 369 406 l 1,6,-1
 223 406 l 1,7,-1
 223 823 l 1,4,-1
EndSplineSet
EndChar

StartChar: section
Encoding: 167 167 130
Width: 588
VWidth: 1177
Flags: W
LayerCount: 2
Fore
SplineSet
97 47 m 1,0,1
 121 38 121 38 142 31 c 128,-1,2
 163 24 163 24 184 18.5 c 128,-1,3
 205 13 205 13 228.5 10.5 c 128,-1,4
 252 8 252 8 280 8 c 0,5,6
 319 8 319 8 339.5 21.5 c 128,-1,7
 360 35 360 35 360 58 c 0,8,9
 360 77 360 77 338.5 91.5 c 128,-1,10
 317 106 317 106 264 122 c 0,11,12
 223 136 223 136 187 152 c 128,-1,13
 151 168 151 168 124 190.5 c 128,-1,14
 97 213 97 213 81 242.5 c 128,-1,15
 65 272 65 272 65 313 c 0,16,17
 65 355 65 355 83.5 393 c 128,-1,18
 102 431 102 431 147 473 c 1,19,20
 125 493 125 493 111.5 519 c 128,-1,21
 98 545 98 545 98 575 c 0,22,23
 98 656 98 656 157 701.5 c 128,-1,24
 216 747 216 747 326 747 c 0,25,26
 373 747 373 747 424 735.5 c 128,-1,27
 475 724 475 724 516 708 c 1,28,-1
 477 592 l 1,29,30
 444 605 444 605 408 614 c 128,-1,31
 372 623 372 623 325 623 c 0,32,33
 277 623 277 623 264 609 c 128,-1,34
 251 595 251 595 251 577 c 0,35,36
 251 556 251 556 268 542 c 128,-1,37
 285 528 285 528 335 514 c 0,38,39
 529 457 529 457 529 324 c 0,40,41
 529 279 529 279 510.5 246 c 128,-1,42
 492 213 492 213 455 178 c 1,43,44
 484 151 484 151 499 124.5 c 128,-1,45
 514 98 514 98 514 57 c 0,46,47
 514 -31 514 -31 455 -73 c 128,-1,48
 396 -115 396 -115 289 -115 c 0,49,50
 208 -115 208 -115 151 -101 c 128,-1,51
 94 -87 94 -87 58 -68 c 1,52,-1
 97 47 l 1,0,1
241 418 m 1,53,54
 220 402 220 402 206.5 377.5 c 128,-1,55
 193 353 193 353 193 336 c 0,56,57
 193 316 193 316 198.5 300.5 c 128,-1,58
 204 285 204 285 221 272 c 128,-1,59
 238 259 238 259 269 245.5 c 128,-1,60
 300 232 300 232 353 216 c 1,61,62
 374 234 374 234 387 257 c 128,-1,63
 400 280 400 280 400 298 c 0,64,65
 400 319 400 319 394.5 334 c 128,-1,66
 389 349 389 349 371 361 c 128,-1,67
 353 373 353 373 321.5 386.5 c 128,-1,68
 290 400 290 400 241 418 c 1,53,54
EndSplineSet
EndChar

StartChar: dieresis
Encoding: 168 168 131
Width: 588
VWidth: 1177
Flags: W
LayerCount: 2
Fore
SplineSet
179 634 m 0,0,1
 146 634 146 634 122 654.5 c 128,-1,2
 98 675 98 675 98 713 c 256,3,4
 98 751 98 751 122 772 c 128,-1,5
 146 793 146 793 179 793 c 0,6,7
 211 793 211 793 235.5 771.5 c 128,-1,8
 260 750 260 750 260 713 c 256,9,10
 260 675 260 675 235.5 654.5 c 128,-1,11
 211 634 211 634 179 634 c 0,0,1
413 634 m 256,12,13
 380 634 380 634 356 654.5 c 128,-1,14
 332 675 332 675 332 713 c 256,15,16
 332 751 332 751 356 772 c 128,-1,17
 380 793 380 793 413 793 c 256,18,19
 446 793 446 793 470.5 771.5 c 128,-1,20
 495 750 495 750 495 713 c 256,21,22
 495 675 495 675 470.5 654.5 c 128,-1,23
 446 634 446 634 413 634 c 256,12,13
EndSplineSet
EndChar

StartChar: copyright
Encoding: 169 169 132
Width: 588
VWidth: 1177
Flags: W
LayerCount: 2
Fore
SplineSet
385 141 m 1,0,1
 365 132 365 132 343.5 127 c 128,-1,2
 322 122 322 122 302 122 c 0,3,4
 268 122 268 122 242.5 134.5 c 128,-1,5
 217 147 217 147 200.5 167.5 c 128,-1,6
 184 188 184 188 175.5 214.5 c 128,-1,7
 167 241 167 241 167 270 c 256,8,9
 167 298 167 298 175.5 325 c 128,-1,10
 184 352 184 352 200.5 373.5 c 128,-1,11
 217 395 217 395 242 407.5 c 128,-1,12
 267 420 267 420 303 420 c 0,13,14
 322 420 322 420 342.5 417.5 c 128,-1,15
 363 415 363 415 383 405 c 1,16,-1
 359 342 l 1,17,18
 346 348 346 348 333 349.5 c 128,-1,19
 320 351 320 351 310 351 c 0,20,21
 272 351 272 351 256 327.5 c 128,-1,22
 240 304 240 304 240 274 c 0,23,24
 240 236 240 236 259.5 214.5 c 128,-1,25
 279 193 279 193 314 193 c 0,26,27
 325 193 325 193 338.5 195.5 c 128,-1,28
 352 198 352 198 365 204 c 1,29,-1
 385 141 l 1,0,1
29 272 m 256,30,31
 29 344 29 344 51.5 398 c 128,-1,32
 74 452 74 452 111 488 c 128,-1,33
 148 524 148 524 196 541.5 c 128,-1,34
 244 559 244 559 296 559 c 0,35,36
 347 559 347 559 395 541.5 c 128,-1,37
 443 524 443 524 480 488 c 128,-1,38
 517 452 517 452 539.5 398 c 128,-1,39
 562 344 562 344 562 272 c 256,40,41
 562 200 562 200 539.5 146.5 c 128,-1,42
 517 93 517 93 480 57 c 128,-1,43
 443 21 443 21 394.5 3 c 128,-1,44
 346 -15 346 -15 296 -15 c 0,45,46
 244 -15 244 -15 196 3 c 128,-1,47
 148 21 148 21 111 57 c 128,-1,48
 74 93 74 93 51.5 146.5 c 128,-1,49
 29 200 29 200 29 272 c 256,30,31
294 60 m 256,50,51
 329 60 329 60 362.5 73.5 c 128,-1,52
 396 87 396 87 422.5 114 c 128,-1,53
 449 141 449 141 465 181 c 128,-1,54
 481 221 481 221 481 273 c 0,55,56
 481 324 481 324 465 363.5 c 128,-1,57
 449 403 449 403 423 430 c 128,-1,58
 397 457 397 457 363.5 471 c 128,-1,59
 330 485 330 485 294 485 c 256,60,61
 259 485 259 485 226 471 c 128,-1,62
 193 457 193 457 166.5 430 c 128,-1,63
 140 403 140 403 124 363.5 c 128,-1,64
 108 324 108 324 108 273 c 0,65,66
 108 221 108 221 124 181 c 128,-1,67
 140 141 140 141 166.5 114 c 128,-1,68
 193 87 193 87 226 73.5 c 128,-1,69
 259 60 259 60 294 60 c 256,50,51
EndSplineSet
EndChar

StartChar: ordfeminine
Encoding: 170 170 133
Width: 588
VWidth: 1177
Flags: W
LayerCount: 2
Fore
SplineSet
309 413 m 0,0,1
 325 413 325 413 340.5 414.5 c 128,-1,2
 356 416 356 416 365 417 c 1,3,-1
 365 498 l 1,4,5
 358 500 358 500 344.5 502 c 128,-1,6
 331 504 331 504 319 504 c 0,7,8
 287 504 287 504 263.5 495 c 128,-1,9
 240 486 240 486 240 459 c 256,10,11
 240 432 240 432 259 422.5 c 128,-1,12
 278 413 278 413 309 413 c 0,0,1
299 744 m 0,13,14
 350 744 350 744 384 733 c 128,-1,15
 418 722 418 722 438.5 701.5 c 128,-1,16
 459 681 459 681 468 651 c 128,-1,17
 477 621 477 621 477 584 c 2,18,-1
 477 345 l 1,19,20
 453 339 453 339 407.5 331.5 c 128,-1,21
 362 324 362 324 300 324 c 0,22,23
 218 324 218 324 170 354 c 128,-1,24
 122 384 122 384 122 457 c 0,25,26
 122 492 122 492 136.5 516.5 c 128,-1,27
 151 541 151 541 175 555 c 128,-1,28
 199 569 199 569 231 575.5 c 128,-1,29
 263 582 263 582 298 582 c 0,30,31
 319 582 319 582 335.5 579.5 c 128,-1,32
 352 577 352 577 365 575 c 1,33,-1
 365 585 l 2,34,35
 365 614 365 614 347.5 631 c 128,-1,36
 330 648 330 648 286 648 c 0,37,38
 257 648 257 648 227.5 644 c 128,-1,39
 198 640 198 640 177 633 c 1,40,-1
 161 726 l 1,41,42
 181 732 181 732 220.5 738 c 128,-1,43
 260 744 260 744 299 744 c 0,13,14
EndSplineSet
EndChar

StartChar: guillemotleft
Encoding: 171 171 134
Width: 588
VWidth: 1177
Flags: W
LayerCount: 2
Fore
SplineSet
219 544 m 1,0,-1
 296 497 l 1,1,-1
 185 300 l 1,2,-1
 296 104 l 1,3,-1
 221 54 l 1,4,-1
 59 300 l 1,5,-1
 219 544 l 1,0,-1
453 544 m 1,6,-1
 531 497 l 1,7,-1
 422 300 l 1,8,-1
 531 104 l 1,9,-1
 456 54 l 1,10,-1
 296 300 l 1,11,-1
 453 544 l 1,6,-1
EndSplineSet
Substitution2: "'case' Case-Sensitive Forms lookup 17 subtable" Guillemotleft
EndChar

StartChar: logicalnot
Encoding: 172 172 135
Width: 588
VWidth: 1177
Flags: W
LayerCount: 2
Fore
SplineSet
528 49 m 1,0,-1
 404 49 l 1,1,-1
 404 307 l 1,2,-1
 53 307 l 1,3,-1
 53 428 l 1,4,-1
 528 428 l 1,5,-1
 528 49 l 1,0,-1
EndSplineSet
EndChar

StartChar: registered
Encoding: 174 174 137
Width: 588
VWidth: 1177
Flags: W
LayerCount: 2
Fore
SplineSet
259 220 m 1,0,-1
 259 130 l 1,1,-1
 196 130 l 1,2,-1
 196 410 l 1,3,4
 212 415 212 415 232 417.5 c 128,-1,5
 252 420 252 420 274 420 c 0,6,7
 341 420 341 420 373.5 394.5 c 128,-1,8
 406 369 406 369 406 319 c 0,9,10
 406 262 406 262 359 236 c 1,11,12
 373 216 373 216 388.5 188 c 128,-1,13
 404 160 404 160 419 130 c 1,14,-1
 352 130 l 1,15,16
 337 158 337 158 325 179.5 c 128,-1,17
 313 201 313 201 302 220 c 1,18,-1
 259 220 l 1,0,-1
259 279 m 1,19,-1
 280 279 l 2,20,21
 312 279 312 279 327.5 287.5 c 128,-1,22
 343 296 343 296 343 323 c 0,23,24
 343 347 343 347 324 354.5 c 128,-1,25
 305 362 305 362 285 362 c 0,26,27
 278 362 278 362 271.5 361 c 128,-1,28
 265 360 265 360 259 359 c 1,29,-1
 259 279 l 1,19,-1
29 272 m 256,30,31
 29 344 29 344 51.5 398 c 128,-1,32
 74 452 74 452 111 488 c 128,-1,33
 148 524 148 524 196 541.5 c 128,-1,34
 244 559 244 559 296 559 c 0,35,36
 347 559 347 559 395 541.5 c 128,-1,37
 443 524 443 524 480 488 c 128,-1,38
 517 452 517 452 539.5 398 c 128,-1,39
 562 344 562 344 562 272 c 256,40,41
 562 200 562 200 539.5 146.5 c 128,-1,42
 517 93 517 93 480 57 c 128,-1,43
 443 21 443 21 394.5 3 c 128,-1,44
 346 -15 346 -15 296 -15 c 0,45,46
 244 -15 244 -15 196 3 c 128,-1,47
 148 21 148 21 111 57 c 128,-1,48
 74 93 74 93 51.5 146.5 c 128,-1,49
 29 200 29 200 29 272 c 256,30,31
294 60 m 256,50,51
 329 60 329 60 362.5 73.5 c 128,-1,52
 396 87 396 87 422.5 114 c 128,-1,53
 449 141 449 141 465 181 c 128,-1,54
 481 221 481 221 481 273 c 0,55,56
 481 324 481 324 465 363.5 c 128,-1,57
 449 403 449 403 423 430 c 128,-1,58
 397 457 397 457 363.5 471 c 128,-1,59
 330 485 330 485 294 485 c 256,60,61
 259 485 259 485 226 471 c 128,-1,62
 193 457 193 457 166.5 430 c 128,-1,63
 140 403 140 403 124 363.5 c 128,-1,64
 108 324 108 324 108 273 c 0,65,66
 108 221 108 221 124 181 c 128,-1,67
 140 141 140 141 166.5 114 c 128,-1,68
 193 87 193 87 226 73.5 c 128,-1,69
 259 60 259 60 294 60 c 256,50,51
EndSplineSet
EndChar

StartChar: macron
Encoding: 175 175 138
Width: 588
VWidth: 1177
Flags: W
LayerCount: 2
Fore
SplineSet
127 762 m 1,0,-1
 466 762 l 1,1,-1
 466 660 l 1,2,-1
 127 660 l 1,3,-1
 127 762 l 1,0,-1
EndSplineSet
EndChar

StartChar: degree
Encoding: 176 176 139
Width: 588
VWidth: 1177
Flags: W
LayerCount: 2
Fore
SplineSet
297 822 m 0,0,1
 334 822 334 822 365 811 c 128,-1,2
 396 800 396 800 418.5 778.5 c 128,-1,3
 441 757 441 757 453.5 726.5 c 128,-1,4
 466 696 466 696 466 658 c 256,5,6
 466 620 466 620 453.5 590.5 c 128,-1,7
 441 561 441 561 418.5 539.5 c 128,-1,8
 396 518 396 518 364.5 507 c 128,-1,9
 333 496 333 496 297 496 c 0,10,11
 219 496 219 496 173 539 c 128,-1,12
 127 582 127 582 127 658 c 256,13,14
 127 735 127 735 174.5 778.5 c 128,-1,15
 222 822 222 822 297 822 c 0,0,1
297 595 m 256,16,17
 324 595 324 595 342 611 c 128,-1,18
 360 627 360 627 360 660 c 256,19,20
 360 693 360 693 342 708 c 128,-1,21
 324 723 324 723 297 723 c 256,22,23
 270 723 270 723 251 708 c 128,-1,24
 232 693 232 693 232 660 c 256,25,26
 232 627 232 627 251 611 c 128,-1,27
 270 595 270 595 297 595 c 256,16,17
EndSplineSet
EndChar

StartChar: plusminus
Encoding: 177 177 140
Width: 588
VWidth: 1177
Flags: W
LayerCount: 2
Fore
SplineSet
47 120 m 1,0,-1
 542 120 l 1,1,-1
 542 0 l 1,2,-1
 47 0 l 1,3,-1
 47 120 l 1,0,-1
47 473 m 1,4,-1
 232 473 l 1,5,-1
 232 657 l 1,6,-1
 357 657 l 1,7,-1
 357 473 l 1,8,-1
 542 473 l 1,9,-1
 542 353 l 1,10,-1
 357 353 l 1,11,-1
 357 168 l 1,12,-1
 232 168 l 1,13,-1
 232 353 l 1,14,-1
 47 353 l 1,15,-1
 47 473 l 1,4,-1
EndSplineSet
EndChar

StartChar: twosuperior
Encoding: 178 178 141
Width: 588
VWidth: 1177
Flags: W
LayerCount: 2
Fore
SplineSet
444 616 m 0,0,1
 444 570 444 570 417 539 c 128,-1,2
 390 508 390 508 358 481 c 0,3,4
 339 466 339 466 321 448 c 128,-1,5
 303 430 303 430 290 413 c 1,6,-1
 455 413 l 1,7,-1
 455 318 l 1,8,-1
 152 318 l 1,9,-1
 152 347 l 2,10,11
 152 399 152 399 179.5 440.5 c 128,-1,12
 207 482 207 482 260 527 c 0,13,14
 289 552 289 552 306.5 569.5 c 128,-1,15
 324 587 324 587 324 605 c 0,16,17
 324 621 324 621 314.5 631 c 128,-1,18
 305 641 305 641 287 641 c 0,19,20
 256 641 256 641 230.5 629 c 128,-1,21
 205 617 205 617 187 602 c 1,22,-1
 133 683 l 1,23,24
 160 707 160 707 202.5 726.5 c 128,-1,25
 245 746 245 746 292 746 c 0,26,27
 374 746 374 746 409 710 c 128,-1,28
 444 674 444 674 444 616 c 0,0,1
EndSplineSet
Substitution2: "Single Substitution lookup 22 subtable" twoinferior
Substitution2: "'sinf' Scientific Inferiors lookup 11 subtable" two.sinf
Substitution2: "'subs' Subscript lookup 10 subtable" two.sinf
Substitution2: "'sups' Superscript lookup 9 subtable" two.sups
Substitution2: "'dnom' Denominators lookup 8 subtable" twoinferior
EndChar

StartChar: threesuperior
Encoding: 179 179 142
Width: 588
VWidth: 1177
Flags: W
LayerCount: 2
Fore
SplineSet
272 408 m 0,0,1
 310 408 310 408 324.5 419.5 c 128,-1,2
 339 431 339 431 339 448 c 0,3,4
 339 490 339 490 265 490 c 2,5,-1
 221 490 l 1,6,-1
 221 576 l 1,7,-1
 265 576 l 2,8,9
 290 576 290 576 305 585.5 c 128,-1,10
 320 595 320 595 320 615 c 0,11,12
 320 648 320 648 274 648 c 0,13,14
 249 648 249 648 226 639.5 c 128,-1,15
 203 631 203 631 180 622 c 1,16,-1
 140 704 l 1,17,18
 166 720 166 720 205.5 733 c 128,-1,19
 245 746 245 746 283 746 c 0,20,21
 325 746 325 746 354 736.5 c 128,-1,22
 383 727 383 727 400.5 711 c 128,-1,23
 418 695 418 695 425 673 c 128,-1,24
 432 651 432 651 432 628 c 0,25,26
 432 606 432 606 422 586.5 c 128,-1,27
 412 567 412 567 389 547 c 1,28,29
 423 532 423 532 437.5 505 c 128,-1,30
 452 478 452 478 452 446 c 0,31,32
 452 417 452 417 442.5 392 c 128,-1,33
 433 367 433 367 412 349 c 128,-1,34
 391 331 391 331 357 320.5 c 128,-1,35
 323 310 323 310 273 310 c 0,36,37
 238 310 238 310 197.5 317.5 c 128,-1,38
 157 325 157 325 133 338 c 1,39,-1
 158 431 l 1,40,41
 193 416 193 416 218 412 c 128,-1,42
 243 408 243 408 272 408 c 0,0,1
EndSplineSet
Substitution2: "Single Substitution lookup 22 subtable" threeinferior
Substitution2: "'sinf' Scientific Inferiors lookup 11 subtable" three.sinf
Substitution2: "'subs' Subscript lookup 10 subtable" three.sinf
Substitution2: "'sups' Superscript lookup 9 subtable" three.sups
Substitution2: "'dnom' Denominators lookup 8 subtable" threeinferior
EndChar

StartChar: acute
Encoding: 180 180 143
Width: 588
VWidth: 1177
Flags: W
LayerCount: 2
Fore
SplineSet
437 703 m 1,0,-1
 232 604 l 1,1,-1
 179 683 l 1,2,-1
 365 814 l 1,3,-1
 437 703 l 1,0,-1
EndSplineSet
EndChar

StartChar: mu
Encoding: 181 181 144
Width: 588
VWidth: 1177
Flags: W
LayerCount: 2
Fore
SplineSet
214 554 m 1,0,-1
 214 252 l 2,1,2
 214 211 214 211 220 184.5 c 128,-1,3
 226 158 226 158 237.5 142 c 128,-1,4
 249 126 249 126 266 119.5 c 128,-1,5
 283 113 283 113 305 113 c 0,6,7
 321 113 321 113 338.5 115 c 128,-1,8
 356 117 356 117 370 119 c 1,9,-1
 370 554 l 1,10,-1
 516 554 l 1,11,-1
 516 19 l 1,12,13
 478 8 478 8 422.5 -2.5 c 128,-1,14
 367 -13 367 -13 307 -13 c 0,15,16
 288 -13 288 -13 260 -7.5 c 128,-1,17
 232 -2 232 -2 207 5 c 1,18,19
 209 -20 209 -20 211.5 -43 c 128,-1,20
 214 -66 214 -66 214 -97 c 2,21,-1
 214 -194 l 1,22,-1
 69 -194 l 1,23,-1
 69 554 l 1,24,-1
 214 554 l 1,0,-1
EndSplineSet
EndChar

StartChar: paragraph
Encoding: 182 182 145
Width: 588
VWidth: 1177
Flags: W
LayerCount: 2
Fore
SplineSet
203 273 m 1,0,1
 113 293 113 293 67.5 346.5 c 128,-1,2
 22 400 22 400 22 503 c 0,3,4
 22 560 22 560 43 603.5 c 128,-1,5
 64 647 64 647 102 677 c 128,-1,6
 140 707 140 707 194.5 722 c 128,-1,7
 249 737 249 737 316 737 c 0,8,9
 373 737 373 737 432 730.5 c 128,-1,10
 491 724 491 724 536 713 c 1,11,-1
 536 -194 l 1,12,-1
 417 -194 l 1,13,-1
 417 615 l 1,14,15
 405 617 405 617 377 618.5 c 128,-1,16
 349 620 349 620 323 617 c 1,17,-1
 323 -194 l 1,18,-1
 203 -194 l 1,19,-1
 203 273 l 1,0,1
EndSplineSet
EndChar

StartChar: cedilla
Encoding: 184 184 147
Width: 588
VWidth: 1177
Flags: W
LayerCount: 2
Fore
SplineSet
353 -28 m 1,0,1
 392 -40 392 -40 407.5 -63 c 128,-1,2
 423 -86 423 -86 423 -107 c 0,3,4
 423 -134 423 -134 410.5 -152 c 128,-1,5
 398 -170 398 -170 378.5 -180.5 c 128,-1,6
 359 -191 359 -191 333 -195.5 c 128,-1,7
 307 -200 307 -200 282 -200 c 0,8,9
 229 -200 229 -200 187 -187 c 1,10,-1
 203 -113 l 1,11,12
 210 -115 210 -115 230 -119.5 c 128,-1,13
 250 -124 250 -124 269 -124 c 0,14,15
 317 -124 317 -124 317 -94 c 0,16,17
 317 -72 317 -72 274 -58 c 2,18,-1
 251 -51 l 1,19,20
 257 -31 257 -31 267 -9.5 c 128,-1,21
 277 12 277 12 283 21 c 1,22,-1
 377 21 l 1,23,24
 371 8 371 8 365 -3.5 c 128,-1,25
 359 -15 359 -15 353 -28 c 1,0,1
EndSplineSet
EndChar

StartChar: onesuperior
Encoding: 185 185 148
Width: 588
VWidth: 1177
Flags: W
LayerCount: 2
Fore
SplineSet
163 318 m 1,0,-1
 163 413 l 1,1,-1
 280 413 l 1,2,-1
 280 602 l 1,3,4
 259 589 259 589 237.5 580 c 128,-1,5
 216 571 216 571 184 558 c 1,6,-1
 152 650 l 1,7,8
 197 668 197 668 238 690.5 c 128,-1,9
 279 713 279 713 310 737 c 1,10,-1
 400 737 l 1,11,-1
 400 413 l 1,12,-1
 497 413 l 1,13,-1
 497 318 l 1,14,-1
 163 318 l 1,0,-1
EndSplineSet
Substitution2: "Single Substitution lookup 22 subtable" oneinferior
Substitution2: "'sinf' Scientific Inferiors lookup 11 subtable" one.sinf
Substitution2: "'subs' Subscript lookup 10 subtable" one.sinf
Substitution2: "'sups' Superscript lookup 9 subtable" one.sups
Substitution2: "'dnom' Denominators lookup 8 subtable" oneinferior
EndChar

StartChar: ordmasculine
Encoding: 186 186 149
Width: 588
VWidth: 1177
Flags: W
LayerCount: 2
Fore
SplineSet
498 532 m 256,0,1
 498 483 498 483 483.5 444 c 128,-1,2
 469 405 469 405 442 378 c 128,-1,3
 415 351 415 351 377 336.5 c 128,-1,4
 339 322 339 322 293 322 c 256,5,6
 247 322 247 322 209.5 336.5 c 128,-1,7
 172 351 172 351 145 378 c 128,-1,8
 118 405 118 405 102.5 444 c 128,-1,9
 87 483 87 483 87 532 c 256,10,11
 87 581 87 581 102.5 621.5 c 128,-1,12
 118 662 118 662 145 689 c 128,-1,13
 172 716 172 716 209.5 731 c 128,-1,14
 247 746 247 746 293 746 c 256,15,16
 339 746 339 746 377 731 c 128,-1,17
 415 716 415 716 442 689 c 128,-1,18
 469 662 469 662 483.5 621.5 c 128,-1,19
 498 581 498 581 498 532 c 256,0,1
378 532 m 0,20,21
 378 583 378 583 356.5 612 c 128,-1,22
 335 641 335 641 293 641 c 0,23,24
 253 641 253 641 230 612 c 128,-1,25
 207 583 207 583 207 532 c 0,26,27
 207 484 207 484 229.5 456 c 128,-1,28
 252 428 252 428 293 428 c 256,29,30
 334 428 334 428 356 456 c 128,-1,31
 378 484 378 484 378 532 c 0,20,21
EndSplineSet
EndChar

StartChar: guillemotright
Encoding: 187 187 150
Width: 588
VWidth: 1177
Flags: W
LayerCount: 2
Fore
SplineSet
371 54 m 1,0,-1
 294 101 l 1,1,-1
 405 299 l 1,2,-1
 294 496 l 1,3,-1
 369 544 l 1,4,-1
 531 299 l 1,5,-1
 371 54 l 1,0,-1
137 54 m 1,6,-1
 59 101 l 1,7,-1
 168 299 l 1,8,-1
 59 496 l 1,9,-1
 134 544 l 1,10,-1
 294 299 l 1,11,-1
 137 54 l 1,6,-1
EndSplineSet
Substitution2: "'case' Case-Sensitive Forms lookup 17 subtable" Guillemotright
EndChar

StartChar: onequarter
Encoding: 188 188 151
Width: 588
VWidth: 1177
Flags: W
LayerCount: 2
Fore
SplineSet
541 294 m 1,0,-1
 541 120 l 1,1,-1
 583 120 l 1,2,-1
 583 46 l 1,3,-1
 541 46 l 1,4,-1
 541 0 l 1,5,-1
 446 0 l 1,6,-1
 446 46 l 1,7,-1
 300 46 l 1,8,-1
 300 99 l 1,9,10
 327 150 327 150 353.5 194.5 c 128,-1,11
 380 239 380 239 418 294 c 1,12,-1
 541 294 l 1,0,-1
2 656 m 1,13,14
 42 674 42 674 71.5 692 c 128,-1,15
 101 710 101 710 130 737 c 1,16,-1
 204 737 l 1,17,-1
 204 443 l 1,18,-1
 104 443 l 1,19,-1
 104 620 l 1,20,21
 80 607 80 607 63.5 599.5 c 128,-1,22
 47 592 47 592 25 587 c 1,23,-1
 2 656 l 1,13,14
446 219 m 1,24,25
 427 192 427 192 412.5 168 c 128,-1,26
 398 144 398 144 386 120 c 1,27,-1
 446 120 l 1,28,-1
 446 219 l 1,24,25
528 729 m 1,29,-1
 154 0 l 1,30,-1
 37 0 l 1,31,-1
 410 729 l 1,32,-1
 528 729 l 1,29,-1
EndSplineSet
Ligature2: "'frac' Diagonal Fractions lookup 13 subtable" one.sinf fraction four.sinf
Ligature2: "'frac' Diagonal Fractions lookup 13 subtable" one.sinf fraction four.sups
Ligature2: "'frac' Diagonal Fractions lookup 13 subtable" one.sinf fraction fourinferior
Ligature2: "'frac' Diagonal Fractions lookup 13 subtable" one.sinf fraction foursuperior
Ligature2: "'frac' Diagonal Fractions lookup 13 subtable" one.sinf fraction four
Ligature2: "'frac' Diagonal Fractions lookup 13 subtable" one.sups fraction four.sinf
Ligature2: "'frac' Diagonal Fractions lookup 13 subtable" one.sups fraction four.sups
Ligature2: "'frac' Diagonal Fractions lookup 13 subtable" one.sups fraction fourinferior
Ligature2: "'frac' Diagonal Fractions lookup 13 subtable" one.sups fraction foursuperior
Ligature2: "'frac' Diagonal Fractions lookup 13 subtable" one.sups fraction four
Ligature2: "'frac' Diagonal Fractions lookup 13 subtable" oneinferior fraction four.sinf
Ligature2: "'frac' Diagonal Fractions lookup 13 subtable" oneinferior fraction four.sups
Ligature2: "'frac' Diagonal Fractions lookup 13 subtable" oneinferior fraction fourinferior
Ligature2: "'frac' Diagonal Fractions lookup 13 subtable" oneinferior fraction foursuperior
Ligature2: "'frac' Diagonal Fractions lookup 13 subtable" oneinferior fraction four
Ligature2: "'frac' Diagonal Fractions lookup 13 subtable" onesuperior fraction four.sinf
Ligature2: "'frac' Diagonal Fractions lookup 13 subtable" onesuperior fraction four.sups
Ligature2: "'frac' Diagonal Fractions lookup 13 subtable" onesuperior fraction fourinferior
Ligature2: "'frac' Diagonal Fractions lookup 13 subtable" onesuperior fraction foursuperior
Ligature2: "'frac' Diagonal Fractions lookup 13 subtable" onesuperior fraction four
Ligature2: "'frac' Diagonal Fractions lookup 13 subtable" one fraction four.sinf
Ligature2: "'frac' Diagonal Fractions lookup 13 subtable" one fraction four.sups
Ligature2: "'frac' Diagonal Fractions lookup 13 subtable" one fraction fourinferior
Ligature2: "'frac' Diagonal Fractions lookup 13 subtable" one fraction foursuperior
Ligature2: "'frac' Diagonal Fractions lookup 13 subtable" one fraction four
EndChar

StartChar: onehalf
Encoding: 189 189 152
Width: 588
VWidth: 1177
Flags: W
LayerCount: 2
Fore
SplineSet
578 74 m 1,0,-1
 578 0 l 1,1,-1
 332 0 l 1,2,3
 330 7 330 7 330 14 c 128,-1,4
 330 21 330 21 330 27 c 0,5,6
 330 68 330 68 354 90.5 c 128,-1,7
 378 113 378 113 412 135 c 2,8,-1
 438 152 l 2,9,10
 458 165 458 165 465 173 c 128,-1,11
 472 181 472 181 472 197 c 0,12,13
 472 223 472 223 442 223 c 0,14,15
 424 223 424 223 406.5 213.5 c 128,-1,16
 389 204 389 204 375 188 c 1,17,-1
 326 251 l 1,18,19
 348 278 348 278 382.5 291.5 c 128,-1,20
 417 305 417 305 455 305 c 0,21,22
 501 305 501 305 536.5 281.5 c 128,-1,23
 572 258 572 258 572 208 c 0,24,25
 572 176 572 176 559.5 156.5 c 128,-1,26
 547 137 547 137 528 122.5 c 128,-1,27
 509 108 509 108 487.5 97 c 128,-1,28
 466 86 466 86 450 74 c 1,29,-1
 578 74 l 1,0,-1
2 656 m 1,30,31
 42 674 42 674 71.5 692 c 128,-1,32
 101 710 101 710 130 737 c 1,33,-1
 204 737 l 1,34,-1
 204 443 l 1,35,-1
 104 443 l 1,36,-1
 104 620 l 1,37,38
 80 607 80 607 63.5 599.5 c 128,-1,39
 47 592 47 592 25 587 c 1,40,-1
 2 656 l 1,30,31
528 729 m 1,41,-1
 154 0 l 1,42,-1
 37 0 l 1,43,-1
 410 729 l 1,44,-1
 528 729 l 1,41,-1
EndSplineSet
Ligature2: "'frac' Diagonal Fractions lookup 13 subtable" one.sinf fraction two.sinf
Ligature2: "'frac' Diagonal Fractions lookup 13 subtable" one.sinf fraction two.sups
Ligature2: "'frac' Diagonal Fractions lookup 13 subtable" one.sinf fraction twoinferior
Ligature2: "'frac' Diagonal Fractions lookup 13 subtable" one.sinf fraction twosuperior
Ligature2: "'frac' Diagonal Fractions lookup 13 subtable" one.sinf fraction two
Ligature2: "'frac' Diagonal Fractions lookup 13 subtable" one.sups fraction two.sinf
Ligature2: "'frac' Diagonal Fractions lookup 13 subtable" one.sups fraction two.sups
Ligature2: "'frac' Diagonal Fractions lookup 13 subtable" one.sups fraction twoinferior
Ligature2: "'frac' Diagonal Fractions lookup 13 subtable" one.sups fraction twosuperior
Ligature2: "'frac' Diagonal Fractions lookup 13 subtable" one.sups fraction two
Ligature2: "'frac' Diagonal Fractions lookup 13 subtable" oneinferior fraction two.sinf
Ligature2: "'frac' Diagonal Fractions lookup 13 subtable" oneinferior fraction two.sups
Ligature2: "'frac' Diagonal Fractions lookup 13 subtable" oneinferior fraction twoinferior
Ligature2: "'frac' Diagonal Fractions lookup 13 subtable" oneinferior fraction twosuperior
Ligature2: "'frac' Diagonal Fractions lookup 13 subtable" oneinferior fraction two
Ligature2: "'frac' Diagonal Fractions lookup 13 subtable" onesuperior fraction two.sinf
Ligature2: "'frac' Diagonal Fractions lookup 13 subtable" onesuperior fraction two.sups
Ligature2: "'frac' Diagonal Fractions lookup 13 subtable" onesuperior fraction twoinferior
Ligature2: "'frac' Diagonal Fractions lookup 13 subtable" onesuperior fraction twosuperior
Ligature2: "'frac' Diagonal Fractions lookup 13 subtable" onesuperior fraction two
Ligature2: "'frac' Diagonal Fractions lookup 13 subtable" one fraction two.sinf
Ligature2: "'frac' Diagonal Fractions lookup 13 subtable" one fraction two.sups
Ligature2: "'frac' Diagonal Fractions lookup 13 subtable" one fraction twoinferior
Ligature2: "'frac' Diagonal Fractions lookup 13 subtable" one fraction twosuperior
Ligature2: "'frac' Diagonal Fractions lookup 13 subtable" one fraction two
EndChar

StartChar: threequarters
Encoding: 190 190 153
Width: 588
VWidth: 1177
Flags: W
LayerCount: 2
Fore
SplineSet
35 524 m 1,0,1
 48 518 48 518 71 512 c 128,-1,2
 94 506 94 506 118 506 c 0,3,4
 145 506 145 506 158.5 511 c 128,-1,5
 172 516 172 516 172 531 c 0,6,7
 172 562 172 562 102 562 c 2,8,-1
 79 562 l 1,9,-1
 79 629 l 1,10,-1
 105 629 l 2,11,12
 136 629 136 629 147 635 c 128,-1,13
 158 641 158 641 158 653 c 0,14,15
 158 664 158 664 149 668.5 c 128,-1,16
 140 673 140 673 127 673 c 0,17,18
 107 673 107 673 83.5 665.5 c 128,-1,19
 60 658 60 658 49 653 c 1,20,-1
 24 716 l 1,21,22
 40 729 40 729 73 737.5 c 128,-1,23
 106 746 106 746 141 746 c 0,24,25
 202 746 202 746 230.5 721.5 c 128,-1,26
 259 697 259 697 259 667 c 0,27,28
 259 645 259 645 251.5 629.5 c 128,-1,29
 244 614 244 614 224 601 c 1,30,31
 273 577 273 577 273 527 c 0,32,33
 273 500 273 500 262 482 c 128,-1,34
 251 464 251 464 231 453 c 128,-1,35
 211 442 211 442 184.5 437 c 128,-1,36
 158 432 158 432 126 432 c 0,37,38
 93 432 93 432 63 437.5 c 128,-1,39
 33 443 33 443 14 452 c 1,40,-1
 35 524 l 1,0,1
541 294 m 1,41,-1
 541 120 l 1,42,-1
 583 120 l 1,43,-1
 583 46 l 1,44,-1
 541 46 l 1,45,-1
 541 0 l 1,46,-1
 446 0 l 1,47,-1
 446 46 l 1,48,-1
 300 46 l 1,49,-1
 300 99 l 1,50,51
 327 150 327 150 353.5 194.5 c 128,-1,52
 380 239 380 239 418 294 c 1,53,-1
 541 294 l 1,41,-1
446 219 m 1,54,55
 427 192 427 192 412.5 168 c 128,-1,56
 398 144 398 144 386 120 c 1,57,-1
 446 120 l 1,58,-1
 446 219 l 1,54,55
549 729 m 1,59,-1
 176 0 l 1,60,-1
 58 0 l 1,61,-1
 431 729 l 1,62,-1
 549 729 l 1,59,-1
EndSplineSet
Ligature2: "'frac' Diagonal Fractions lookup 13 subtable" three.sinf fraction four.sinf
Ligature2: "'frac' Diagonal Fractions lookup 13 subtable" three.sinf fraction four.sups
Ligature2: "'frac' Diagonal Fractions lookup 13 subtable" three.sinf fraction fourinferior
Ligature2: "'frac' Diagonal Fractions lookup 13 subtable" three.sinf fraction foursuperior
Ligature2: "'frac' Diagonal Fractions lookup 13 subtable" three.sinf fraction four
Ligature2: "'frac' Diagonal Fractions lookup 13 subtable" three.sups fraction four.sinf
Ligature2: "'frac' Diagonal Fractions lookup 13 subtable" three.sups fraction four.sups
Ligature2: "'frac' Diagonal Fractions lookup 13 subtable" three.sups fraction fourinferior
Ligature2: "'frac' Diagonal Fractions lookup 13 subtable" three.sups fraction foursuperior
Ligature2: "'frac' Diagonal Fractions lookup 13 subtable" three.sups fraction four
Ligature2: "'frac' Diagonal Fractions lookup 13 subtable" threeinferior fraction four.sinf
Ligature2: "'frac' Diagonal Fractions lookup 13 subtable" threeinferior fraction four.sups
Ligature2: "'frac' Diagonal Fractions lookup 13 subtable" threeinferior fraction fourinferior
Ligature2: "'frac' Diagonal Fractions lookup 13 subtable" threeinferior fraction foursuperior
Ligature2: "'frac' Diagonal Fractions lookup 13 subtable" threeinferior fraction four
Ligature2: "'frac' Diagonal Fractions lookup 13 subtable" threesuperior fraction four.sinf
Ligature2: "'frac' Diagonal Fractions lookup 13 subtable" threesuperior fraction four.sups
Ligature2: "'frac' Diagonal Fractions lookup 13 subtable" threesuperior fraction fourinferior
Ligature2: "'frac' Diagonal Fractions lookup 13 subtable" threesuperior fraction foursuperior
Ligature2: "'frac' Diagonal Fractions lookup 13 subtable" threesuperior fraction four
Ligature2: "'frac' Diagonal Fractions lookup 13 subtable" three fraction four.sinf
Ligature2: "'frac' Diagonal Fractions lookup 13 subtable" three fraction four.sups
Ligature2: "'frac' Diagonal Fractions lookup 13 subtable" three fraction fourinferior
Ligature2: "'frac' Diagonal Fractions lookup 13 subtable" three fraction foursuperior
Ligature2: "'frac' Diagonal Fractions lookup 13 subtable" three fraction four
EndChar

StartChar: questiondown
Encoding: 191 191 154
Width: 588
VWidth: 1177
Flags: W
LayerCount: 2
Fore
SplineSet
397 270 m 1,0,1
 398 264 398 264 398 252 c 0,2,3
 398 205 398 205 373.5 162 c 128,-1,4
 349 119 349 119 309 86 c 0,5,6
 296 75 296 75 282.5 64.5 c 128,-1,7
 269 54 269 54 258 43.5 c 128,-1,8
 247 33 247 33 240.5 20.5 c 128,-1,9
 234 8 234 8 234 -6 c 0,10,11
 234 -41 234 -41 259 -59.5 c 128,-1,12
 284 -78 284 -78 322 -78 c 256,13,14
 360 -78 360 -78 395 -66.5 c 128,-1,15
 430 -55 430 -55 471 -35 c 1,16,-1
 511 -146 l 1,17,18
 470 -172 470 -172 414.5 -186 c 128,-1,19
 359 -200 359 -200 305 -200 c 0,20,21
 238 -200 238 -200 194.5 -182.5 c 128,-1,22
 151 -165 151 -165 126 -137.5 c 128,-1,23
 101 -110 101 -110 91 -77.5 c 128,-1,24
 81 -45 81 -45 81 -15 c 0,25,26
 81 19 81 19 94.5 46.5 c 128,-1,27
 108 74 108 74 129 97 c 128,-1,28
 150 120 150 120 173.5 140.5 c 128,-1,29
 197 161 197 161 217.5 181 c 128,-1,30
 238 201 238 201 251.5 222.5 c 128,-1,31
 265 244 265 244 265 270 c 1,32,-1
 397 270 l 1,0,1
224 451 m 0,33,34
 224 497 224 497 254 523 c 128,-1,35
 284 549 284 549 322 549 c 0,36,37
 341 549 341 549 358.5 542.5 c 128,-1,38
 376 536 376 536 390 523 c 128,-1,39
 404 510 404 510 412 491.5 c 128,-1,40
 420 473 420 473 420 451 c 256,41,42
 420 429 420 429 412 410.5 c 128,-1,43
 404 392 404 392 390 379.5 c 128,-1,44
 376 367 376 367 358 361 c 128,-1,45
 340 355 340 355 322 355 c 256,46,47
 303 355 303 355 285 361 c 128,-1,48
 267 367 267 367 253.5 379.5 c 128,-1,49
 240 392 240 392 232 410.5 c 128,-1,50
 224 429 224 429 224 451 c 0,33,34
EndSplineSet
Substitution2: "'case' Case-Sensitive Forms lookup 17 subtable" Questiondown
EndChar

StartChar: Aring
Encoding: 197 197 160
Width: 588
VWidth: 1177
Flags: W
LayerCount: 2
Fore
SplineSet
418 807 m 0,0,1
 418 776 418 776 407.5 753.5 c 128,-1,2
 397 731 397 731 379 715 c 1,3,4
 430 557 430 557 480.5 381 c 128,-1,5
 531 205 531 205 578 0 c 1,6,-1
 423 0 l 1,7,-1
 389 168 l 1,8,-1
 194 168 l 1,9,-1
 161 0 l 1,10,-1
 11 0 l 1,11,12
 62 210 62 210 113 383.5 c 128,-1,13
 164 557 164 557 212 713 c 1,14,15
 193 728 193 728 182 751.5 c 128,-1,16
 171 775 171 775 171 807 c 0,17,18
 171 836 171 836 181 859 c 128,-1,19
 191 882 191 882 208 897.5 c 128,-1,20
 225 913 225 913 247.5 920.5 c 128,-1,21
 270 928 270 928 293 928 c 0,22,23
 344 928 344 928 381 897.5 c 128,-1,24
 418 867 418 867 418 807 c 0,0,1
293 588 m 1,25,26
 281 547 281 547 271 509.5 c 128,-1,27
 261 472 261 472 252.5 436 c 128,-1,28
 244 400 244 400 236.5 363.5 c 128,-1,29
 229 327 229 327 221 289 c 1,30,-1
 364 289 l 1,31,32
 357 328 357 328 350 364 c 128,-1,33
 343 400 343 400 334 436 c 128,-1,34
 325 472 325 472 315 509.5 c 128,-1,35
 305 547 305 547 293 588 c 1,25,26
342 807 m 256,36,37
 342 832 342 832 327.5 844 c 128,-1,38
 313 856 313 856 293 856 c 0,39,40
 275 856 275 856 260.5 844 c 128,-1,41
 246 832 246 832 246 807 c 256,42,43
 246 782 246 782 261 769.5 c 128,-1,44
 276 757 276 757 293 757 c 0,45,46
 313 757 313 757 327.5 769.5 c 128,-1,47
 342 782 342 782 342 807 c 256,36,37
EndSplineSet
EndChar

StartChar: AE
Encoding: 198 198 161
Width: 588
VWidth: 1177
Flags: W
LayerCount: 2
Fore
SplineSet
300 168 m 1,0,-1
 193 168 l 1,1,-1
 161 0 l 1,2,-1
 11 0 l 1,3,4
 42 125 42 125 67.5 219.5 c 128,-1,5
 93 314 93 314 119 396.5 c 128,-1,6
 145 479 145 479 172 557.5 c 128,-1,7
 199 636 199 636 233 729 c 1,8,-1
 563 729 l 1,9,-1
 563 609 l 1,10,-1
 432 609 l 1,11,-1
 432 446 l 1,12,-1
 536 446 l 1,13,-1
 536 326 l 1,14,-1
 432 326 l 1,15,-1
 432 120 l 1,16,-1
 578 120 l 1,17,-1
 578 0 l 1,18,-1
 300 0 l 1,19,-1
 300 168 l 1,0,-1
300 631 m 1,20,21
 280 550 280 550 260 468 c 128,-1,22
 240 386 240 386 219 289 c 1,23,-1
 300 289 l 1,24,-1
 300 631 l 1,20,21
EndSplineSet
EndChar

StartChar: Ccedilla
Encoding: 199 199 162
Width: 588
VWidth: 1177
Flags: W
LayerCount: 2
Fore
SplineSet
353 -28 m 1,0,1
 392 -40 392 -40 407.5 -63 c 128,-1,2
 423 -86 423 -86 423 -107 c 0,3,4
 423 -134 423 -134 410.5 -152 c 128,-1,5
 398 -170 398 -170 378.5 -180.5 c 128,-1,6
 359 -191 359 -191 333 -195.5 c 128,-1,7
 307 -200 307 -200 282 -200 c 0,8,9
 229 -200 229 -200 187 -187 c 1,10,-1
 203 -113 l 1,11,12
 210 -115 210 -115 230 -119.5 c 128,-1,13
 250 -124 250 -124 269 -124 c 0,14,15
 317 -124 317 -124 317 -94 c 0,16,17
 317 -72 317 -72 274 -58 c 2,18,-1
 251 -51 l 1,19,20
 253 -40 253 -40 258 -28 c 128,-1,21
 263 -16 263 -16 267 -7 c 1,22,23
 153 18 153 18 92.5 112.5 c 128,-1,24
 32 207 32 207 32 365 c 0,25,26
 32 456 32 456 56.5 526.5 c 128,-1,27
 81 597 81 597 125.5 646 c 128,-1,28
 170 695 170 695 230.5 720.5 c 128,-1,29
 291 746 291 746 363 746 c 0,30,31
 402 746 402 746 433 739.5 c 128,-1,32
 464 733 464 733 487.5 724.5 c 128,-1,33
 511 716 511 716 527 706.5 c 128,-1,34
 543 697 543 697 551 693 c 1,35,-1
 514 577 l 1,36,37
 487 595 487 595 448.5 607.5 c 128,-1,38
 410 620 410 620 360 620 c 0,39,40
 326 620 326 620 293.5 607.5 c 128,-1,41
 261 595 261 595 236 566 c 128,-1,42
 211 537 211 537 195 489 c 128,-1,43
 179 441 179 441 179 369 c 0,44,45
 179 244 179 244 222 177.5 c 128,-1,46
 265 111 265 111 363 111 c 0,47,48
 420 111 420 111 457 124 c 128,-1,49
 494 137 494 137 516 150 c 1,50,-1
 552 35 l 1,51,52
 523 17 523 17 473 2 c 128,-1,53
 423 -13 423 -13 358 -15 c 1,54,-1
 353 -28 l 1,0,1
EndSplineSet
EndChar

StartChar: Eth
Encoding: 208 208 171
Width: 588
VWidth: 1177
Flags: W
LayerCount: 2
Fore
SplineSet
557 365 m 0,0,1
 557 264 557 264 533 192.5 c 128,-1,2
 509 121 509 121 466 76.5 c 128,-1,3
 423 32 423 32 364 11.5 c 128,-1,4
 305 -9 305 -9 234 -9 c 0,5,6
 196 -9 196 -9 160.5 -5 c 128,-1,7
 125 -1 125 -1 84 8 c 1,8,-1
 84 318 l 1,9,-1
 21 318 l 1,10,-1
 21 438 l 1,11,-1
 84 438 l 1,12,-1
 84 720 l 1,13,14
 133 731 133 731 174.5 734 c 128,-1,15
 216 737 216 737 253 737 c 0,16,17
 321 737 321 737 378 716 c 128,-1,18
 435 695 435 695 474.5 649.5 c 128,-1,19
 514 604 514 604 535.5 534 c 128,-1,20
 557 464 557 464 557 365 c 0,0,1
230 438 m 1,21,-1
 319 438 l 1,22,-1
 319 318 l 1,23,-1
 230 318 l 1,24,-1
 230 118 l 1,25,26
 235 117 235 117 240 117 c 128,-1,27
 245 117 245 117 251 117 c 0,28,29
 296 117 296 117 326.5 135.5 c 128,-1,30
 357 154 357 154 375 187 c 128,-1,31
 393 220 393 220 401.5 265.5 c 128,-1,32
 410 311 410 311 410 365 c 0,33,34
 410 412 410 412 404 457 c 128,-1,35
 398 502 398 502 382 536 c 128,-1,36
 366 570 366 570 338 590.5 c 128,-1,37
 310 611 310 611 266 611 c 0,38,39
 257 611 257 611 247.5 610.5 c 128,-1,40
 238 610 238 610 230 608 c 1,41,-1
 230 438 l 1,21,-1
EndSplineSet
EndChar

StartChar: multiply
Encoding: 215 215 178
Width: 588
VWidth: 1177
Flags: W
LayerCount: 2
Fore
SplineSet
446 541 m 1,0,-1
 529 457 l 1,1,-1
 382 311 l 1,2,-1
 530 164 l 1,3,-1
 446 82 l 1,4,-1
 299 231 l 1,5,-1
 152 82 l 1,6,-1
 71 163 l 1,7,-1
 218 310 l 1,8,-1
 71 457 l 1,9,-1
 152 542 l 1,10,-1
 299 395 l 1,11,-1
 446 541 l 1,0,-1
EndSplineSet
EndChar

StartChar: Oslash
Encoding: 216 216 179
Width: 588
VWidth: 1177
Flags: W
LayerCount: 2
Fore
SplineSet
32 363 m 0,0,1
 32 551 32 551 101.5 647 c 128,-1,2
 171 743 171 743 294 743 c 0,3,4
 359 743 359 743 405 721 c 1,5,-1
 432 776 l 1,6,-1
 527 729 l 1,7,-1
 486 650 l 1,8,9
 557 552 557 552 557 363 c 0,10,11
 557 175 557 175 488.5 78.5 c 128,-1,12
 420 -18 420 -18 296 -18 c 0,13,14
 229 -18 229 -18 177 9 c 1,15,-1
 150 -47 l 1,16,-1
 57 0 l 1,17,-1
 97 84 l 1,18,19
 32 180 32 180 32 363 c 0,0,1
410 363 m 0,20,21
 410 394 410 394 408 422.5 c 128,-1,22
 406 451 406 451 404 477 c 1,23,-1
 233 128 l 1,24,25
 259 108 259 108 294 108 c 0,26,27
 331 108 331 108 354 128 c 128,-1,28
 377 148 377 148 389.5 183 c 128,-1,29
 402 218 402 218 406 264 c 128,-1,30
 410 310 410 310 410 363 c 0,20,21
179 363 m 0,31,32
 179 306 179 306 183 260 c 1,33,-1
 349 602 l 1,34,35
 327 617 327 617 294 617 c 0,36,37
 256 617 256 617 234 597 c 128,-1,38
 212 577 212 577 199.5 542.5 c 128,-1,39
 187 508 187 508 183 462 c 128,-1,40
 179 416 179 416 179 363 c 0,31,32
EndSplineSet
EndChar

StartChar: Thorn
Encoding: 222 222 185
Width: 588
VWidth: 1177
Flags: W
LayerCount: 2
Fore
SplineSet
264 625 m 0,0,1
 404 625 404 625 480 565 c 128,-1,2
 556 505 556 505 556 382 c 0,3,4
 556 260 556 260 479.5 197 c 128,-1,5
 403 134 403 134 260 134 c 2,6,-1
 208 134 l 1,7,-1
 208 0 l 1,8,-1
 64 0 l 1,9,-1
 64 729 l 1,10,-1
 208 729 l 1,11,-1
 208 624 l 1,12,13
 223 625 223 625 237 625 c 128,-1,14
 251 625 251 625 264 625 c 0,0,1
280 499 m 0,15,16
 267 499 267 499 244 498.5 c 128,-1,17
 221 498 221 498 208 496 c 1,18,-1
 208 260 l 1,19,-1
 267 260 l 2,20,21
 336 260 336 260 372 292 c 128,-1,22
 408 324 408 324 408 383 c 0,23,24
 408 440 408 440 373 469.5 c 128,-1,25
 338 499 338 499 280 499 c 0,15,16
EndSplineSet
EndChar

StartChar: germandbls
Encoding: 223 223 186
Width: 588
VWidth: 1177
Flags: W
LayerCount: 2
Fore
SplineSet
481 642 m 0,0,1
 481 591 481 591 468.5 562.5 c 128,-1,2
 456 534 456 534 442 513 c 128,-1,3
 428 492 428 492 415.5 472 c 128,-1,4
 403 452 403 452 403 418 c 0,5,6
 403 393 403 393 416 376 c 128,-1,7
 429 359 429 359 449 344.5 c 128,-1,8
 469 330 469 330 491.5 316 c 128,-1,9
 514 302 514 302 534 283.5 c 128,-1,10
 554 265 554 265 567 238.5 c 128,-1,11
 580 212 580 212 580 174 c 0,12,13
 580 83 580 83 534.5 35 c 128,-1,14
 489 -13 489 -13 378 -13 c 0,15,16
 323 -13 323 -13 290.5 -3 c 128,-1,17
 258 7 258 7 238 16 c 1,18,-1
 264 137 l 1,19,20
 284 128 284 128 314 119 c 128,-1,21
 344 110 344 110 369 110 c 0,22,23
 401 110 401 110 416.5 127 c 128,-1,24
 432 144 432 144 432 172 c 256,25,26
 432 200 432 200 407 221.5 c 128,-1,27
 382 243 382 243 342 263 c 0,28,29
 289 291 289 291 274.5 325.5 c 128,-1,30
 260 360 260 360 260 398 c 0,31,32
 260 439 260 439 273 465 c 128,-1,33
 286 491 286 491 301.5 513 c 128,-1,34
 317 535 317 535 330 559.5 c 128,-1,35
 343 584 343 584 343 624 c 0,36,37
 343 658 343 658 324 675.5 c 128,-1,38
 305 693 305 693 271 693 c 0,39,40
 226 693 226 693 203.5 658.5 c 128,-1,41
 181 624 181 624 181 564 c 2,42,-1
 181 0 l 1,43,-1
 37 0 l 1,44,-1
 37 561 l 2,45,46
 37 616 37 616 49.5 663 c 128,-1,47
 62 710 62 710 90.5 744.5 c 128,-1,48
 119 779 119 779 162.5 797.5 c 128,-1,49
 206 816 206 816 267 816 c 0,50,51
 326 816 326 816 367 802 c 128,-1,52
 408 788 408 788 433 764 c 128,-1,53
 458 740 458 740 469.5 708.5 c 128,-1,54
 481 677 481 677 481 642 c 0,0,1
EndSplineSet
EndChar

StartChar: ae
Encoding: 230 230 193
Width: 588
VWidth: 1177
Flags: W
LayerCount: 2
Fore
SplineSet
192 568 m 0,0,1
 229 568 229 568 261 553 c 128,-1,2
 293 538 293 538 318 504 c 1,3,4
 338 535 338 535 363 551.5 c 128,-1,5
 388 568 388 568 417 568 c 0,6,7
 451 568 451 568 480 553.5 c 128,-1,8
 509 539 509 539 530 507.5 c 128,-1,9
 551 476 551 476 563 424 c 128,-1,10
 575 372 575 372 575 297 c 0,11,12
 575 283 575 283 575 262 c 128,-1,13
 575 241 575 241 572 230 c 1,14,-1
 362 230 l 1,15,16
 363 197 363 197 371 174 c 128,-1,17
 379 151 379 151 392 136 c 128,-1,18
 405 121 405 121 421.5 114.5 c 128,-1,19
 438 108 438 108 457 108 c 0,20,21
 478 108 478 108 498.5 113.5 c 128,-1,22
 519 119 519 119 536 128 c 1,23,-1
 557 14 l 1,24,25
 530 0 530 0 503.5 -6.5 c 128,-1,26
 477 -13 477 -13 442 -13 c 0,27,28
 401 -13 401 -13 371.5 3.5 c 128,-1,29
 342 20 342 20 322 45 c 1,30,31
 295 14 295 14 260 0.5 c 128,-1,32
 225 -13 225 -13 191 -13 c 0,33,34
 151 -13 151 -13 120.5 3 c 128,-1,35
 90 19 90 19 69 45 c 128,-1,36
 48 71 48 71 37.5 104 c 128,-1,37
 27 137 27 137 27 171 c 0,38,39
 27 251 27 251 72.5 296.5 c 128,-1,40
 118 342 118 342 188 342 c 0,41,42
 203 342 203 342 218.5 340 c 128,-1,43
 234 338 234 338 251 332 c 1,44,-1
 251 359 l 2,45,46
 251 411 251 411 232.5 431 c 128,-1,47
 214 451 214 451 183 451 c 0,48,49
 163 451 163 451 140 444.5 c 128,-1,50
 117 438 117 438 90 429 c 1,51,-1
 69 541 l 1,52,53
 100 554 100 554 130.5 561 c 128,-1,54
 161 568 161 568 192 568 c 0,0,1
251 234 m 1,55,56
 240 238 240 238 229 239 c 128,-1,57
 218 240 218 240 208 240 c 0,58,59
 177 240 177 240 158 225 c 128,-1,60
 139 210 139 210 139 172 c 0,61,62
 139 140 139 140 155.5 121 c 128,-1,63
 172 102 172 102 204 102 c 0,64,65
 231 102 231 102 261 117 c 1,66,67
 254 148 254 148 252.5 178 c 128,-1,68
 251 208 251 208 251 234 c 1,55,56
417 452 m 256,69,70
 402 452 402 452 392 441 c 128,-1,71
 382 430 382 430 375.5 412.5 c 128,-1,72
 369 395 369 395 366 373 c 128,-1,73
 363 351 363 351 363 330 c 1,74,-1
 466 330 l 1,75,76
 466 352 466 352 464 374.5 c 128,-1,77
 462 397 462 397 456.5 414 c 128,-1,78
 451 431 451 431 441.5 441.5 c 128,-1,79
 432 452 432 452 417 452 c 256,69,70
EndSplineSet
Substitution2: "'case' Case-Sensitive Forms lookup 18 subtable" AE
EndChar

StartChar: ccedilla
Encoding: 231 231 194
Width: 588
VWidth: 1177
Flags: W
LayerCount: 2
Fore
SplineSet
52 277 m 0,0,1
 52 337 52 337 71 390 c 128,-1,2
 90 443 90 443 128.5 482.5 c 128,-1,3
 167 522 167 522 226.5 545 c 128,-1,4
 286 568 286 568 369 568 c 0,5,6
 418 568 418 568 458 561 c 128,-1,7
 498 554 498 554 539 537 c 1,8,-1
 508 420 l 1,9,10
 484 428 484 428 455 435 c 128,-1,11
 426 442 426 442 382 442 c 0,12,13
 330 442 330 442 295 429.5 c 128,-1,14
 260 417 260 417 239 395 c 128,-1,15
 218 373 218 373 208.5 342.5 c 128,-1,16
 199 312 199 312 199 277 c 0,17,18
 199 200 199 200 242 156.5 c 128,-1,19
 285 113 285 113 389 113 c 0,20,21
 423 113 423 113 460 117.5 c 128,-1,22
 497 122 497 122 528 133 c 1,23,-1
 549 14 l 1,24,25
 518 2 518 2 474.5 -5.5 c 128,-1,26
 431 -13 431 -13 372 -13 c 2,27,-1
 359 -13 l 1,28,-1
 353 -28 l 1,29,30
 392 -40 392 -40 407.5 -63 c 128,-1,31
 423 -86 423 -86 423 -107 c 0,32,33
 423 -134 423 -134 410.5 -152 c 128,-1,34
 398 -170 398 -170 378.5 -180.5 c 128,-1,35
 359 -191 359 -191 333 -195.5 c 128,-1,36
 307 -200 307 -200 282 -200 c 0,37,38
 229 -200 229 -200 187 -187 c 1,39,-1
 203 -113 l 1,40,41
 210 -115 210 -115 230 -119.5 c 128,-1,42
 250 -124 250 -124 269 -124 c 0,43,44
 317 -124 317 -124 317 -94 c 0,45,46
 317 -72 317 -72 274 -58 c 2,47,-1
 251 -51 l 1,48,49
 258 -26 258 -26 270 -2 c 1,50,51
 212 10 212 10 171 35.5 c 128,-1,52
 130 61 130 61 103.5 97.5 c 128,-1,53
 77 134 77 134 64.5 179.5 c 128,-1,54
 52 225 52 225 52 277 c 0,0,1
EndSplineSet
Substitution2: "'case' Case-Sensitive Forms lookup 18 subtable" Ccedilla
EndChar

StartChar: eth
Encoding: 240 240 203
Width: 588
VWidth: 1177
Flags: W
LayerCount: 2
Fore
SplineSet
461 630 m 1,0,1
 499 559 499 559 517.5 481 c 128,-1,2
 536 403 536 403 536 325 c 0,3,4
 536 257 536 257 523.5 195 c 128,-1,5
 511 133 511 133 483 86.5 c 128,-1,6
 455 40 455 40 407.5 12.5 c 128,-1,7
 360 -15 360 -15 290 -15 c 0,8,9
 229 -15 229 -15 183.5 5.5 c 128,-1,10
 138 26 138 26 108 61.5 c 128,-1,11
 78 97 78 97 62.5 144.5 c 128,-1,12
 47 192 47 192 47 246 c 0,13,14
 47 297 47 297 62 342.5 c 128,-1,15
 77 388 77 388 105.5 422 c 128,-1,16
 134 456 134 456 178.5 476 c 128,-1,17
 223 496 223 496 283 496 c 0,18,19
 307 496 307 496 332.5 487.5 c 128,-1,20
 358 479 358 479 378 469 c 1,21,22
 372 496 372 496 360.5 525.5 c 128,-1,23
 349 555 349 555 330 585 c 1,24,-1
 221 549 l 1,25,-1
 191 637 l 1,26,-1
 271 664 l 1,27,28
 255 683 255 683 236 699 c 128,-1,29
 217 715 217 715 196 730 c 1,30,-1
 283 821 l 1,31,32
 355 779 355 779 408 711 c 1,33,-1
 536 754 l 1,34,-1
 565 665 l 1,35,-1
 461 630 l 1,0,1
385 346 m 1,36,37
 357 371 357 371 331.5 375.5 c 128,-1,38
 306 380 306 380 293 380 c 0,39,40
 244 380 244 380 220 345 c 128,-1,41
 196 310 196 310 196 246 c 0,42,43
 196 220 196 220 201.5 196 c 128,-1,44
 207 172 207 172 218.5 153 c 128,-1,45
 230 134 230 134 246.5 122.5 c 128,-1,46
 263 111 263 111 284 111 c 0,47,48
 341 111 341 111 363.5 167 c 128,-1,49
 386 223 386 223 386 314 c 0,50,51
 386 322 386 322 385.5 330 c 128,-1,52
 385 338 385 338 385 346 c 1,36,37
EndSplineSet
Substitution2: "'case' Case-Sensitive Forms lookup 18 subtable" Eth
EndChar

StartChar: divide
Encoding: 247 247 210
Width: 588
VWidth: 1177
Flags: W
LayerCount: 2
Fore
SplineSet
378 523 m 256,0,1
 378 481 378 481 353.5 459 c 128,-1,2
 329 437 329 437 297 437 c 0,3,4
 263 437 263 437 238 459 c 128,-1,5
 213 481 213 481 213 523 c 256,6,7
 213 565 213 565 238 587.5 c 128,-1,8
 263 610 263 610 297 610 c 0,9,10
 329 610 329 610 353.5 587.5 c 128,-1,11
 378 565 378 565 378 523 c 256,0,1
378 93 m 0,12,13
 378 52 378 52 353.5 29 c 128,-1,14
 329 6 329 6 297 6 c 0,15,16
 263 6 263 6 238 29 c 128,-1,17
 213 52 213 52 213 93 c 0,18,19
 213 135 213 135 238 158 c 128,-1,20
 263 181 263 181 297 181 c 0,21,22
 329 181 329 181 353.5 158 c 128,-1,23
 378 135 378 135 378 93 c 0,12,13
47 369 m 1,24,-1
 542 369 l 1,25,-1
 542 250 l 1,26,-1
 47 250 l 1,27,-1
 47 369 l 1,24,-1
EndSplineSet
EndChar

StartChar: oslash
Encoding: 248 248 211
Width: 588
VWidth: 1177
Flags: W
LayerCount: 2
Fore
SplineSet
556 276 m 0,0,1
 556 210 556 210 537 156 c 128,-1,2
 518 102 518 102 484 63.5 c 128,-1,3
 450 25 450 25 402.5 3.5 c 128,-1,4
 355 -18 355 -18 296 -18 c 0,5,6
 258 -18 258 -18 225 -9 c 128,-1,7
 192 0 192 0 163 15 c 1,8,-1
 118 -45 l 1,9,-1
 45 11 l 1,10,-1
 93 78 l 1,11,12
 65 116 65 116 49.5 166 c 128,-1,13
 34 216 34 216 34 276 c 0,14,15
 34 341 34 341 53.5 394.5 c 128,-1,16
 73 448 73 448 108 486 c 128,-1,17
 143 524 143 524 191 544.5 c 128,-1,18
 239 565 239 565 296 565 c 0,19,20
 369 565 369 565 428 531 c 1,21,-1
 471 591 l 1,22,-1
 545 536 l 1,23,-1
 496 469 l 1,24,25
 524 431 524 431 540 383 c 128,-1,26
 556 335 556 335 556 276 c 0,0,1
181 274 m 0,27,28
 181 255 181 255 182.5 238 c 128,-1,29
 184 221 184 221 187 205 c 1,30,-1
 349 426 l 1,31,32
 327 439 327 439 296 439 c 0,33,34
 239 439 239 439 210 393.5 c 128,-1,35
 181 348 181 348 181 274 c 0,27,28
408 274 m 0,36,37
 408 293 408 293 406.5 309 c 128,-1,38
 405 325 405 325 402 340 c 1,39,-1
 240 122 l 1,40,41
 262 108 262 108 293 108 c 0,42,43
 350 108 350 108 379 154 c 128,-1,44
 408 200 408 200 408 274 c 0,36,37
EndSplineSet
Substitution2: "'case' Case-Sensitive Forms lookup 18 subtable" Oslash
EndChar

StartChar: thorn
Encoding: 254 254 217
Width: 588
VWidth: 1177
Flags: W
LayerCount: 2
Fore
SplineSet
552 277 m 0,0,1
 552 213 552 213 538 159.5 c 128,-1,2
 524 106 524 106 497 67.5 c 128,-1,3
 470 29 470 29 429 8 c 128,-1,4
 388 -13 388 -13 333 -13 c 256,5,6
 278 -13 278 -13 219 14 c 1,7,-1
 219 -194 l 1,8,-1
 74 -194 l 1,9,-1
 74 793 l 1,10,-1
 219 817 l 1,11,-1
 219 556 l 1,12,13
 235 560 235 560 253 562.5 c 128,-1,14
 271 565 271 565 287 565 c 0,15,16
 415 565 415 565 483.5 487.5 c 128,-1,17
 552 410 552 410 552 277 c 0,0,1
405 272 m 0,18,19
 405 346 405 346 375.5 394 c 128,-1,20
 346 442 346 442 286 442 c 0,21,22
 270 442 270 442 251 440 c 128,-1,23
 232 438 232 438 219 437 c 1,24,-1
 219 133 l 1,25,26
 233 124 233 124 256.5 118 c 128,-1,27
 280 112 280 112 304 112 c 0,28,29
 356 112 356 112 380.5 153.5 c 128,-1,30
 405 195 405 195 405 272 c 0,18,19
EndSplineSet
Substitution2: "'case' Case-Sensitive Forms lookup 18 subtable" Thorn
EndChar

StartChar: Aogonek
Encoding: 260 260 223
Width: 588
VWidth: 1177
Flags: W
LayerCount: 2
Fore
SplineSet
293 588 m 1,0,1
 281 547 281 547 271 509.5 c 128,-1,2
 261 472 261 472 252.5 436 c 128,-1,3
 244 400 244 400 236.5 363.5 c 128,-1,4
 229 327 229 327 221 289 c 1,5,-1
 364 289 l 1,6,7
 357 328 357 328 350 364 c 128,-1,8
 343 400 343 400 334 436 c 128,-1,9
 325 472 325 472 315 509.5 c 128,-1,10
 305 547 305 547 293 588 c 1,0,1
423 0 m 1,11,-1
 389 168 l 1,12,-1
 194 168 l 1,13,-1
 161 0 l 1,14,-1
 11 0 l 1,15,16
 63 216 63 216 115.5 393 c 128,-1,17
 168 570 168 570 218 729 c 1,18,-1
 376 729 l 1,19,20
 428 569 428 569 479 389.5 c 128,-1,21
 530 210 530 210 578 0 c 1,22,23
 567 -9 567 -9 554 -21 c 128,-1,24
 541 -33 541 -33 529 -46 c 128,-1,25
 517 -59 517 -59 509.5 -72 c 128,-1,26
 502 -85 502 -85 502 -95 c 0,27,28
 502 -107 502 -107 508.5 -115.5 c 128,-1,29
 515 -124 515 -124 534 -124 c 0,30,31
 543 -124 543 -124 556 -122.5 c 128,-1,32
 569 -121 569 -121 587 -115 c 1,33,-1
 595 -184 l 1,34,35
 579 -190 579 -190 548.5 -195 c 128,-1,36
 518 -200 518 -200 485 -200 c 0,37,38
 428 -200 428 -200 403.5 -178.5 c 128,-1,39
 379 -157 379 -157 379 -125 c 0,40,41
 379 -97 379 -97 395 -65 c 128,-1,42
 411 -33 411 -33 442 -9 c 2,43,-1
 452 0 l 1,44,-1
 423 0 l 1,11,-1
EndSplineSet
EndChar

StartChar: aogonek
Encoding: 261 261 224
Width: 588
VWidth: 1177
Flags: W
LayerCount: 2
Fore
SplineSet
517 -184 m 1,0,1
 501 -190 501 -190 471 -195 c 128,-1,2
 441 -200 441 -200 408 -200 c 0,3,4
 351 -200 351 -200 326.5 -178.5 c 128,-1,5
 302 -157 302 -157 302 -125 c 0,6,7
 302 -97 302 -97 319 -65.5 c 128,-1,8
 336 -34 336 -34 364 -8 c 1,9,10
 344 -10 344 -10 324 -11.5 c 128,-1,11
 304 -13 304 -13 285 -13 c 0,12,13
 232 -13 232 -13 189 -3.5 c 128,-1,14
 146 6 146 6 115.5 27.5 c 128,-1,15
 85 49 85 49 68.5 84 c 128,-1,16
 52 119 52 119 52 170 c 0,17,18
 52 218 52 218 71 251 c 128,-1,19
 90 284 90 284 121.5 304 c 128,-1,20
 153 324 153 324 194.5 333 c 128,-1,21
 236 342 236 342 280 342 c 0,22,23
 337 342 337 342 380 332 c 1,24,-1
 380 350 l 2,25,26
 380 391 380 391 354.5 418.5 c 128,-1,27
 329 446 329 446 265 446 c 0,28,29
 224 446 224 446 185.5 440.5 c 128,-1,30
 147 435 147 435 124 426 c 1,31,-1
 104 543 l 1,32,33
 131 552 131 552 180.5 560 c 128,-1,34
 230 568 230 568 283 568 c 0,35,36
 351 568 351 568 396.5 552 c 128,-1,37
 442 536 442 536 469 507 c 128,-1,38
 496 478 496 478 507.5 436.5 c 128,-1,39
 519 395 519 395 519 343 c 2,40,-1
 519 15 l 1,41,42
 511 9 511 9 495 -3.5 c 128,-1,43
 479 -16 479 -16 463.5 -32 c 128,-1,44
 448 -48 448 -48 436 -64.5 c 128,-1,45
 424 -81 424 -81 424 -95 c 0,46,47
 424 -107 424 -107 430.5 -115.5 c 128,-1,48
 437 -124 437 -124 456 -124 c 0,49,50
 465 -124 465 -124 478 -122.5 c 128,-1,51
 491 -121 491 -121 509 -115 c 1,52,-1
 517 -184 l 1,0,1
296 104 m 0,53,54
 320 104 320 104 342 104.5 c 128,-1,55
 364 105 364 105 380 107 c 1,56,-1
 380 234 l 1,57,58
 366 236 366 236 346 238 c 128,-1,59
 326 240 326 240 310 240 c 0,60,61
 288 240 288 240 266.5 237 c 128,-1,62
 245 234 245 234 229 227 c 128,-1,63
 213 220 213 220 203.5 207 c 128,-1,64
 194 194 194 194 194 173 c 0,65,66
 194 135 194 135 222.5 119.5 c 128,-1,67
 251 104 251 104 296 104 c 0,53,54
EndSplineSet
Substitution2: "'case' Case-Sensitive Forms lookup 18 subtable" Aogonek
EndChar

StartChar: dcaron
Encoding: 271 271 234
Width: 588
VWidth: 1177
Flags: W
LayerCount: 2
Fore
SplineSet
163 280 m 0,0,1
 163 206 163 206 182 159 c 128,-1,2
 201 112 201 112 244 112 c 0,3,4
 270 112 270 112 289 117 c 1,5,-1
 289 418 l 1,6,7
 277 427 277 427 260.5 434 c 128,-1,8
 244 441 244 441 226 441 c 0,9,10
 192 441 192 441 177.5 399.5 c 128,-1,11
 163 358 163 358 163 280 c 0,0,1
435 16 m 1,12,13
 398 3 398 3 345.5 -5 c 128,-1,14
 293 -13 293 -13 243 -13 c 0,15,16
 131 -13 131 -13 73 63.5 c 128,-1,17
 15 140 15 140 15 273 c 0,18,19
 15 408 15 408 62.5 486.5 c 128,-1,20
 110 565 110 565 201 565 c 0,21,22
 225 565 225 565 248.5 558.5 c 128,-1,23
 272 552 272 552 289 541 c 1,24,-1
 289 793 l 1,25,-1
 435 817 l 1,26,-1
 435 16 l 1,12,13
610 816 m 1,27,-1
 576 559 l 1,28,-1
 482 559 l 1,29,-1
 482 816 l 1,30,-1
 610 816 l 1,27,-1
EndSplineSet
Substitution2: "'case' Case-Sensitive Forms lookup 18 subtable" Dcaron
EndChar

StartChar: dcroat
Encoding: 273 273 236
Width: 588
VWidth: 1177
Flags: W
LayerCount: 2
Fore
SplineSet
503 724 m 1,0,-1
 568 724 l 1,1,-1
 568 627 l 1,2,-1
 503 627 l 1,3,-1
 503 16 l 1,4,5
 462 3 462 3 405.5 -5 c 128,-1,6
 349 -13 349 -13 292 -13 c 0,7,8
 164 -13 164 -13 98.5 63.5 c 128,-1,9
 33 140 33 140 33 273 c 0,10,11
 33 408 33 408 88.5 486.5 c 128,-1,12
 144 565 144 565 251 565 c 0,13,14
 280 565 280 565 308.5 558.5 c 128,-1,15
 337 552 337 552 358 541 c 1,16,-1
 358 627 l 1,17,-1
 207 627 l 1,18,-1
 207 724 l 1,19,-1
 358 724 l 1,20,-1
 358 793 l 1,21,-1
 503 817 l 1,22,-1
 503 724 l 1,0,-1
180 280 m 0,23,24
 180 206 180 206 206.5 159 c 128,-1,25
 233 112 233 112 293 112 c 0,26,27
 312 112 312 112 327 113 c 128,-1,28
 342 114 342 114 358 117 c 1,29,-1
 358 418 l 1,30,31
 342 427 342 427 320.5 434 c 128,-1,32
 299 441 299 441 276 441 c 0,33,34
 227 441 227 441 203.5 399.5 c 128,-1,35
 180 358 180 358 180 280 c 0,23,24
EndSplineSet
Substitution2: "'case' Case-Sensitive Forms lookup 18 subtable" Dcroat
EndChar

StartChar: Eogonek
Encoding: 280 280 243
Width: 588
VWidth: 1177
Flags: W
LayerCount: 2
Fore
SplineSet
74 0 m 1,0,-1
 74 729 l 1,1,-1
 516 729 l 1,2,-1
 516 609 l 1,3,-1
 219 609 l 1,4,-1
 219 445 l 1,5,-1
 477 445 l 1,6,-1
 477 325 l 1,7,-1
 219 325 l 1,8,-1
 219 120 l 1,9,-1
 542 120 l 1,10,-1
 542 0 l 1,11,12
 530 -9 530 -9 516.5 -21 c 128,-1,13
 503 -33 503 -33 492 -46 c 128,-1,14
 481 -59 481 -59 473 -72 c 128,-1,15
 465 -85 465 -85 465 -95 c 0,16,17
 465 -107 465 -107 471.5 -115.5 c 128,-1,18
 478 -124 478 -124 497 -124 c 0,19,20
 506 -124 506 -124 519 -122.5 c 128,-1,21
 532 -121 532 -121 550 -115 c 1,22,-1
 558 -184 l 1,23,24
 542 -190 542 -190 512 -195 c 128,-1,25
 482 -200 482 -200 449 -200 c 0,26,27
 392 -200 392 -200 367.5 -178.5 c 128,-1,28
 343 -157 343 -157 343 -125 c 0,29,30
 343 -94 343 -94 362.5 -60 c 128,-1,31
 382 -26 382 -26 416 0 c 1,32,-1
 74 0 l 1,0,-1
EndSplineSet
EndChar

StartChar: eogonek
Encoding: 281 281 244
Width: 588
VWidth: 1177
Flags: W
LayerCount: 2
Fore
SplineSet
505 -184 m 1,0,1
 489 -190 489 -190 459 -195 c 128,-1,2
 429 -200 429 -200 396 -200 c 0,3,4
 339 -200 339 -200 314.5 -178.5 c 128,-1,5
 290 -157 290 -157 290 -125 c 0,6,7
 290 -98 290 -98 305 -68 c 128,-1,8
 320 -38 320 -38 347 -13 c 1,9,-1
 340 -13 l 2,10,11
 269 -13 269 -13 213.5 5.5 c 128,-1,12
 158 24 158 24 118.5 59.5 c 128,-1,13
 79 95 79 95 58 148 c 128,-1,14
 37 201 37 201 37 272 c 0,15,16
 37 345 37 345 59 400.5 c 128,-1,17
 81 456 81 456 117.5 493 c 128,-1,18
 154 530 154 530 201.5 549 c 128,-1,19
 249 568 249 568 298 568 c 0,20,21
 420 568 420 568 484 495.5 c 128,-1,22
 548 423 548 423 548 284 c 0,23,24
 548 270 548 270 547.5 254.5 c 128,-1,25
 547 239 547 239 545 230 c 1,26,-1
 186 230 l 1,27,28
 186 176 186 176 231 144.5 c 128,-1,29
 276 113 276 113 346 113 c 0,30,31
 390 113 390 113 429.5 122.5 c 128,-1,32
 469 132 469 132 496 141 c 1,33,-1
 516 20 l 1,34,-1
 505 13 l 2,35,36
 496 7 496 7 480 -6 c 128,-1,37
 464 -19 464 -19 449.5 -34 c 128,-1,38
 435 -49 435 -49 423.5 -65.5 c 128,-1,39
 412 -82 412 -82 412 -95 c 0,40,41
 412 -107 412 -107 418.5 -115.5 c 128,-1,42
 425 -124 425 -124 444 -124 c 0,43,44
 453 -124 453 -124 466 -122.5 c 128,-1,45
 479 -121 479 -121 497 -115 c 1,46,-1
 505 -184 l 1,0,1
408 330 m 1,47,48
 408 352 408 352 402 372.5 c 128,-1,49
 396 393 396 393 383 409.5 c 128,-1,50
 370 426 370 426 350 436 c 128,-1,51
 330 446 330 446 300 446 c 0,52,53
 272 446 272 446 251.5 437 c 128,-1,54
 231 428 231 428 217.5 411.5 c 128,-1,55
 204 395 204 395 196 373.5 c 128,-1,56
 188 352 188 352 186 330 c 1,57,-1
 408 330 l 1,47,48
EndSplineSet
Substitution2: "'case' Case-Sensitive Forms lookup 18 subtable" Eogonek
EndChar

StartChar: hcircumflex
Encoding: 293 293 256
Width: 588
VWidth: 1177
Flags: W
LayerCount: 2
Fore
SplineSet
74 0 m 1,0,-1
 74 746 l 1,1,-1
 219 770 l 1,2,-1
 219 549 l 1,3,4
 237 555 237 555 261.5 560 c 128,-1,5
 286 565 286 565 305 565 c 0,6,7
 366 565 366 565 407.5 547 c 128,-1,8
 449 529 449 529 473.5 495.5 c 128,-1,9
 498 462 498 462 508.5 415.5 c 128,-1,10
 519 369 519 369 519 312 c 2,11,-1
 519 0 l 1,12,-1
 375 0 l 1,13,-1
 375 293 l 2,14,15
 375 371 375 371 357 405 c 128,-1,16
 339 439 339 439 290 439 c 0,17,18
 270 439 270 439 250.5 434.5 c 128,-1,19
 231 430 231 430 219 426 c 1,20,-1
 219 0 l 1,21,-1
 74 0 l 1,0,-1
373 865 m 1,22,-1
 329 797 l 1,23,-1
 220 861 l 1,24,-1
 110 797 l 1,25,-1
 65 865 l 1,26,-1
 220 976 l 1,27,-1
 373 865 l 1,22,-1
EndSplineSet
Substitution2: "'case' Case-Sensitive Forms lookup 18 subtable" Hcircumflex
EndChar

StartChar: Hbar
Encoding: 294 294 257
Width: 588
VWidth: 1177
Flags: W
LayerCount: 2
Fore
SplineSet
516 729 m 1,0,-1
 516 644 l 1,1,-1
 569 644 l 1,2,-1
 569 528 l 1,3,-1
 516 528 l 1,4,-1
 516 0 l 1,5,-1
 370 0 l 1,6,-1
 370 299 l 1,7,-1
 219 299 l 1,8,-1
 219 0 l 1,9,-1
 74 0 l 1,10,-1
 74 528 l 1,11,-1
 21 528 l 1,12,-1
 21 644 l 1,13,-1
 74 644 l 1,14,-1
 74 729 l 1,15,-1
 219 729 l 1,16,-1
 219 644 l 1,17,-1
 370 644 l 1,18,-1
 370 729 l 1,19,-1
 516 729 l 1,0,-1
370 418 m 1,20,-1
 370 528 l 1,21,-1
 219 528 l 1,22,-1
 219 418 l 1,23,-1
 370 418 l 1,20,-1
EndSplineSet
EndChar

StartChar: hbar
Encoding: 295 295 258
Width: 588
VWidth: 1177
Flags: W
LayerCount: 2
Fore
SplineSet
94 0 m 1,0,-1
 94 627 l 1,1,-1
 29 627 l 1,2,-1
 29 724 l 1,3,-1
 94 724 l 1,4,-1
 94 793 l 1,5,-1
 240 817 l 1,6,-1
 240 724 l 1,7,-1
 390 724 l 1,8,-1
 390 627 l 1,9,-1
 240 627 l 1,10,-1
 240 549 l 1,11,12
 256 555 256 555 279 560 c 128,-1,13
 302 565 302 565 319 565 c 0,14,15
 377 565 377 565 415 547 c 128,-1,16
 453 529 453 529 476 495.5 c 128,-1,17
 499 462 499 462 509 415.5 c 128,-1,18
 519 369 519 369 519 312 c 2,19,-1
 519 0 l 1,20,-1
 375 0 l 1,21,-1
 375 293 l 2,22,23
 375 371 375 371 359.5 405 c 128,-1,24
 344 439 344 439 303 439 c 0,25,26
 287 439 287 439 268.5 434.5 c 128,-1,27
 250 430 250 430 240 426 c 1,28,-1
 240 0 l 1,29,-1
 94 0 l 1,0,-1
EndSplineSet
Substitution2: "'case' Case-Sensitive Forms lookup 18 subtable" Hbar
EndChar

StartChar: Iogonek
Encoding: 302 302 265
Width: 588
VWidth: 1177
Flags: W
LayerCount: 2
Fore
SplineSet
393 -184 m 1,0,1
 377 -190 377 -190 347 -195 c 128,-1,2
 317 -200 317 -200 284 -200 c 0,3,4
 227 -200 227 -200 202.5 -178.5 c 128,-1,5
 178 -157 178 -157 178 -125 c 0,6,7
 178 -94 178 -94 197.5 -60 c 128,-1,8
 217 -26 217 -26 251 0 c 1,9,-1
 64 0 l 1,10,-1
 64 120 l 1,11,-1
 223 120 l 1,12,-1
 223 609 l 1,13,-1
 64 609 l 1,14,-1
 64 729 l 1,15,-1
 527 729 l 1,16,-1
 527 609 l 1,17,-1
 369 609 l 1,18,-1
 369 120 l 1,19,-1
 527 120 l 1,20,-1
 527 0 l 1,21,-1
 376 0 l 1,22,23
 364 -9 364 -9 351 -21 c 128,-1,24
 338 -33 338 -33 327 -46 c 128,-1,25
 316 -59 316 -59 308 -72 c 128,-1,26
 300 -85 300 -85 300 -95 c 0,27,28
 300 -107 300 -107 306.5 -115.5 c 128,-1,29
 313 -124 313 -124 332 -124 c 0,30,31
 341 -124 341 -124 354 -122.5 c 128,-1,32
 367 -121 367 -121 385 -115 c 1,33,-1
 393 -184 l 1,0,1
EndSplineSet
EndChar

StartChar: iogonek
Encoding: 303 303 266
Width: 588
VWidth: 1177
Flags: W
LayerCount: 2
Fore
SplineSet
335 713 m 0,0,1
 335 671 335 671 307.5 646 c 128,-1,2
 280 621 280 621 243 621 c 256,3,4
 205 621 205 621 178.5 645.5 c 128,-1,5
 152 670 152 670 152 713 c 0,6,7
 152 757 152 757 178.5 781.5 c 128,-1,8
 205 806 205 806 243 806 c 256,9,10
 281 806 281 806 308 781.5 c 128,-1,11
 335 757 335 757 335 713 c 0,0,1
522 0 m 2,12,13
 510 -9 510 -9 496.5 -21 c 128,-1,14
 483 -33 483 -33 472 -46 c 128,-1,15
 461 -59 461 -59 453.5 -72 c 128,-1,16
 446 -85 446 -85 446 -95 c 0,17,18
 446 -107 446 -107 452.5 -115.5 c 128,-1,19
 459 -124 459 -124 478 -124 c 0,20,21
 487 -124 487 -124 500.5 -122.5 c 128,-1,22
 514 -121 514 -121 531 -115 c 1,23,-1
 539 -184 l 1,24,25
 493 -200 493 -200 442 -200 c 0,26,27
 418 -200 418 -200 397 -196 c 128,-1,28
 376 -192 376 -192 360 -183 c 128,-1,29
 344 -174 344 -174 334 -159.5 c 128,-1,30
 324 -145 324 -145 324 -125 c 0,31,32
 324 -98 324 -98 339.5 -68 c 128,-1,33
 355 -38 355 -38 382 -13 c 1,34,35
 329 -11 329 -11 293 6.5 c 128,-1,36
 257 24 257 24 235.5 55 c 128,-1,37
 214 86 214 86 205 130 c 128,-1,38
 196 174 196 174 196 230 c 2,39,-1
 196 433 l 1,40,-1
 42 433 l 1,41,-1
 42 554 l 1,42,-1
 340 554 l 1,43,-1
 340 210 l 2,44,45
 340 159 340 159 358.5 136 c 128,-1,46
 377 113 377 113 419 113 c 0,47,48
 439 113 439 113 467.5 118.5 c 128,-1,49
 496 124 496 124 531 140 c 1,50,-1
 550 21 l 1,51,-1
 522 0 l 2,12,13
EndSplineSet
Substitution2: "'case' Case-Sensitive Forms lookup 18 subtable" Iogonek
EndChar

StartChar: dotlessi
Encoding: 305 305 268
Width: 588
VWidth: 1177
Flags: W
LayerCount: 2
Fore
SplineSet
550 24 m 1,0,1
 505 3 505 3 465.5 -5 c 128,-1,2
 426 -13 426 -13 393 -13 c 0,3,4
 336 -13 336 -13 298 3.5 c 128,-1,5
 260 20 260 20 237 51 c 128,-1,6
 214 82 214 82 205 127 c 128,-1,7
 196 172 196 172 196 230 c 2,8,-1
 196 433 l 1,9,-1
 42 433 l 1,10,-1
 42 554 l 1,11,-1
 340 554 l 1,12,-1
 340 211 l 2,13,14
 340 162 340 162 358.5 137.5 c 128,-1,15
 377 113 377 113 419 113 c 0,16,17
 439 113 439 113 467.5 118.5 c 128,-1,18
 496 124 496 124 531 140 c 1,19,-1
 550 24 l 1,0,1
EndSplineSet
EndChar

StartChar: IJ
Encoding: 306 306 270
Width: 588
VWidth: 1177
Flags: W
LayerCount: 2
Fore
SplineSet
28 0 m 1,0,-1
 28 729 l 1,1,-1
 173 729 l 1,2,-1
 173 0 l 1,3,-1
 28 0 l 1,0,-1
565 229 m 2,4,5
 565 156 565 156 549.5 108.5 c 128,-1,6
 534 61 534 61 505.5 34 c 128,-1,7
 477 7 477 7 440 -4 c 128,-1,8
 403 -15 403 -15 360 -15 c 0,9,10
 319 -15 319 -15 282.5 -5 c 128,-1,11
 246 5 246 5 204 34 c 1,12,-1
 260 150 l 1,13,14
 278 134 278 134 297.5 122.5 c 128,-1,15
 317 111 317 111 347 111 c 0,16,17
 362 111 362 111 376 115.5 c 128,-1,18
 390 120 390 120 399.5 133.5 c 128,-1,19
 409 147 409 147 414 172 c 128,-1,20
 419 197 419 197 419 238 c 2,21,-1
 419 729 l 1,22,-1
 565 729 l 1,23,-1
 565 229 l 2,4,5
EndSplineSet
EndChar

StartChar: ij
Encoding: 307 307 271
Width: 588
VWidth: 1177
Flags: W
LayerCount: 2
Fore
SplineSet
231 0 m 1,0,-1
 86 0 l 1,1,-1
 86 554 l 1,2,-1
 231 554 l 1,3,-1
 231 0 l 1,0,-1
252 713 m 0,4,5
 252 669 252 669 224 645 c 128,-1,6
 196 621 196 621 158 621 c 256,7,8
 120 621 120 621 92.5 645 c 128,-1,9
 65 669 65 669 65 713 c 0,10,11
 65 758 65 758 92.5 782 c 128,-1,12
 120 806 120 806 158 806 c 256,13,14
 196 806 196 806 224 782 c 128,-1,15
 252 758 252 758 252 713 c 0,4,5
305 -194 m 0,16,17
 290 -194 290 -194 261 -192 c 128,-1,18
 232 -190 232 -190 207 -180 c 1,19,-1
 227 -61 l 1,20,21
 243 -67 243 -67 256.5 -69 c 128,-1,22
 270 -71 270 -71 290 -71 c 0,23,24
 328 -71 328 -71 342 -48.5 c 128,-1,25
 356 -26 356 -26 356 15 c 2,26,-1
 356 554 l 1,27,-1
 502 554 l 1,28,-1
 502 20 l 2,29,30
 502 -91 502 -91 454 -142.5 c 128,-1,31
 406 -194 406 -194 305 -194 c 0,16,17
522 713 m 0,32,33
 522 669 522 669 493.5 645 c 128,-1,34
 465 621 465 621 428 621 c 256,35,36
 390 621 390 621 362.5 645 c 128,-1,37
 335 669 335 669 335 713 c 0,38,39
 335 758 335 758 362.5 782 c 128,-1,40
 390 806 390 806 428 806 c 256,41,42
 466 806 466 806 494 782 c 128,-1,43
 522 758 522 758 522 713 c 0,32,33
EndSplineSet
Substitution2: "'case' Case-Sensitive Forms lookup 18 subtable" IJ
EndChar

StartChar: kgreenlandic.case
Encoding: 65538 -1 276
Width: 588
VWidth: 1177
Flags: W
LayerCount: 2
Fore
SplineSet
339 0 m 1,0,1
 330 41 330 41 313 89 c 128,-1,2
 296 137 296 137 274.5 182 c 128,-1,3
 253 227 253 227 230.5 266.5 c 128,-1,4
 208 306 208 306 187 333 c 1,5,-1
 187 0 l 1,6,-1
 53 0 l 1,7,-1
 53 729 l 1,8,-1
 187 729 l 1,9,-1
 187 426 l 1,10,11
 205 459 205 459 224 499 c 128,-1,12
 243 539 243 539 259.5 579.5 c 128,-1,13
 276 620 276 620 290 658.5 c 128,-1,14
 304 697 304 697 313 729 c 1,15,-1
 466 729 l 1,16,17
 454 697 454 697 435.5 657 c 128,-1,18
 417 617 417 617 392 573 c 128,-1,19
 367 529 367 529 337 482 c 128,-1,20
 307 435 307 435 274 389 c 1,21,22
 316 349 316 349 350.5 300 c 128,-1,23
 385 251 385 251 411.5 199 c 128,-1,24
 438 147 438 147 458 95.5 c 128,-1,25
 478 44 478 44 492 0 c 1,26,-1
 339 0 l 1,0,1
475 521 m 1,27,28
 473 537 473 537 471.5 554 c 128,-1,29
 470 571 470 571 471 587 c 0,30,31
 473 626 473 626 479 656.5 c 128,-1,32
 485 687 485 687 494 713 c 128,-1,33
 503 739 503 739 516 763 c 128,-1,34
 529 787 529 787 545 814 c 1,35,-1
 627 795 l 1,36,37
 605 737 605 737 596 685 c 128,-1,38
 587 633 587 633 587 577 c 0,39,40
 587 562 587 562 587.5 546.5 c 128,-1,41
 588 531 588 531 590 521 c 1,42,-1
 475 521 l 1,27,28
EndSplineSet
EndChar

StartChar: kgreenlandic
Encoding: 312 312 277
Width: 588
VWidth: 1177
Flags: W
LayerCount: 2
Fore
SplineSet
220 335 m 1,0,1
 241 360 241 360 263 387.5 c 128,-1,2
 285 415 285 415 305.5 444 c 128,-1,3
 326 473 326 473 345 501 c 128,-1,4
 364 529 364 529 378 554 c 1,5,-1
 552 554 l 1,6,7
 531 527 531 527 504 495 c 128,-1,8
 477 463 477 463 448 430 c 128,-1,9
 419 397 419 397 390.5 366.5 c 128,-1,10
 362 336 362 336 338 310 c 1,11,12
 367 282 367 282 401.5 242.5 c 128,-1,13
 436 203 436 203 469 160.5 c 128,-1,14
 502 118 502 118 529.5 75.5 c 128,-1,15
 557 33 557 33 574 0 c 1,16,-1
 408 0 l 1,17,18
 394 29 394 29 370.5 66.5 c 128,-1,19
 347 104 347 104 321.5 140 c 128,-1,20
 296 176 296 176 269.5 208 c 128,-1,21
 243 240 243 240 220 261 c 1,22,-1
 220 0 l 1,23,-1
 74 0 l 1,24,-1
 74 552 l 1,25,-1
 220 554 l 1,26,-1
 220 335 l 1,0,1
EndSplineSet
Substitution2: "'case' Case-Sensitive Forms lookup 18 subtable" kgreenlandic.case
EndChar

StartChar: lacute
Encoding: 314 314 279
Width: 588
VWidth: 1177
Flags: W
LayerCount: 2
Fore
SplineSet
550 24 m 2,0,1
 546 22 546 22 534 15.5 c 128,-1,2
 522 9 522 9 502 2.5 c 128,-1,3
 482 -4 482 -4 453 -8.5 c 128,-1,4
 424 -13 424 -13 388 -13 c 0,5,6
 288 -13 288 -13 242 46.5 c 128,-1,7
 196 106 196 106 196 220 c 2,8,-1
 196 640 l 1,9,-1
 42 640 l 1,10,-1
 42 760 l 1,11,-1
 340 760 l 1,12,-1
 340 210 l 2,13,14
 340 153 340 153 362.5 133 c 128,-1,15
 385 113 385 113 419 113 c 0,16,17
 463 113 463 113 492.5 125 c 128,-1,18
 522 137 522 137 531 140 c 1,19,-1
 550 24 l 2,0,1
415 870 m 1,20,-1
 185 797 l 1,21,-1
 153 870 l 1,22,-1
 377 976 l 1,23,-1
 415 870 l 1,20,-1
EndSplineSet
Substitution2: "'case' Case-Sensitive Forms lookup 18 subtable" Lacute
EndChar

StartChar: Ldot
Encoding: 319 319 284
Width: 588
VWidth: 1177
Flags: W
LayerCount: 2
Fore
SplineSet
539 424 m 256,0,1
 539 377 539 377 509 352 c 128,-1,2
 479 327 479 327 442 327 c 256,3,4
 404 327 404 327 374 352 c 128,-1,5
 344 377 344 377 344 424 c 256,6,7
 344 471 344 471 374 496 c 128,-1,8
 404 521 404 521 442 521 c 256,9,10
 480 521 480 521 509.5 496 c 128,-1,11
 539 471 539 471 539 424 c 256,0,1
542 0 m 1,12,-1
 84 0 l 1,13,-1
 84 729 l 1,14,-1
 230 729 l 1,15,-1
 230 120 l 1,16,-1
 542 120 l 1,17,-1
 542 0 l 1,12,-1
EndSplineSet
EndChar

StartChar: ldot
Encoding: 320 320 285
Width: 588
VWidth: 1177
Flags: W
LayerCount: 2
Fore
SplineSet
669 433 m 256,0,1
 669 386 669 386 639 361.5 c 128,-1,2
 609 337 609 337 571 337 c 256,3,4
 533 337 533 337 503 361.5 c 128,-1,5
 473 386 473 386 473 433 c 256,6,7
 473 480 473 480 503.5 505 c 128,-1,8
 534 530 534 530 571 530 c 256,9,10
 609 530 609 530 639 505 c 128,-1,11
 669 480 669 480 669 433 c 256,0,1
550 24 m 2,12,13
 546 22 546 22 534 15.5 c 128,-1,14
 522 9 522 9 502 2.5 c 128,-1,15
 482 -4 482 -4 453 -8.5 c 128,-1,16
 424 -13 424 -13 388 -13 c 0,17,18
 288 -13 288 -13 242 46.5 c 128,-1,19
 196 106 196 106 196 220 c 2,20,-1
 196 696 l 1,21,-1
 42 696 l 1,22,-1
 42 816 l 1,23,-1
 340 816 l 1,24,-1
 340 210 l 2,25,26
 340 153 340 153 362.5 133 c 128,-1,27
 385 113 385 113 419 113 c 0,28,29
 463 113 463 113 492.5 125 c 128,-1,30
 522 137 522 137 531 140 c 1,31,-1
 550 24 l 2,12,13
EndSplineSet
Substitution2: "'case' Case-Sensitive Forms lookup 18 subtable" Ldot
EndChar

StartChar: Lslash
Encoding: 321 321 286
Width: 588
VWidth: 1177
Flags: W
LayerCount: 2
Fore
SplineSet
251 344 m 1,0,-1
 251 120 l 1,1,-1
 542 120 l 1,2,-1
 542 0 l 1,3,-1
 105 0 l 1,4,-1
 105 271 l 1,5,-1
 40 239 l 1,6,-1
 -12 345 l 1,7,-1
 105 404 l 1,8,-1
 105 729 l 1,9,-1
 251 729 l 1,10,-1
 251 477 l 1,11,-1
 378 541 l 1,12,-1
 429 435 l 1,13,-1
 251 344 l 1,0,-1
EndSplineSet
EndChar

StartChar: lslash
Encoding: 322 322 287
Width: 588
VWidth: 1177
Flags: W
LayerCount: 2
Fore
SplineSet
550 24 m 2,0,1
 546 22 546 22 534 15.5 c 128,-1,2
 522 9 522 9 502 2.5 c 128,-1,3
 482 -4 482 -4 453 -8.5 c 128,-1,4
 424 -13 424 -13 388 -13 c 0,5,6
 288 -13 288 -13 242 46.5 c 128,-1,7
 196 106 196 106 196 220 c 2,8,-1
 196 352 l 1,9,-1
 131 319 l 1,10,-1
 84 417 l 1,11,-1
 196 472 l 1,12,-1
 196 690 l 1,13,-1
 42 690 l 1,14,-1
 42 810 l 1,15,-1
 340 810 l 1,16,-1
 340 544 l 1,17,-1
 416 582 l 1,18,-1
 463 485 l 1,19,-1
 340 424 l 1,20,-1
 340 210 l 2,21,22
 340 153 340 153 362.5 133 c 128,-1,23
 385 113 385 113 419 113 c 0,24,25
 463 113 463 113 492.5 125 c 128,-1,26
 522 137 522 137 531 140 c 1,27,-1
 550 24 l 2,0,1
EndSplineSet
Substitution2: "'case' Case-Sensitive Forms lookup 18 subtable" Lslash
EndChar

StartChar: napostrophe.case
Encoding: 65539 -1 294
Width: 588
VWidth: 1177
Flags: W
LayerCount: 2
Fore
SplineSet
446 0 m 1,0,1
 426 61 426 61 408.5 117 c 128,-1,2
 391 173 391 173 374.5 228 c 128,-1,3
 358 283 358 283 340.5 340.5 c 128,-1,4
 323 398 323 398 304 463 c 1,5,-1
 304 0 l 1,6,-1
 201 0 l 1,7,-1
 201 729 l 1,8,-1
 290 729 l 1,9,10
 305 683 305 683 322.5 630 c 128,-1,11
 340 577 340 577 358.5 521.5 c 128,-1,12
 377 466 377 466 396 410.5 c 128,-1,13
 415 355 415 355 431 302 c 1,14,-1
 431 729 l 1,15,-1
 535 729 l 1,16,-1
 535 0 l 1,17,-1
 446 0 l 1,0,1
163 816 m 1,18,-1
 163 771 l 2,19,20
 161 738 161 738 155.5 711 c 128,-1,21
 150 684 150 684 141 660.5 c 128,-1,22
 132 637 132 637 119.5 615.5 c 128,-1,23
 107 594 107 594 92 570 c 1,24,-1
 11 594 l 1,25,26
 33 641 33 641 42 682.5 c 128,-1,27
 51 724 51 724 51 769 c 0,28,29
 51 782 51 782 50 794.5 c 128,-1,30
 49 807 49 807 47 816 c 1,31,-1
 163 816 l 1,18,-1
EndSplineSet
EndChar

StartChar: Eng
Encoding: 330 330 296
Width: 588
VWidth: 1177
Flags: W
LayerCount: 2
Fore
SplineSet
404 35 m 1,0,1
 357 147 357 147 302 259 c 128,-1,2
 247 371 247 371 185 484 c 1,3,-1
 185 0 l 1,4,-1
 54 0 l 1,5,-1
 54 729 l 1,6,-1
 171 729 l 1,7,8
 204 677 204 677 237 616.5 c 128,-1,9
 270 556 270 556 301 496 c 128,-1,10
 332 436 332 436 358.5 379.5 c 128,-1,11
 385 323 385 323 404 280 c 1,12,-1
 404 729 l 1,13,-1
 535 729 l 1,14,-1
 535 9 l 2,15,16
 535 -93 535 -93 493 -145 c 128,-1,17
 451 -197 451 -197 359 -197 c 0,18,19
 346 -197 346 -197 325 -194.5 c 128,-1,20
 304 -192 304 -192 283 -183 c 1,21,-1
 304 -64 l 1,22,23
 326 -73 326 -73 347 -73 c 0,24,25
 380 -73 380 -73 392 -53 c 128,-1,26
 404 -33 404 -33 404 5 c 2,27,-1
 404 35 l 1,0,1
EndSplineSet
EndChar

StartChar: eng
Encoding: 331 331 297
Width: 588
VWidth: 1177
Flags: W
LayerCount: 2
Fore
SplineSet
375 293 m 2,0,1
 375 371 375 371 357 405 c 128,-1,2
 339 439 339 439 285 439 c 0,3,4
 269 439 269 439 253 438 c 128,-1,5
 237 437 237 437 219 435 c 1,6,-1
 219 0 l 1,7,-1
 74 0 l 1,8,-1
 74 536 l 1,9,10
 113 547 113 547 170 556 c 128,-1,11
 227 565 227 565 294 565 c 0,12,13
 360 565 360 565 404 547 c 128,-1,14
 448 529 448 529 473 495.5 c 128,-1,15
 498 462 498 462 508.5 415.5 c 128,-1,16
 519 369 519 369 519 312 c 2,17,-1
 519 4 l 2,18,19
 519 -97 519 -97 476 -145.5 c 128,-1,20
 433 -194 433 -194 335 -194 c 0,21,22
 322 -194 322 -194 297.5 -192.5 c 128,-1,23
 273 -191 273 -191 251 -181 c 1,24,-1
 270 -69 l 1,25,26
 292 -76 292 -76 317 -77 c 0,27,28
 375 -77 375 -77 375 -2 c 2,29,-1
 375 293 l 2,0,1
EndSplineSet
Substitution2: "'case' Case-Sensitive Forms lookup 18 subtable" Eng
EndChar

StartChar: Scedilla
Encoding: 350 350 314
Width: 588
VWidth: 1177
Flags: W
LayerCount: 2
Fore
SplineSet
306 -28 m 1,0,1
 345 -40 345 -40 360.5 -63 c 128,-1,2
 376 -86 376 -86 376 -107 c 0,3,4
 376 -134 376 -134 363.5 -152 c 128,-1,5
 351 -170 351 -170 331.5 -180.5 c 128,-1,6
 312 -191 312 -191 286 -195.5 c 128,-1,7
 260 -200 260 -200 234 -200 c 0,8,9
 181 -200 181 -200 140 -187 c 1,10,-1
 155 -113 l 1,11,12
 162 -115 162 -115 182.5 -119.5 c 128,-1,13
 203 -124 203 -124 221 -124 c 0,14,15
 269 -124 269 -124 270 -94 c 0,16,17
 270 -72 270 -72 227 -58 c 2,18,-1
 204 -51 l 1,19,20
 206 -42 206 -42 210 -32 c 128,-1,21
 214 -22 214 -22 218 -13 c 1,22,23
 152 -7 152 -7 111.5 9.5 c 128,-1,24
 71 26 71 26 47 40 c 1,25,-1
 90 158 l 1,26,27
 122 139 122 139 166 122.5 c 128,-1,28
 210 106 210 106 273 106 c 0,29,30
 310 106 310 106 334 113.5 c 128,-1,31
 358 121 358 121 372 134.5 c 128,-1,32
 386 148 386 148 391.5 165.5 c 128,-1,33
 397 183 397 183 397 200 c 0,34,35
 397 222 397 222 384 240 c 128,-1,36
 371 258 371 258 351 271.5 c 128,-1,37
 331 285 331 285 306.5 296 c 128,-1,38
 282 307 282 307 257 317 c 0,39,40
 224 329 224 329 188.5 344 c 128,-1,41
 153 359 153 359 124 382.5 c 128,-1,42
 95 406 95 406 76.5 441 c 128,-1,43
 58 476 58 476 58 528 c 0,44,45
 58 630 58 630 124.5 688 c 128,-1,46
 191 746 191 746 307 746 c 0,47,48
 374 746 374 746 424.5 730.5 c 128,-1,49
 475 715 475 715 509 696 c 1,50,-1
 466 584 l 1,51,52
 437 600 437 600 401 612 c 128,-1,53
 365 624 365 624 318 624 c 0,54,55
 203 624 203 624 203 541 c 0,56,57
 203 520 203 520 214.5 504 c 128,-1,58
 226 488 226 488 244.5 475.5 c 128,-1,59
 263 463 263 463 286 453.5 c 128,-1,60
 309 444 309 444 331 436 c 0,61,62
 365 423 365 423 402 407 c 128,-1,63
 439 391 439 391 470.5 364.5 c 128,-1,64
 502 338 502 338 522 298.5 c 128,-1,65
 542 259 542 259 542 199 c 0,66,67
 542 104 542 104 485 49 c 128,-1,68
 428 -6 428 -6 312 -14 c 1,69,70
 307 -23 307 -23 306 -28 c 1,0,1
EndSplineSet
EndChar

StartChar: scedilla
Encoding: 351 351 315
Width: 588
VWidth: 1177
Flags: W
LayerCount: 2
Fore
SplineSet
318 -28 m 1,0,1
 357 -40 357 -40 372.5 -63 c 128,-1,2
 388 -86 388 -86 388 -107 c 0,3,4
 388 -134 388 -134 375.5 -152 c 128,-1,5
 363 -170 363 -170 343.5 -180.5 c 128,-1,6
 324 -191 324 -191 298 -195.5 c 128,-1,7
 272 -200 272 -200 246 -200 c 0,8,9
 193 -200 193 -200 152 -187 c 1,10,-1
 167 -113 l 1,11,12
 174 -115 174 -115 194 -119.5 c 128,-1,13
 214 -124 214 -124 233 -124 c 0,14,15
 281 -124 281 -124 282 -94 c 0,16,17
 282 -72 282 -72 239 -58 c 2,18,-1
 216 -51 l 1,19,20
 218 -42 218 -42 222 -31.5 c 128,-1,21
 226 -21 226 -21 231 -12 c 1,22,23
 173 -7 173 -7 131.5 7 c 128,-1,24
 90 21 90 21 64 33 c 1,25,-1
 86 154 l 1,26,27
 127 138 127 138 173.5 124 c 128,-1,28
 220 110 220 110 269 110 c 0,29,30
 322 110 322 110 350 117.5 c 128,-1,31
 378 125 378 125 378 148 c 0,32,33
 378 163 378 163 369 174 c 128,-1,34
 360 185 360 185 344.5 192.5 c 128,-1,35
 329 200 329 200 308 207 c 128,-1,36
 287 214 287 214 265 221 c 0,37,38
 233 230 233 230 200 243 c 128,-1,39
 167 256 167 256 140 274.5 c 128,-1,40
 113 293 113 293 95.5 322 c 128,-1,41
 78 351 78 351 78 395 c 0,42,43
 78 430 78 430 91.5 461 c 128,-1,44
 105 492 105 492 134 516.5 c 128,-1,45
 163 541 163 541 207.5 554.5 c 128,-1,46
 252 568 252 568 314 568 c 0,47,48
 368 568 368 568 415 559.5 c 128,-1,49
 462 551 462 551 496 536 c 1,50,-1
 473 413 l 1,51,52
 453 419 453 419 411 432.5 c 128,-1,53
 369 446 369 446 316 446 c 0,54,55
 261 446 261 446 241 432.5 c 128,-1,56
 221 419 221 419 221 404 c 0,57,58
 221 391 221 391 230 381 c 128,-1,59
 239 371 239 371 254 363 c 128,-1,60
 269 355 269 355 288 347 c 128,-1,61
 307 339 307 339 330 332 c 0,62,63
 362 321 362 321 396 308.5 c 128,-1,64
 430 296 430 296 457.5 276.5 c 128,-1,65
 485 257 485 257 503 227 c 128,-1,66
 521 197 521 197 521 153 c 0,67,68
 521 122 521 122 510 94.5 c 128,-1,69
 499 67 499 67 476 46 c 128,-1,70
 453 25 453 25 416 10 c 128,-1,71
 379 -5 379 -5 325 -9 c 1,72,-1
 318 -28 l 1,0,1
EndSplineSet
Substitution2: "'case' Case-Sensitive Forms lookup 18 subtable" Scedilla
EndChar

StartChar: uni0162
Encoding: 354 354 316
Width: 588
VWidth: 1177
Flags: W
LayerCount: 2
Fore
SplineSet
322 -28 m 1,0,1
 361 -40 361 -40 376 -63 c 128,-1,2
 391 -86 391 -86 391 -107 c 0,3,4
 391 -134 391 -134 378.5 -152 c 128,-1,5
 366 -170 366 -170 346.5 -180.5 c 128,-1,6
 327 -191 327 -191 301.5 -195.5 c 128,-1,7
 276 -200 276 -200 250 -200 c 0,8,9
 197 -200 197 -200 155 -187 c 1,10,-1
 171 -113 l 1,11,12
 178 -115 178 -115 198 -119.5 c 128,-1,13
 218 -124 218 -124 237 -124 c 0,14,15
 285 -124 285 -124 285 -94 c 0,16,17
 285 -72 285 -72 243 -58 c 2,18,-1
 219 -51 l 1,19,20
 223 -38 223 -38 228 -24.5 c 128,-1,21
 233 -11 233 -11 239 0 c 1,22,-1
 221 0 l 1,23,-1
 221 609 l 1,24,-1
 29 609 l 1,25,-1
 29 729 l 1,26,-1
 559 729 l 1,27,-1
 559 609 l 1,28,-1
 367 609 l 1,29,-1
 367 0 l 1,30,-1
 333 0 l 1,31,32
 328 -9 328 -9 322 -28 c 1,0,1
EndSplineSet
EndChar

StartChar: uni0163
Encoding: 355 355 317
Width: 588
VWidth: 1177
Flags: W
LayerCount: 2
Fore
SplineSet
404 -28 m 1,0,1
 443 -40 443 -40 458 -63 c 128,-1,2
 473 -86 473 -86 473 -107 c 0,3,4
 473 -134 473 -134 461 -152 c 128,-1,5
 449 -170 449 -170 429.5 -180.5 c 128,-1,6
 410 -191 410 -191 384 -195.5 c 128,-1,7
 358 -200 358 -200 332 -200 c 0,8,9
 279 -200 279 -200 238 -187 c 1,10,-1
 253 -113 l 1,11,12
 260 -115 260 -115 280 -119.5 c 128,-1,13
 300 -124 300 -124 319 -124 c 0,14,15
 367 -124 367 -124 367 -94 c 0,16,17
 367 -72 367 -72 325 -58 c 2,18,-1
 302 -51 l 1,19,20
 304 -40 304 -40 308 -29.5 c 128,-1,21
 312 -19 312 -19 317 -9 c 1,22,23
 282 -5 282 -5 254 7 c 128,-1,24
 226 19 226 19 207 43.5 c 128,-1,25
 188 68 188 68 178 107.5 c 128,-1,26
 168 147 168 147 168 206 c 2,27,-1
 168 433 l 1,28,-1
 42 433 l 1,29,-1
 42 554 l 1,30,-1
 168 554 l 1,31,-1
 168 693 l 1,32,-1
 313 716 l 1,33,-1
 313 554 l 1,34,-1
 545 554 l 1,35,-1
 545 433 l 1,36,-1
 313 433 l 1,37,-1
 313 210 l 2,38,39
 313 179 313 179 319 160 c 128,-1,40
 325 141 325 141 335.5 130.5 c 128,-1,41
 346 120 346 120 361.5 116.5 c 128,-1,42
 377 113 377 113 396 113 c 0,43,44
 416 113 416 113 433 114 c 128,-1,45
 450 115 450 115 466 118 c 128,-1,46
 482 121 482 121 499 127 c 128,-1,47
 516 133 516 133 536 143 c 1,48,-1
 556 18 l 1,49,50
 523 5 523 5 485.5 -2 c 128,-1,51
 448 -9 448 -9 410 -12 c 1,52,-1
 404 -28 l 1,0,1
EndSplineSet
Substitution2: "'case' Case-Sensitive Forms lookup 18 subtable" uni0162
EndChar

StartChar: Tbar
Encoding: 358 358 320
Width: 588
VWidth: 1177
Flags: W
LayerCount: 2
Fore
SplineSet
559 729 m 1,0,-1
 559 609 l 1,1,-1
 367 609 l 1,2,-1
 367 397 l 1,3,-1
 516 397 l 1,4,-1
 516 280 l 1,5,-1
 367 280 l 1,6,-1
 367 0 l 1,7,-1
 221 0 l 1,8,-1
 221 280 l 1,9,-1
 74 280 l 1,10,-1
 74 397 l 1,11,-1
 221 397 l 1,12,-1
 221 609 l 1,13,-1
 29 609 l 1,14,-1
 29 729 l 1,15,-1
 559 729 l 1,0,-1
EndSplineSet
EndChar

StartChar: tbar
Encoding: 359 359 321
Width: 588
VWidth: 1177
Flags: W
LayerCount: 2
Fore
SplineSet
168 240 m 1,0,-1
 42 240 l 1,1,-1
 42 339 l 1,2,-1
 168 339 l 1,3,-1
 168 433 l 1,4,-1
 42 433 l 1,5,-1
 42 554 l 1,6,-1
 168 554 l 1,7,-1
 168 693 l 1,8,-1
 313 716 l 1,9,-1
 313 554 l 1,10,-1
 545 554 l 1,11,-1
 545 433 l 1,12,-1
 313 433 l 1,13,-1
 313 339 l 1,14,-1
 544 339 l 1,15,-1
 544 240 l 1,16,-1
 313 240 l 1,17,-1
 313 210 l 2,18,19
 313 179 313 179 319 160 c 128,-1,20
 325 141 325 141 335.5 130.5 c 128,-1,21
 346 120 346 120 361.5 116.5 c 128,-1,22
 377 113 377 113 396 113 c 0,23,24
 416 113 416 113 433 114 c 128,-1,25
 450 115 450 115 466 118 c 128,-1,26
 482 121 482 121 499 127 c 128,-1,27
 516 133 516 133 536 143 c 1,28,-1
 556 18 l 1,29,30
 516 2 516 2 469.5 -5.5 c 128,-1,31
 423 -13 423 -13 379 -13 c 0,32,33
 328 -13 328 -13 289.5 -4.5 c 128,-1,34
 251 4 251 4 224 27.5 c 128,-1,35
 197 51 197 51 182.5 94 c 128,-1,36
 168 137 168 137 168 206 c 2,37,-1
 168 240 l 1,0,-1
EndSplineSet
Substitution2: "'case' Case-Sensitive Forms lookup 18 subtable" Tbar
EndChar

StartChar: Uring
Encoding: 366 366 328
Width: 588
VWidth: 1177
Flags: W
LayerCount: 2
Fore
SplineSet
292 -15 m 0,0,1
 221 -15 221 -15 173.5 4.5 c 128,-1,2
 126 24 126 24 97.5 60.5 c 128,-1,3
 69 97 69 97 57.5 148.5 c 128,-1,4
 46 200 46 200 46 264 c 2,5,-1
 46 706 l 1,6,-1
 192 706 l 1,7,-1
 192 273 l 2,8,9
 192 227 192 227 196.5 196 c 128,-1,10
 201 165 201 165 212.5 146 c 128,-1,11
 224 127 224 127 244 119 c 128,-1,12
 264 111 264 111 294 111 c 256,13,14
 325 111 325 111 345 119 c 128,-1,15
 365 127 365 127 377 146.5 c 128,-1,16
 389 166 389 166 393.5 197.5 c 128,-1,17
 398 229 398 229 398 274 c 2,18,-1
 398 706 l 1,19,-1
 543 706 l 1,20,-1
 543 264 l 2,21,22
 543 200 543 200 531 148.5 c 128,-1,23
 519 97 519 97 490 60.5 c 128,-1,24
 461 24 461 24 412.5 4.5 c 128,-1,25
 364 -15 364 -15 292 -15 c 0,0,1
418 852 m 0,26,27
 418 793 418 793 381 762 c 128,-1,28
 344 731 344 731 293 731 c 0,29,30
 269 731 269 731 247 739 c 128,-1,31
 225 747 225 747 208 762 c 128,-1,32
 191 777 191 777 181 799.5 c 128,-1,33
 171 822 171 822 171 852 c 256,34,35
 171 881 171 881 181 904 c 128,-1,36
 191 927 191 927 208 942.5 c 128,-1,37
 225 958 225 958 247.5 965.5 c 128,-1,38
 270 973 270 973 293 973 c 0,39,40
 344 973 344 973 381 942.5 c 128,-1,41
 418 912 418 912 418 852 c 0,26,27
342 852 m 0,42,43
 342 877 342 877 327.5 889 c 128,-1,44
 313 901 313 901 293 901 c 0,45,46
 275 901 275 901 260.5 888.5 c 128,-1,47
 246 876 246 876 246 852 c 256,48,49
 246 828 246 828 261 815 c 128,-1,50
 276 802 276 802 293 802 c 0,51,52
 313 802 313 802 327.5 815 c 128,-1,53
 342 828 342 828 342 852 c 0,42,43
EndSplineSet
EndChar

StartChar: Uogonek
Encoding: 370 370 332
Width: 588
VWidth: 1177
Flags: W
LayerCount: 2
Fore
SplineSet
461 28 m 0,0,1
 453 22 453 22 435.5 7 c 128,-1,2
 418 -8 418 -8 400.5 -26.5 c 128,-1,3
 383 -45 383 -45 369.5 -63 c 128,-1,4
 356 -81 356 -81 356 -95 c 0,5,6
 356 -107 356 -107 362.5 -115.5 c 128,-1,7
 369 -124 369 -124 388 -124 c 0,8,9
 397 -124 397 -124 410 -122.5 c 128,-1,10
 423 -121 423 -121 441 -115 c 1,11,-1
 449 -184 l 1,12,13
 433 -190 433 -190 402.5 -195 c 128,-1,14
 372 -200 372 -200 339 -200 c 0,15,16
 282 -200 282 -200 257.5 -178.5 c 128,-1,17
 233 -157 233 -157 233 -125 c 0,18,19
 233 -98 233 -98 248 -69 c 128,-1,20
 263 -40 263 -40 289 -15 c 1,21,22
 218 -15 218 -15 171.5 5 c 128,-1,23
 125 25 125 25 97 61.5 c 128,-1,24
 69 98 69 98 57.5 149 c 128,-1,25
 46 200 46 200 46 264 c 2,26,-1
 46 729 l 1,27,-1
 192 729 l 1,28,-1
 192 273 l 2,29,30
 192 227 192 227 196.5 196 c 128,-1,31
 201 165 201 165 212.5 146 c 128,-1,32
 224 127 224 127 244 119 c 128,-1,33
 264 111 264 111 294 111 c 256,34,35
 325 111 325 111 345 119 c 128,-1,36
 365 127 365 127 377 146.5 c 128,-1,37
 389 166 389 166 393.5 197.5 c 128,-1,38
 398 229 398 229 398 274 c 2,39,-1
 398 729 l 1,40,-1
 543 729 l 1,41,-1
 543 264 l 2,42,43
 543 184 543 184 525.5 125.5 c 128,-1,44
 508 67 508 67 461 28 c 0,0,1
EndSplineSet
EndChar

StartChar: uogonek
Encoding: 371 371 333
Width: 588
VWidth: 1177
Flags: W
LayerCount: 2
Fore
SplineSet
511 -184 m 1,0,1
 495 -190 495 -190 465 -195 c 128,-1,2
 435 -200 435 -200 402 -200 c 0,3,4
 345 -200 345 -200 320.5 -178.5 c 128,-1,5
 296 -157 296 -157 296 -125 c 0,6,7
 296 -97 296 -97 312.5 -65.5 c 128,-1,8
 329 -34 329 -34 358 -8 c 1,9,10
 342 -10 342 -10 326 -11.5 c 128,-1,11
 310 -13 310 -13 294 -13 c 0,12,13
 226 -13 226 -13 182.5 6 c 128,-1,14
 139 25 139 25 113.5 59.5 c 128,-1,15
 88 94 88 94 78.5 141 c 128,-1,16
 69 188 69 188 69 245 c 2,17,-1
 69 554 l 1,18,-1
 214 554 l 1,19,-1
 214 264 l 2,20,21
 214 187 214 187 232.5 150 c 128,-1,22
 251 113 251 113 304 113 c 0,23,24
 337 113 337 113 370 119 c 1,25,-1
 370 554 l 1,26,-1
 516 554 l 1,27,-1
 516 19 l 1,28,29
 508 13 508 13 492 -0.5 c 128,-1,30
 476 -14 476 -14 459.5 -30.5 c 128,-1,31
 443 -47 443 -47 430.5 -64 c 128,-1,32
 418 -81 418 -81 418 -95 c 0,33,34
 418 -107 418 -107 424.5 -115.5 c 128,-1,35
 431 -124 431 -124 450 -124 c 0,36,37
 459 -124 459 -124 472 -122.5 c 128,-1,38
 485 -121 485 -121 503 -115 c 1,39,-1
 511 -184 l 1,0,1
EndSplineSet
Substitution2: "'case' Case-Sensitive Forms lookup 18 subtable" Uogonek
EndChar

StartChar: longs
Encoding: 383 383 344
Width: 588
VWidth: 1177
Flags: W
LayerCount: 2
Fore
SplineSet
164 0 m 1,0,-1
 164 585 l 2,1,2
 164 652 164 652 183.5 696.5 c 128,-1,3
 203 741 203 741 236 767.5 c 128,-1,4
 269 794 269 794 311 805 c 128,-1,5
 353 816 353 816 398 816 c 0,6,7
 444 816 444 816 492.5 809 c 128,-1,8
 541 802 541 802 580 783 c 1,9,-1
 555 664 l 1,10,11
 528 673 528 673 487 683 c 128,-1,12
 446 693 446 693 410 693 c 0,13,14
 390 693 390 693 371.5 689.5 c 128,-1,15
 353 686 353 686 339.5 674 c 128,-1,16
 326 662 326 662 318 640 c 128,-1,17
 310 618 310 618 310 583 c 2,18,-1
 310 0 l 1,19,-1
 164 0 l 1,0,-1
EndSplineSet
Substitution2: "'case' Case-Sensitive Forms lookup 17 subtable" S
EndChar

StartChar: dotlessj
Encoding: 567 567 349
Width: 588
VWidth: 1177
Flags: W
LayerCount: 2
Fore
SplineSet
471 37 m 2,0,1
 471 -30 471 -30 454.5 -75.5 c 128,-1,2
 438 -121 438 -121 409 -149 c 128,-1,3
 380 -177 380 -177 341 -188.5 c 128,-1,4
 302 -200 302 -200 256 -200 c 0,5,6
 199 -200 199 -200 150.5 -186 c 128,-1,7
 102 -172 102 -172 58 -150 c 1,8,-1
 102 -27 l 1,9,10
 131 -43 131 -43 173.5 -58 c 128,-1,11
 216 -73 216 -73 250 -73 c 0,12,13
 287 -73 287 -73 306.5 -51 c 128,-1,14
 326 -29 326 -29 326 29 c 2,15,-1
 326 432 l 1,16,-1
 102 432 l 1,17,-1
 102 552 l 1,18,-1
 471 552 l 1,19,-1
 471 37 l 2,0,1
EndSplineSet
Substitution2: "'case' Case-Sensitive Forms lookup 17 subtable" J
EndChar

StartChar: apostrophe
Encoding: 700 700 350
Width: 588
VWidth: 1177
Flags: W
LayerCount: 2
Fore
SplineSet
380 816 m 1,0,1
 380 803 380 803 380 793.5 c 128,-1,2
 380 784 380 784 379 771 c 0,3,4
 377 738 377 738 371.5 711 c 128,-1,5
 366 684 366 684 357.5 660 c 128,-1,6
 349 636 349 636 337 613.5 c 128,-1,7
 325 591 325 591 310 568 c 1,8,-1
 207 596 l 1,9,10
 229 644 229 644 238 684 c 128,-1,11
 247 724 247 724 247 769 c 0,12,13
 247 782 247 782 246.5 794.5 c 128,-1,14
 246 807 246 807 244 816 c 1,15,-1
 380 816 l 1,0,1
EndSplineSet
EndChar

StartChar: caron
Encoding: 711 711 351
Width: 588
VWidth: 1177
Flags: W
LayerCount: 2
Fore
SplineSet
132 744 m 1,0,-1
 190 814 l 1,1,-1
 294 733 l 1,2,-1
 399 814 l 1,3,-1
 459 744 l 1,4,-1
 294 601 l 1,5,-1
 132 744 l 1,0,-1
EndSplineSet
EndChar

StartChar: uni02C9
Encoding: 713 713 352
Width: 588
VWidth: 1177
Flags: W
LayerCount: 2
Fore
SplineSet
125 762 m 1,0,-1
 464 762 l 1,1,-1
 464 655 l 1,2,-1
 125 655 l 1,3,-1
 125 762 l 1,0,-1
EndSplineSet
EndChar

StartChar: breve
Encoding: 728 728 353
Width: 588
VWidth: 1177
Flags: W
LayerCount: 2
Fore
SplineSet
294 629 m 256,0,1
 257 629 257 629 226.5 640 c 128,-1,2
 196 651 196 651 173 673 c 128,-1,3
 150 695 150 695 137 725.5 c 128,-1,4
 124 756 124 756 124 795 c 2,5,-1
 124 803 l 1,6,-1
 231 803 l 1,7,8
 233 758 233 758 251 743.5 c 128,-1,9
 269 729 269 729 294 729 c 256,10,11
 320 729 320 729 338 744 c 128,-1,12
 356 759 356 759 359 803 c 1,13,-1
 465 803 l 1,14,-1
 465 795 l 2,15,16
 465 756 465 756 452 725.5 c 128,-1,17
 439 695 439 695 416 673 c 128,-1,18
 393 651 393 651 362 640 c 128,-1,19
 331 629 331 629 294 629 c 256,0,1
EndSplineSet
EndChar

StartChar: dotaccent
Encoding: 729 729 354
Width: 588
VWidth: 1177
Flags: W
LayerCount: 2
Fore
SplineSet
294 631 m 256,0,1
 260 631 260 631 235.5 653 c 128,-1,2
 211 675 211 675 211 713 c 256,3,4
 211 751 211 751 235.5 773 c 128,-1,5
 260 795 260 795 294 795 c 256,6,7
 328 795 328 795 353 772.5 c 128,-1,8
 378 750 378 750 378 713 c 256,9,10
 378 675 378 675 353 653 c 128,-1,11
 328 631 328 631 294 631 c 256,0,1
EndSplineSet
EndChar

StartChar: ring
Encoding: 730 730 355
Width: 588
VWidth: 1177
Flags: W
LayerCount: 2
Fore
SplineSet
418 711 m 0,0,1
 418 652 418 652 381 621.5 c 128,-1,2
 344 591 344 591 293 591 c 0,3,4
 269 591 269 591 247 599 c 128,-1,5
 225 607 225 607 208 622 c 128,-1,6
 191 637 191 637 181 659.5 c 128,-1,7
 171 682 171 682 171 711 c 256,8,9
 171 740 171 740 181 763.5 c 128,-1,10
 191 787 191 787 208 802 c 128,-1,11
 225 817 225 817 247.5 825 c 128,-1,12
 270 833 270 833 293 833 c 0,13,14
 344 833 344 833 381 802 c 128,-1,15
 418 771 418 771 418 711 c 0,0,1
342 711 m 0,16,17
 342 736 342 736 327.5 748.5 c 128,-1,18
 313 761 313 761 293 761 c 0,19,20
 275 761 275 761 260.5 748.5 c 128,-1,21
 246 736 246 736 246 711 c 0,22,23
 246 687 246 687 261 674.5 c 128,-1,24
 276 662 276 662 293 662 c 0,25,26
 313 662 313 662 327.5 674.5 c 128,-1,27
 342 687 342 687 342 711 c 0,16,17
EndSplineSet
EndChar

StartChar: ogonek
Encoding: 731 731 356
Width: 588
VWidth: 1177
Flags: W
LayerCount: 2
Fore
SplineSet
408 -184 m 1,0,1
 392 -190 392 -190 361.5 -195 c 128,-1,2
 331 -200 331 -200 298 -200 c 0,3,4
 241 -200 241 -200 216.5 -178.5 c 128,-1,5
 192 -157 192 -157 192 -125 c 0,6,7
 192 -90 192 -90 218.5 -50.5 c 128,-1,8
 245 -11 245 -11 287 15 c 1,9,-1
 410 15 l 1,10,11
 402 9 402 9 386 -3.5 c 128,-1,12
 370 -16 370 -16 354 -32 c 128,-1,13
 338 -48 338 -48 326 -64.5 c 128,-1,14
 314 -81 314 -81 314 -95 c 0,15,16
 314 -107 314 -107 320.5 -115.5 c 128,-1,17
 327 -124 327 -124 346 -124 c 0,18,19
 355 -124 355 -124 368.5 -122.5 c 128,-1,20
 382 -121 382 -121 399 -115 c 1,21,-1
 408 -184 l 1,0,1
EndSplineSet
EndChar

StartChar: hungarumlaut
Encoding: 733 733 357
Width: 588
VWidth: 1177
Flags: W
LayerCount: 2
Fore
SplineSet
304 733 m 1,0,-1
 134 601 l 1,1,-1
 79 658 l 1,2,-1
 221 815 l 1,3,-1
 304 733 l 1,0,-1
516 733 m 1,4,-1
 346 601 l 1,5,-1
 291 658 l 1,6,-1
 435 814 l 1,7,-1
 516 733 l 1,4,-1
EndSplineSet
EndChar

StartChar: fraction
Encoding: 8260 8260 366
Width: 588
VWidth: 1177
Flags: W
LayerCount: 2
Fore
SplineSet
558 729 m 1,0,-1
 147 0 l 1,1,-1
 29 0 l 1,2,-1
 441 729 l 1,3,-1
 558 729 l 1,0,-1
EndSplineSet
EndChar

StartChar: zerosuperior
Encoding: 8304 8304 367
Width: 588
VWidth: 1177
Flags: W
LayerCount: 2
Fore
SplineSet
120 528 m 256,0,1
 120 633 120 633 165.5 689.5 c 128,-1,2
 211 746 211 746 296 746 c 0,3,4
 380 746 380 746 425 689.5 c 128,-1,5
 470 633 470 633 470 528 c 256,6,7
 470 423 470 423 424.5 366.5 c 128,-1,8
 379 310 379 310 296 310 c 0,9,10
 211 310 211 310 165.5 366.5 c 128,-1,11
 120 423 120 423 120 528 c 256,0,1
358 528 m 0,12,13
 358 583 358 583 345 617 c 128,-1,14
 332 651 332 651 297 651 c 256,15,16
 262 651 262 651 247 617 c 128,-1,17
 232 583 232 583 232 528 c 0,18,19
 232 471 232 471 246.5 437.5 c 128,-1,20
 261 404 261 404 297 404 c 256,21,22
 332 404 332 404 345 437.5 c 128,-1,23
 358 471 358 471 358 528 c 0,12,13
330 531 m 256,24,25
 330 512 330 512 320.5 499 c 128,-1,26
 311 486 311 486 294 486 c 256,27,28
 278 486 278 486 268.5 499 c 128,-1,29
 259 512 259 512 259 531 c 256,30,31
 259 550 259 550 268.5 563 c 128,-1,32
 278 576 278 576 294 576 c 256,33,34
 310 576 310 576 320 563 c 128,-1,35
 330 550 330 550 330 531 c 256,24,25
EndSplineSet
Substitution2: "Single Substitution lookup 22 subtable" zeroinferior
Substitution2: "'sinf' Scientific Inferiors lookup 11 subtable" zero.sinf
Substitution2: "'subs' Subscript lookup 10 subtable" zero.sinf
Substitution2: "'sups' Superscript lookup 9 subtable" zero.sups
Substitution2: "'dnom' Denominators lookup 8 subtable" zeroinferior
EndChar

